<?xml version="1.0" encoding="UTF-8" standalone="no"?>
<!-- Created with Inkscape (http://www.inkscape.org/) -->

<svg
   xmlns:dc="http://purl.org/dc/elements/1.1/"
   xmlns:cc="http://creativecommons.org/ns#"
   xmlns:rdf="http://www.w3.org/1999/02/22-rdf-syntax-ns#"
   xmlns:svg="http://www.w3.org/2000/svg"
   xmlns="http://www.w3.org/2000/svg"
   xmlns:xlink="http://www.w3.org/1999/xlink"
   xmlns:sodipodi="http://sodipodi.sourceforge.net/DTD/sodipodi-0.dtd"
   xmlns:inkscape="http://www.inkscape.org/namespaces/inkscape"
   width="64px"
   height="64px"
   id="svg3770"
   version="1.1"
   inkscape:version="0.47 r22583"
   sodipodi:docname="book.svg"
   inkscape:export-filename="/home/blitz/documents/projects/surveyEditor-svn/icons/book.png"
   inkscape:export-xdpi="90"
   inkscape:export-ydpi="90">
  <defs
     id="defs3772">
    <linearGradient
       inkscape:collect="always"
       id="linearGradient3606">
      <stop
         style="stop-color:#2b2b2b;stop-opacity:1;"
         offset="0"
         id="stop3608" />
      <stop
         style="stop-color:#2b2b2b;stop-opacity:0;"
         offset="1"
         id="stop3610" />
    </linearGradient>
    <linearGradient
       id="linearGradient3598">
      <stop
         style="stop-color:#fafafa;stop-opacity:1;"
         offset="0"
         id="stop3600" />
      <stop
         id="stop3614"
         offset="0.5"
         style="stop-color:#b83c11;stop-opacity:1;" />
      <stop
         style="stop-color:#fdfdfd;stop-opacity:1;"
         offset="1"
         id="stop3602" />
    </linearGradient>
    <inkscape:perspective
       sodipodi:type="inkscape:persp3d"
       inkscape:vp_x="0 : 32 : 1"
       inkscape:vp_y="0 : 1000 : 0"
       inkscape:vp_z="64 : 32 : 1"
       inkscape:persp3d-origin="32 : 21.333333 : 1"
       id="perspective3778" />
    <linearGradient
       inkscape:collect="always"
       xlink:href="#linearGradient3598"
       id="linearGradient3604"
       x1="0.5"
       y1="31.5"
       x2="63.5"
       y2="31.5"
       gradientUnits="userSpaceOnUse" />
    <linearGradient
       inkscape:collect="always"
       xlink:href="#linearGradient3606"
       id="linearGradient3612"
       x1="30.75"
       y1="33"
       x2="33.25"
       y2="33"
       gradientUnits="userSpaceOnUse"
       gradientTransform="matrix(0.94574246,0,0,0.84800763,1.6872029,4.3821556)" />
    <inkscape:perspective
       id="perspective3705"
       inkscape:persp3d-origin="0.5 : 0.33333333 : 1"
       inkscape:vp_z="1 : 0.5 : 1"
       inkscape:vp_y="0 : 1000 : 0"
       inkscape:vp_x="0 : 0.5 : 1"
       sodipodi:type="inkscape:persp3d" />
    <linearGradient
       inkscape:collect="always"
       xlink:href="#linearGradient3598-5"
       id="linearGradient3604-1"
       x1="0.5"
       y1="31.5"
       x2="63.5"
       y2="31.5"
       gradientUnits="userSpaceOnUse" />
    <linearGradient
       id="linearGradient3598-5">
      <stop
         style="stop-color:#2b2b2b;stop-opacity:0;"
         offset="0"
         id="stop3600-9" />
      <stop
         id="stop3614-4"
         offset="0.5"
         style="stop-color:#2b2b2b;stop-opacity:0.55000001;" />
      <stop
         style="stop-color:#2b2b2b;stop-opacity:0.025;"
         offset="1"
         id="stop3602-4" />
    </linearGradient>
    <inkscape:perspective
       id="perspective3764"
       inkscape:persp3d-origin="0.5 : 0.33333333 : 1"
       inkscape:vp_z="1 : 0.5 : 1"
       inkscape:vp_y="0 : 1000 : 0"
       inkscape:vp_x="0 : 0.5 : 1"
       sodipodi:type="inkscape:persp3d" />
    <filter
       inkscape:collect="always"
       id="filter3816">
      <feGaussianBlur
         inkscape:collect="always"
         stdDeviation="0.310008"
         id="feGaussianBlur3818" />
    </filter>
    <linearGradient
       inkscape:collect="always"
       xlink:href="#linearGradient3598"
       id="linearGradient3826"
       x1="1.5000004"
       y1="31.5"
       x2="62.5"
       y2="31.5"
       gradientUnits="userSpaceOnUse" />
    <inkscape:perspective
       id="perspective4599"
       inkscape:persp3d-origin="0.5 : 0.33333333 : 1"
       inkscape:vp_z="1 : 0.5 : 1"
       inkscape:vp_y="0 : 1000 : 0"
       inkscape:vp_x="0 : 0.5 : 1"
       sodipodi:type="inkscape:persp3d" />
    <inkscape:perspective
       id="perspective4621"
       inkscape:persp3d-origin="0.5 : 0.33333333 : 1"
       inkscape:vp_z="1 : 0.5 : 1"
       inkscape:vp_y="0 : 1000 : 0"
       inkscape:vp_x="0 : 0.5 : 1"
       sodipodi:type="inkscape:persp3d" />
    <filter
       inkscape:collect="always"
       id="filter4653">
      <feGaussianBlur
         inkscape:collect="always"
         stdDeviation="0.56095452"
         id="feGaussianBlur4655" />
    </filter>
  </defs>
  <sodipodi:namedview
     id="base"
     pagecolor="#ffffff"
     bordercolor="#666666"
     borderopacity="1.0"
     inkscape:pageopacity="0.0"
     inkscape:pageshadow="2"
     inkscape:zoom="11"
     inkscape:cx="33.437358"
     inkscape:cy="33.10855"
     inkscape:current-layer="layer1"
     showgrid="true"
     inkscape:document-units="px"
     inkscape:grid-bbox="true"
     inkscape:snap-global="false"
     inkscape:window-width="1600"
     inkscape:window-height="1173"
     inkscape:window-x="1600"
     inkscape:window-y="0"
     inkscape:window-maximized="1">
    <inkscape:grid
       type="xygrid"
       id="grid3782" />
  </sodipodi:namedview>
  <metadata
     id="metadata3775">
    <rdf:RDF>
      <cc:Work
         rdf:about="">
        <dc:format>image/svg+xml</dc:format>
        <dc:type
           rdf:resource="http://purl.org/dc/dcmitype/StillImage" />
        <dc:title></dc:title>
      </cc:Work>
    </rdf:RDF>
  </metadata>
  <g
     id="layer1"
     inkscape:label="Layer 1"
     inkscape:groupmode="layer">
    <path
       style="fill:#fdfdfd;fill-opacity:1;stroke:none"
       d="m 5.6421263,7.6200029 26.4807887,4.2400381 26.480789,-4.2400381 0,46.6404191 -26.480789,-1.696015 -26.4807887,1.696015 0,-46.6404191 z"
       id="path3786-0-0"
       sodipodi:nodetypes="ccccccc"
       inkscape:export-filename="/home/blitz/documents/projects/surveyEditor-svn/icons/path3854.png"
       inkscape:export-xdpi="90"
       inkscape:export-ydpi="90" />
    <path
       sodipodi:type="inkscape:offset"
       inkscape:radius="0.91362506"
       inkscape:original="M 6.15625 3.15625 A 2.2390807 2.2390807 0 0 0 4 5.40625 L 4 52.0625 A 2.2390807 2.2390807 0 0 0 6.375 54.28125 L 32.71875 52.59375 L 59.0625 54.28125 A 2.2390807 2.2390807 0 0 0 61.4375 52.0625 L 61.4375 5.40625 A 2.2390807 2.2390807 0 0 0 58.84375 3.1875 L 32.71875 7.375 L 6.59375 3.1875 A 2.2390807 2.2390807 0 0 0 6.15625 3.15625 z M 8.5 8.03125 L 32.375 11.84375 A 2.2390807 2.2390807 0 0 0 33.09375 11.84375 L 56.96875 8.03125 L 56.96875 49.65625 L 32.875 48.125 A 2.2390807 2.2390807 0 0 0 32.59375 48.125 L 8.5 49.65625 L 8.5 8.03125 z "
       style="font-size:medium;font-style:normal;font-variant:normal;font-weight:normal;font-stretch:normal;text-indent:0;text-align:start;text-decoration:none;line-height:normal;letter-spacing:normal;word-spacing:normal;text-transform:none;direction:ltr;block-progression:tb;writing-mode:lr-tb;text-anchor:start;color:#000000;fill:#5f5f5f;fill-opacity:1;stroke:none;stroke-width:4.47771357999999964;marker:none;visibility:visible;display:inline;overflow:visible;enable-background:accumulate;font-family:Bitstream Vera Sans;-inkscape-font-specification:Bitstream Vera Sans;filter:url(#filter4653)"
       id="path4647"
       d="m 5.96875,2.25 c -0.021177,0.00181 -0.1351844,0.028427 -0.15625,0.03125 -0.021066,0.00282 -0.1353445,-0.00383 -0.15625,0 -0.020905,0.00383 -0.104303,0.026417 -0.125,0.03125 -0.020697,0.00483 -0.1358093,0.056677 -0.15625,0.0625 -0.020441,0.00582 -0.136113,0.024451 -0.15625,0.03125 -0.020137,0.0068 -0.1052132,0.054741 -0.125,0.0625 -0.019787,0.00776 -0.1368592,0.053798 -0.15625,0.0625 -0.019391,0.0087 -0.1060501,0.052876 -0.125,0.0625 -0.01895,0.00962 -0.1065348,0.051976 -0.125,0.0625 -0.018465,0.010524 -0.1070623,0.0511 -0.125,0.0625 -0.017938,0.0114 -0.1076312,0.0815 -0.125,0.09375 -0.017369,0.01225 -0.1082404,0.080679 -0.125,0.09375 -0.01676,0.013071 -0.1088883,0.079889 -0.125,0.09375 -0.016112,0.013861 -0.1095735,0.07913 -0.125,0.09375 -0.015427,0.01462 -0.079044,0.109655 -0.09375,0.125 -0.014706,0.015345 -0.079799,0.077716 -0.09375,0.09375 -0.013951,0.016034 -0.1118364,0.1083133 -0.125,0.125 -0.013164,0.016687 -0.050154,0.1076996 -0.0625,0.125 -0.012346,0.0173 -0.08225,0.1071259 -0.09375,0.125 -0.0115,0.017874 -0.083123,0.1065936 -0.09375,0.125 -0.010627,0.018406 -0.05277,0.1061039 -0.0625,0.125 -0.00973,0.018896 -0.05369,0.1369079 -0.0625,0.15625 -0.00881,0.019342 -0.054631,0.1052567 -0.0625,0.125 C 3.3046307,4.2384933 3.2569108,4.3549011 3.25,4.375 3.2430892,4.3950989 3.2246863,4.479592 3.21875,4.5 3.2128137,4.520408 3.1924481,4.6355802 3.1875,4.65625 c -0.00495,0.02067 -0.027302,0.1353662 -0.03125,0.15625 -0.00395,0.020884 -0.02831,0.1352004 -0.03125,0.15625 -0.00294,0.02105 -0.029326,0.1038334 -0.03125,0.125 -0.00192,0.021167 9.04e-4,0.1350154 0,0.15625 -9.04e-4,0.021235 -1.182e-4,0.1349965 0,0.15625 l 0,46.65625 c 1.622e-4,0.02243 -0.0013,0.133861 0,0.15625 0.0013,0.02239 -0.00243,0.133956 0,0.15625 0.00243,0.02229 0.027688,0.165358 0.03125,0.1875 0.00356,0.02214 0.026569,0.134317 0.03125,0.15625 0.00468,0.02193 0.025462,0.134583 0.03125,0.15625 0.00579,0.02167 0.05562,0.103654 0.0625,0.125 0.00688,0.02135 0.023296,0.135281 0.03125,0.15625 0.00795,0.02097 0.053492,0.135712 0.0625,0.15625 0.00901,0.02054 0.052462,0.136195 0.0625,0.15625 0.010038,0.02005 0.082707,0.10548 0.09375,0.125 0.011043,0.01952 0.050481,0.137316 0.0625,0.15625 0.012019,0.01893 0.080786,0.1067 0.09375,0.125 0.012964,0.0183 0.079874,0.107381 0.09375,0.125 0.013876,0.01762 0.1102479,0.108108 0.125,0.125 0.014752,0.01689 0.07816,0.108878 0.09375,0.125 0.01559,0.01612 0.1086119,0.07844 0.125,0.09375 0.016388,0.01531 0.1078562,0.110541 0.125,0.125 0.017144,0.01446 0.1071447,0.08018 0.125,0.09375 0.017855,0.01357 0.1064792,0.0811 0.125,0.09375 0.018521,0.01265 0.1058613,0.08206 0.125,0.09375 0.019139,0.01169 0.1052928,0.05179 0.125,0.0625 0.019707,0.01071 0.1360251,0.05281 0.15625,0.0625 0.020225,0.0097 0.1355594,0.0851 0.15625,0.09375 0.020691,0.0087 0.1038971,0.02366 0.125,0.03125 0.021103,0.0076 0.1347891,0.05599 0.15625,0.0625 0.021461,0.0065 0.1344864,0.02584 0.15625,0.03125 0.021764,0.0054 0.1342397,0.02695 0.15625,0.03125 0.02201,0.0043 0.1340498,0.02807 0.15625,0.03125 0.0222,0.0032 0.133917,0.0292 0.15625,0.03125 0.022333,0.002 0.1650918,-9.14e-4 0.1875,0 0.022408,9.14e-4 0.1338243,2.24e-4 0.15625,0 0.022426,-2.24e-4 0.1338646,0.0014 0.15625,0 L 32.65625,53.5 l 0.125,0 L 59,55.1875 c 0.02238,0.0014 0.133824,-2.24e-4 0.15625,0 0.02243,2.24e-4 0.133842,9.14e-4 0.15625,0 0.02241,-9.14e-4 0.165167,0.002 0.1875,0 0.02233,-0.002 0.13405,-0.02807 0.15625,-0.03125 0.0222,-0.0032 0.13424,-0.02695 0.15625,-0.03125 0.02201,-0.0043 0.134486,-0.02584 0.15625,-0.03125 0.02176,-0.0054 0.134789,-0.02474 0.15625,-0.03125 0.02146,-0.0065 0.135147,-0.05491 0.15625,-0.0625 0.0211,-0.0076 0.104309,-0.0226 0.125,-0.03125 0.02069,-0.0087 0.136025,-0.08406 0.15625,-0.09375 0.02023,-0.0097 0.136543,-0.05179 0.15625,-0.0625 0.01971,-0.01071 0.105861,-0.05081 0.125,-0.0625 0.01914,-0.01169 0.106479,-0.0811 0.125,-0.09375 0.01852,-0.01265 0.107145,-0.08018 0.125,-0.09375 0.01785,-0.01357 0.107856,-0.07929 0.125,-0.09375 0.01714,-0.01446 0.108612,-0.10969 0.125,-0.125 0.01639,-0.01531 0.10941,-0.07763 0.125,-0.09375 0.01559,-0.01612 0.079,-0.108108 0.09375,-0.125 0.01475,-0.01689 0.111124,-0.107381 0.125,-0.125 0.01388,-0.01762 0.08079,-0.1067 0.09375,-0.125 0.01296,-0.0183 0.08173,-0.106066 0.09375,-0.125 0.01202,-0.01893 0.05146,-0.13673 0.0625,-0.15625 0.01104,-0.01952 0.08371,-0.104945 0.09375,-0.125 0.01004,-0.02005 0.05349,-0.135712 0.0625,-0.15625 0.009,-0.02054 0.05455,-0.135281 0.0625,-0.15625 0.008,-0.02097 0.02437,-0.134904 0.03125,-0.15625 0.0069,-0.02135 0.05671,-0.103333 0.0625,-0.125 0.0058,-0.02167 0.02657,-0.134317 0.03125,-0.15625 0.0047,-0.02193 0.02769,-0.134108 0.03125,-0.15625 0.0036,-0.02214 0.02882,-0.165206 0.03125,-0.1875 0.0024,-0.02229 -0.0013,-0.133861 0,-0.15625 0.0013,-0.02239 -1.62e-4,-0.133824 0,-0.15625 l 0,-46.65625 c 8.5e-5,-0.023933 0.0012,-0.1323477 0,-0.15625 -0.0012,-0.023902 0.0025,-0.1636983 0,-0.1875 -0.0025,-0.023802 -0.02746,-0.1326187 -0.03125,-0.15625 -0.0038,-0.023631 -0.02619,-0.1641085 -0.03125,-0.1875 C 62.276188,4.6953585 62.256321,4.5855831 62.25,4.5625 62.243679,4.5394169 62.195062,4.428957 62.1875,4.40625 62.179938,4.383543 62.13378,4.2722642 62.125,4.25 62.11622,4.2277358 62.072473,4.1155062 62.0625,4.09375 62.052527,4.0719938 62.011136,3.9586843 62,3.9375 61.988864,3.9163157 61.918517,3.8018003 61.90625,3.78125 61.893983,3.7606997 61.825861,3.644856 61.8125,3.625 61.799139,3.605144 61.733167,3.5191035 61.71875,3.5 61.704333,3.4808965 61.60918,3.3932949 61.59375,3.375 61.57832,3.3567051 61.516398,3.2674326 61.5,3.25 61.483602,3.2325674 61.392318,3.1415192 61.375,3.125 61.357682,3.1084808 61.268187,3.0155573 61.25,3 c -0.01819,-0.015557 -0.105998,-0.0792 -0.125,-0.09375 -0.019,-0.01455 -0.136488,-0.1115003 -0.15625,-0.125 -0.01976,-0.0135 -0.104536,-0.08134 -0.125,-0.09375 -0.02046,-0.01241 -0.135144,-0.051216 -0.15625,-0.0625 -0.02111,-0.011284 -0.134564,-0.083626 -0.15625,-0.09375 -0.02169,-0.010124 -0.134048,-0.053565 -0.15625,-0.0625 -0.0222,-0.00894 -0.133596,-0.05478 -0.15625,-0.0625 -0.02265,-0.00772 -0.133212,-0.024768 -0.15625,-0.03125 -0.02304,-0.00648 -0.164144,-0.057275 -0.1875,-0.0625 -0.02336,-0.00523 -0.132646,-0.027297 -0.15625,-0.03125 -0.0236,-0.00395 -0.132466,-0.028581 -0.15625,-0.03125 -0.02378,-0.00267 -0.163607,0.00138 -0.1875,0 -0.02389,-0.00138 -0.132317,8.21e-5 -0.15625,0 -0.02393,-8.21e-5 -0.163598,-0.00121 -0.1875,0 -0.0239,0.00121 -0.132449,-0.00251 -0.15625,0 -0.0238,0.00251 -0.163869,0.027459 -0.1875,0.03125 L 32.71875,6.4375 6.75,2.28125 C 6.7286385,2.2775961 6.615265,2.2526021 6.59375,2.25 c -0.021515,-0.0026 -0.1346333,0.00154 -0.15625,0 -0.021617,-0.00154 -0.1345836,4.823e-4 -0.15625,0 -0.021666,-4.823e-4 -0.134586,-5.806e-4 -0.15625,0 -0.021239,7.859e-4 -0.1350731,-0.00181 -0.15625,0 z m 3.4375,6.84375 22.8125,3.65625 c 0.03515,0.0057 0.214505,0.02838 0.25,0.03125 0.03549,0.0029 0.24564,0 0.28125,0 0.03561,0 0.214505,0.0029 0.25,0 0.03549,-0.0029 0.214851,-0.02553 0.25,-0.03125 l 22.8125,-3.65625 0,39.59375 -23.125,-1.46875 c -0.02771,-0.0017 -0.159733,0 -0.1875,0 -0.02777,0 -0.191038,-0.0017 -0.21875,0 l -23.125,1.46875 0,-39.59375 z"
       transform="translate(-0.81818182,2.5454545)" />
    <path
       style="fill:url(#linearGradient3612);fill-opacity:1;stroke:#000000;stroke-width:1.79108548;stroke-linecap:butt;stroke-linejoin:miter;stroke-miterlimit:4;stroke-opacity:1;stroke-dasharray:none"
       d="m 31.950962,12.014224 0,40.704366"
       id="path3596"
       inkscape:export-filename="/home/blitz/documents/projects/surveyEditor-svn/icons/path3854.png"
       inkscape:export-xdpi="90"
       inkscape:export-ydpi="90" />
    <path
       style="fill:none;stroke:#e7e7e7;stroke-width:4.47771358;stroke-linecap:round;stroke-linejoin:round;stroke-miterlimit:4;stroke-opacity:1;stroke-dasharray:none"
       d="m 5.4701731,7.7741858 26.4807889,4.2400382 26.48079,-4.2400382 0,46.6404192 -26.48079,-1.696015 -26.4807889,1.696015 0,-46.6404192 z"
       id="path3786-0"
       sodipodi:nodetypes="ccccccc"
       inkscape:export-filename="/home/blitz/documents/projects/surveyEditor-svn/icons/path3854.png"
       inkscape:export-xdpi="90"
       inkscape:export-ydpi="90" />
    <path
       style="fill:none;stroke:#000000;stroke-width:0.89554274px;stroke-linecap:butt;stroke-linejoin:miter;stroke-opacity:1"
       d="m 11.144628,20.4943 17.023365,0"
       id="path3840"
       inkscape:export-filename="/home/blitz/documents/projects/surveyEditor-svn/icons/path3854.png"
       inkscape:export-xdpi="90"
       inkscape:export-ydpi="90" />
    <path
       style="fill:none;stroke:#000000;stroke-width:0.89554274px;stroke-linecap:butt;stroke-linejoin:miter;stroke-opacity:1"
       d="m 11.144628,28.974377 17.023365,0"
       id="path3842"
       inkscape:export-filename="/home/blitz/documents/projects/surveyEditor-svn/icons/path3854.png"
       inkscape:export-xdpi="90"
       inkscape:export-ydpi="90" />
    <path
       style="fill:none;stroke:#000000;stroke-width:0.89554274px;stroke-linecap:butt;stroke-linejoin:miter;stroke-opacity:1"
       d="m 11.144628,37.454453 17.023365,0"
       id="path3844"
       inkscape:export-filename="/home/blitz/documents/projects/surveyEditor-svn/icons/path3854.png"
       inkscape:export-xdpi="90"
       inkscape:export-ydpi="90" />
    <path
       style="fill:none;stroke:#000000;stroke-width:0.89554274px;stroke-linecap:butt;stroke-linejoin:miter;stroke-opacity:1"
       d="m 11.230604,45.857438 16.937389,0.07709"
       id="path3846"
       inkscape:export-filename="/home/blitz/documents/projects/surveyEditor-svn/icons/path3854.png"
       inkscape:export-xdpi="90"
       inkscape:export-ydpi="90" />
    <path
       style="fill:none;stroke:#000000;stroke-width:0.89554274px;stroke-linecap:butt;stroke-linejoin:miter;stroke-opacity:1"
       d="m 35.776921,20.571392 16.980376,0"
       id="path3848"
       inkscape:export-filename="/home/blitz/documents/projects/surveyEditor-svn/icons/path3854.png"
       inkscape:export-xdpi="90"
       inkscape:export-ydpi="90" />
    <path
       style="fill:none;stroke:#000000;stroke-width:0.89554274px;stroke-linecap:butt;stroke-linejoin:miter;stroke-opacity:1"
       d="m 35.733932,28.974377 17.023365,0"
       id="path3850"
       inkscape:export-filename="/home/blitz/documents/projects/surveyEditor-svn/icons/path3854.png"
       inkscape:export-xdpi="90"
       inkscape:export-ydpi="90" />
    <path
       style="fill:none;stroke:#000000;stroke-width:0.89554274px;stroke-linecap:butt;stroke-linejoin:miter;stroke-opacity:1"
       d="m 35.733932,37.454453 17.023365,0"
       id="path3852"
       inkscape:export-filename="/home/blitz/documents/projects/surveyEditor-svn/icons/path3854.png"
       inkscape:export-xdpi="90"
       inkscape:export-ydpi="90" />
    <path
       style="fill:none;stroke:#000000;stroke-width:0.89554274px;stroke-linecap:butt;stroke-linejoin:miter;stroke-opacity:1"
       d="m 35.733932,45.934529 17.023365,0"
       id="path3854"
       inkscape:export-filename="/home/blitz/documents/projects/surveyEditor-svn/icons/path3854.png"
       inkscape:export-xdpi="90"
       inkscape:export-ydpi="90" />
  </g>
</svg>
