<?xml version="1.0" encoding="UTF-8" standalone="no"?>
<!-- Created with Inkscape (http://www.inkscape.org/) -->

<svg
   xmlns:dc="http://purl.org/dc/elements/1.1/"
   xmlns:cc="http://creativecommons.org/ns#"
   xmlns:rdf="http://www.w3.org/1999/02/22-rdf-syntax-ns#"
   xmlns:svg="http://www.w3.org/2000/svg"
   xmlns="http://www.w3.org/2000/svg"
   xmlns:sodipodi="http://sodipodi.sourceforge.net/DTD/sodipodi-0.dtd"
   xmlns:inkscape="http://www.inkscape.org/namespaces/inkscape"
   width="64px"
   height="64px"
   id="svg2816"
   version="1.1"
   inkscape:version="0.47 r22583"
   sodipodi:docname="dataOverviewDark.svg"
   inkscape:export-filename="/home/blitz/documents/projects/surveyEditor-svn/icons/dataOverviewDark.png"
   inkscape:export-xdpi="90"
   inkscape:export-ydpi="90">
  <defs
     id="defs2818">
    <linearGradient
       id="linearGradient3712">
      <stop
         style="stop-color:#333333;stop-opacity:1;"
         offset="0"
         id="stop3714" />
      <stop
         id="stop3720"
         offset="0.5"
         style="stop-color:#333333;stop-opacity:0.82499999;" />
      <stop
         style="stop-color:#333333;stop-opacity:0;"
         offset="1"
         id="stop3716" />
    </linearGradient>
    <inkscape:perspective
       sodipodi:type="inkscape:persp3d"
       inkscape:vp_x="0 : 32 : 1"
       inkscape:vp_y="0 : 1000 : 0"
       inkscape:vp_z="64 : 32 : 1"
       inkscape:persp3d-origin="32 : 21.333333 : 1"
       id="perspective2824" />
    <inkscape:perspective
       id="perspective3627"
       inkscape:persp3d-origin="0.5 : 0.33333333 : 1"
       inkscape:vp_z="1 : 0.5 : 1"
       inkscape:vp_y="0 : 1000 : 0"
       inkscape:vp_x="0 : 0.5 : 1"
       sodipodi:type="inkscape:persp3d" />
    <inkscape:perspective
       id="perspective3657"
       inkscape:persp3d-origin="0.5 : 0.33333333 : 1"
       inkscape:vp_z="1 : 0.5 : 1"
       inkscape:vp_y="0 : 1000 : 0"
       inkscape:vp_x="0 : 0.5 : 1"
       sodipodi:type="inkscape:persp3d" />
    <filter
       inkscape:collect="always"
       id="filter3722">
      <feGaussianBlur
         inkscape:collect="always"
         stdDeviation="1.2944742"
         id="feGaussianBlur3724" />
    </filter>
    <inkscape:perspective
       id="perspective4540"
       inkscape:persp3d-origin="0.5 : 0.33333333 : 1"
       inkscape:vp_z="1 : 0.5 : 1"
       inkscape:vp_y="0 : 1000 : 0"
       inkscape:vp_x="0 : 0.5 : 1"
       sodipodi:type="inkscape:persp3d" />
    <filter
       inkscape:collect="always"
       id="filter4566"
       x="-0.14023076"
       width="1.2804615"
       y="-0.14094259"
       height="1.2818852">
      <feGaussianBlur
         inkscape:collect="always"
         stdDeviation="0.36153243"
         id="feGaussianBlur4568" />
    </filter>
  </defs>
  <sodipodi:namedview
     id="base"
     pagecolor="#ffffff"
     bordercolor="#666666"
     borderopacity="1.0"
     inkscape:pageopacity="0.0"
     inkscape:pageshadow="2"
     inkscape:zoom="7.7781746"
     inkscape:cx="67.638387"
     inkscape:cy="20.965111"
     inkscape:current-layer="layer1"
     showgrid="true"
     inkscape:document-units="px"
     inkscape:grid-bbox="true"
     inkscape:window-width="695"
     inkscape:window-height="504"
     inkscape:window-x="1679"
     inkscape:window-y="293"
     inkscape:window-maximized="0" />
  <metadata
     id="metadata2821">
    <rdf:RDF>
      <cc:Work
         rdf:about="">
        <dc:format>image/svg+xml</dc:format>
        <dc:type
           rdf:resource="http://purl.org/dc/dcmitype/StillImage" />
        <dc:title></dc:title>
      </cc:Work>
    </rdf:RDF>
  </metadata>
  <g
     id="layer1"
     inkscape:label="Layer 1"
     inkscape:groupmode="layer">
    <path
       sodipodi:type="inkscape:offset"
       inkscape:radius="0.7330265"
       inkscape:original="M 33.09375 19.28125 C 31.78835 19.28125 30.71875 20.3196 30.71875 21.625 C 30.71875 22.9304 31.78835 24 33.09375 24 C 34.39915 24 35.46875 22.9304 35.46875 21.625 C 35.46875 20.3196 34.39915 19.28125 33.09375 19.28125 z "
       style="fill:#e7e7e7;fill-opacity:1;stroke:none;filter:url(#filter4566)"
       id="path4510"
       d="M 33.09375,18.5625 C 31.399637,18.5625 30,19.919189 30,21.625 c 0,1.705811 1.387939,3.09375 3.09375,3.09375 1.705811,0 3.09375,-1.387939 3.09375,-3.09375 0,-1.705811 -1.399637,-3.0625 -3.09375,-3.0625 z"
       transform="matrix(1.4242496,0,0,1.4242496,-13.867485,-8.2656373)" />
    <path
       sodipodi:type="inkscape:offset"
       inkscape:radius="2.876862"
       inkscape:original="M -11.4375 -6.1875 C -22.822472 -6.1875 -32.0625 3.0221987 -32.0625 14.28125 C -32.0625 22.101368 -27.54338 28.826477 -21 32.28125 L -30.875 51.71875 L -30.875 51.75 C -30.903641 51.810404 -31.019854 52.064715 -31.03125 52.09375 C -31.043517 52.125005 -31.147106 52.436443 -31.15625 52.46875 C -31.165394 52.501057 -31.244067 52.810703 -31.25 52.84375 C -31.255933 52.876797 -31.309835 53.18528 -31.3125 53.21875 C -31.315165 53.25222 -31.313129 53.59143 -31.3125 53.625 C -31.311871 53.65857 -31.285167 53.966654 -31.28125 54 C -31.277333 54.033346 -31.225917 54.373448 -31.21875 54.40625 C -31.211583 54.439052 -31.135348 54.749309 -31.125 54.78125 C -31.114652 54.813191 -31.013429 55.125477 -31 55.15625 C -30.986571 55.187023 -30.828881 55.470692 -30.8125 55.5 C -30.796119 55.529308 -30.612925 55.784939 -30.59375 55.8125 C -30.574575 55.840061 -30.396785 56.099451 -30.375 56.125 C -30.353215 56.150549 -30.117934 56.41421 -30.09375 56.4375 C -30.069566 56.46079 -29.838851 56.666693 -29.8125 56.6875 C -29.786149 56.708307 -29.497014 56.888126 -29.46875 56.90625 C -29.440486 56.924374 -29.186154 57.078484 -29.15625 57.09375 C -29.126346 57.109016 -28.812507 57.237739 -28.78125 57.25 C -28.749993 57.262261 -28.438558 57.365862 -28.40625 57.375 C -28.373942 57.384138 -28.064298 57.462823 -28.03125 57.46875 C -27.998202 57.474677 -27.68972 57.528592 -27.65625 57.53125 C -27.62278 57.533908 -27.28357 57.531886 -27.25 57.53125 C -27.21643 57.530614 -26.908346 57.503923 -26.875 57.5 C -26.841654 57.496077 -26.50155 57.444673 -26.46875 57.4375 C -26.43595 57.430327 -26.125689 57.354104 -26.09375 57.34375 C -26.061811 57.333396 -25.74952 57.232185 -25.71875 57.21875 C -25.68798 57.205315 -25.404305 57.047637 -25.375 57.03125 C -25.345695 57.014863 -25.090058 56.831681 -25.0625 56.8125 C -25.034942 56.793319 -24.775545 56.61554 -24.75 56.59375 C -24.724455 56.57196 -24.460785 56.336689 -24.4375 56.3125 C -24.414215 56.288311 -24.208302 56.057605 -24.1875 56.03125 C -24.166698 56.004895 -23.986868 55.715768 -23.96875 55.6875 C -23.950632 55.659232 -23.79651 55.404908 -23.78125 55.375 A 1.4829571 1.4829571 0 0 0 -23.78125 55.34375 L -13.28125 34.65625 C -12.676402 34.718624 -12.078651 34.78125 -11.4375 34.78125 C -11.039257 34.78125 -10.626713 34.738052 -10.21875 34.71875 L 1.125 54.90625 C 1.130575 54.919098 1.1900549 54.973101 1.21875 55.03125 C 1.2703181 55.13575 1.3313791 55.259332 1.34375 55.28125 C 1.3630047 55.315365 1.5397942 55.624328 1.5625 55.65625 C 1.5852058 55.688172 1.7865905 55.939369 1.8125 55.96875 C 1.8384095 55.998131 2.096169 56.25473 2.125 56.28125 C 2.153831 56.30777 2.4060617 56.539129 2.4375 56.5625 C 2.4689383 56.585871 2.7787969 56.761284 2.8125 56.78125 C 2.8462031 56.801216 3.1518993 56.983656 3.1875 57 C 3.2231007 57.016344 3.5566395 57.143706 3.59375 57.15625 C 3.6308605 57.168794 3.9617841 57.241392 4 57.25 C 4.0382159 57.258608 4.367345 57.339173 4.40625 57.34375 C 4.445155 57.348327 4.8045798 57.374503 4.84375 57.375 C 4.8829202 57.375497 5.2422413 57.347338 5.28125 57.34375 C 5.3202587 57.340162 5.6490779 57.288885 5.6875 57.28125 C 5.7259221 57.273615 6.056333 57.199098 6.09375 57.1875 C 6.131167 57.175902 6.4639958 57.046685 6.5 57.03125 C 6.5360042 57.015815 6.8408009 56.862854 6.875 56.84375 C 6.9091991 56.824646 7.2179786 56.647565 7.25 56.625 C 7.2820214 56.602435 7.5642551 56.36953 7.59375 56.34375 C 7.6232449 56.31797 7.879603 56.091214 7.90625 56.0625 C 7.932897 56.033786 8.1327412 55.750085 8.15625 55.71875 C 8.1797588 55.687415 8.3861355 55.408615 8.40625 55.375 C 8.4263645 55.341385 8.577249 55.035528 8.59375 55 C 8.610251 54.964472 8.7372922 54.630805 8.75 54.59375 C 8.7627078 54.556695 8.8662239 54.225678 8.875 54.1875 C 8.8837761 54.149322 8.9640013 53.820134 8.96875 53.78125 C 8.9734987 53.742366 8.9680803 53.382918 8.96875 53.34375 C 8.9694197 53.304582 8.9721667 52.945274 8.96875 52.90625 C 8.9653333 52.867226 8.9137158 52.538455 8.90625 52.5 C 8.8987842 52.461545 8.8239336 52.131218 8.8125 52.09375 C 8.8010664 52.056282 8.6715268 51.723572 8.65625 51.6875 C 8.6409732 51.651428 8.4877036 51.315533 8.46875 51.28125 C 8.4562629 51.258664 8.3749952 51.161985 8.3125 51.0625 L 8.25 50.9375 L -2.1875 32.40625 C 4.5149313 29.001035 9.1875 22.216135 9.1875 14.28125 C 9.1875 3.0221988 -0.052527009 -6.1875 -11.4375 -6.1875 z M -11.4375 1.25 C -4.2036259 1.25 1.59375 7.0105179 1.59375 14.28125 C 1.59375 21.551983 -4.2036258 27.3125 -11.4375 27.3125 C -18.671373 27.3125 -24.53125 21.544322 -24.53125 14.28125 C -24.53125 7.0181794 -18.671373 1.25 -11.4375 1.25 z "
       style="font-size:medium;font-style:normal;font-variant:normal;font-weight:normal;font-stretch:normal;text-indent:0;text-align:start;text-decoration:none;line-height:normal;letter-spacing:normal;word-spacing:normal;text-transform:none;direction:ltr;block-progression:tb;writing-mode:lr-tb;text-anchor:start;color:#000000;fill:#e7e7e7;fill-opacity:1;stroke:none;stroke-width:4.30000019000000044;marker:none;visibility:visible;display:inline;overflow:visible;filter:url(#filter3722);enable-background:accumulate;font-family:Bitstream Vera Sans;-inkscape-font-specification:Bitstream Vera Sans"
       id="path3747"
       d="m -11.4375,-9.0625 c -12.936434,0 -23.5,10.5107185 -23.5,23.34375 0,7.900847 4.173932,14.66735 10.25,18.875 l -8.75,17.25 a 2.8771497,2.8771497 0 0 0 -0.1875,0.46875 2.8771497,2.8771497 0 0 0 -0.03125,0.0625 c -0.01465,0.03351 -6.62e-4,-0.0638 -0.0625,0.09375 -0.374466,0.954099 0.02152,-0.192663 -0.21875,0.65625 -0.07169,0.253276 -0.03876,0.186991 -0.0625,0.28125 -0.01187,0.04713 -0.02021,0.07982 -0.03125,0.125 -0.01104,0.04518 -0.0037,-0.07759 -0.0625,0.25 -0.01032,0.05749 -0.01517,0.124336 -0.03125,0.21875 -0.008,0.04721 -0.02343,0.07661 -0.03125,0.125 -0.0078,0.04839 0.0026,-0.112207 -0.03125,0.3125 -0.03348,0.420529 2.33e-4,0.231618 0,0.28125 -2.33e-4,0.04963 -1.39e-4,0.105422 0,0.15625 2.78e-4,0.101656 -0.0026,0.109882 0,0.25 0.0058,0.307197 -0.0035,0.173513 0,0.21875 0.0035,0.04524 0.02724,0.108964 0.03125,0.15625 0.008,0.09457 -0.0021,-0.0026 0.03125,0.28125 0.0399,0.339694 0.01575,0.179682 0.03125,0.28125 0.0078,0.05078 0.0238,0.109394 0.03125,0.15625 0.0075,0.04686 -0.03872,-0.07024 0.03125,0.25 0.05389,0.246637 0.0391,0.155656 0.0625,0.25 0.0117,0.04717 0.01969,0.111038 0.03125,0.15625 0.01156,0.04521 -0.04175,-0.103028 0.0625,0.21875 0.0056,0.01729 0.06274,0.124551 0.09375,0.21875 0.0155,0.0471 0.01506,0.07715 0.03125,0.125 0.01619,0.04785 -0.06187,-0.115718 0.125,0.3125 0.180822,0.41436 0.101255,0.237233 0.125,0.28125 0.02374,0.04402 0.0388,0.08192 0.0625,0.125 0.0474,0.08615 0.106349,0.154131 0.125,0.1875 0.249287,0.446011 0.158135,0.238908 0.1875,0.28125 0.02936,0.04234 0.03476,0.08579 0.0625,0.125 0.05548,0.07842 0.155717,0.245318 0.09375,0.15625 -0.02623,-0.03771 0.07026,0.04606 0.125,0.125 0.02737,0.03947 0.06453,0.08366 0.09375,0.125 0.02922,0.04134 -0.123834,-0.08388 0.1875,0.28125 0.158442,0.185817 0.117483,0.1094 0.1875,0.1875 0.03501,0.03905 0.06053,0.08844 0.09375,0.125 0.03322,0.03656 -0.09326,-0.08288 0.1875,0.1875 0.506767,0.488033 -0.361232,-0.242537 0.5,0.4375 0.433073,0.341959 0.236661,0.19012 0.28125,0.21875 0.04459,0.02863 0.08188,0.03534 0.125,0.0625 0.08625,0.05432 0.255169,0.157181 0.15625,0.09375 0.195832,0.125576 0.139719,0.108621 0.21875,0.15625 0.03952,0.02381 0.08605,0.03943 0.125,0.0625 0.03895,0.02307 -0.0637,-0.01919 0.21875,0.125 0.364228,0.185938 0.204583,0.105822 0.25,0.125 0.04542,0.01918 0.109282,0.04307 0.15625,0.0625 0.09394,0.03886 0.06413,0.0331 0.21875,0.09375 0.950247,0.372748 -0.196647,-0.02248 0.65625,0.21875 0.251381,0.0711 0.186991,0.03876 0.28125,0.0625 0.04713,0.01187 0.07979,0.0202 0.125,0.03125 0.04521,0.01105 -0.07858,0.0036 0.25,0.0625 0.05553,0.01 0.124334,0.01517 0.21875,0.03125 0.04721,0.008 0.07658,0.02342 0.125,0.03125 0.04842,0.0078 -0.113329,-0.0026 0.3125,0.03125 0.419344,0.0333 0.231649,-2.33e-4 0.28125,0 0.0496,2.33e-4 0.105422,1.38e-4 0.15625,0 0.101656,-2.76e-4 0.107465,0.0027 0.25,0 0.306091,-0.0058 0.173546,0.0035 0.21875,0 0.0452,-0.0035 0.108966,-0.02724 0.15625,-0.03125 0.09457,-0.008 -0.0046,0.0024 0.28125,-0.03125 0.337605,-0.03972 0.179681,-0.01575 0.28125,-0.03125 0.05079,-0.0078 0.109367,-0.02379 0.15625,-0.03125 0.04688,-0.0075 -0.0713,0.03901 0.25,-0.03125 0.244611,-0.05349 0.155656,-0.0391 0.25,-0.0625 0.04717,-0.0117 0.111009,-0.01969 0.15625,-0.03125 0.04524,-0.01156 -0.103997,0.04213 0.21875,-0.0625 0.01525,-0.0049 0.12455,-0.06275 0.21875,-0.09375 0.0471,-0.0155 0.07712,-0.01505 0.125,-0.03125 0.04788,-0.0162 -0.116708,0.0624 0.3125,-0.125 0.413309,-0.180462 0.237261,-0.10127 0.28125,-0.125 0.04399,-0.02373 0.08192,-0.0388 0.125,-0.0625 0.08615,-0.0474 0.152186,-0.105253 0.1875,-0.125 0.445013,-0.248846 0.238934,-0.158153 0.28125,-0.1875 0.04232,-0.02935 0.08579,-0.03476 0.125,-0.0625 0.07842,-0.05548 0.243534,-0.154502 0.15625,-0.09375 -0.03946,0.02747 0.04606,-0.07027 0.125,-0.125 0.03947,-0.02737 0.08364,-0.06452 0.125,-0.09375 0.04136,-0.02923 -0.0846,0.124574 0.28125,-0.1875 0.184031,-0.156979 0.109398,-0.117484 0.1875,-0.1875 0.03905,-0.03501 0.08842,-0.06051 0.125,-0.09375 0.03658,-0.03324 -0.08369,0.09422 0.1875,-0.1875 0.484814,-0.503637 -0.24493,0.364602 0.4375,-0.5 0.341184,-0.432262 0.190135,-0.236685 0.21875,-0.28125 0.02861,-0.04456 0.03534,-0.08187 0.0625,-0.125 0.05432,-0.08625 0.187074,-0.253098 0.125,-0.15625 0.124327,-0.193977 0.07737,-0.13972 0.125,-0.21875 0.02381,-0.03952 0.03941,-0.08602 0.0625,-0.125 0.02309,-0.03898 -0.01963,0.06472 0.125,-0.21875 a 2.8771497,2.8771497 0 0 0 0,-0.03125 l 0.125,-0.21875 a 2.8771497,2.8771497 0 0 0 0,-0.03125 l 9.375,-18.5 L -1.5,56.0625 c 1.93e-4,4.45e-4 0.062124,0.132986 0.125,0.25 0.053451,0.108315 0.05168,0.08846 0.09375,0.15625 0.00671,0.01111 0.026266,0.02383 0.03125,0.03125 0.00554,0.01598 -0.029145,-0.03024 0.09375,0.1875 0.03487,0.06178 0.070593,0.12467 0.125,0.21875 0.027203,0.04704 0.0345418,0.108899 0.0625,0.15625 0.0279582,0.04735 -0.0666095,-0.107252 0.1875,0.25 0.54788532,0.77027 -0.0773719,-0.02136 0.4375,0.5625 0.79045378,0.896363 -0.0147479,0.02902 0.53125,0.53125 0.0230837,0.02123 0.0780541,0.08527 0.15625,0.15625 0.0390979,0.03549 0.0840987,0.05733 0.125,0.09375 0.0409013,0.03642 -0.10356059,-0.04408 0.25,0.21875 0.4409152,0.327773 0.26218952,0.189089 0.3125,0.21875 0.05031,0.02966 0.109154,0.03539 0.15625,0.0625 0.094192,0.05421 0.2870776,0.171253 0.15625,0.09375 -0.00748,-0.0044 0.093873,0.06982 0.1875,0.125 0.046814,0.02759 0.1075556,0.06567 0.15625,0.09375 0.048694,0.02808 -0.1219724,-0.04321 0.3125,0.15625 0.5386904,0.247308 0.2732848,0.117256 0.375,0.15625 0.1017152,0.03899 -0.027253,-0.02109 0.3125,0.09375 0.4405421,0.148911 0.2584644,0.08098 0.3125,0.09375 0.054036,0.01277 0.1051229,0.01971 0.15625,0.03125 0.1022542,0.02307 0.2448723,0.06838 0.21875,0.0625 -0.1306917,-0.02944 0.05425,0.0071 0.15625,0.03125 0.051,0.01209 0.1003442,0.01864 0.15625,0.03125 0.055906,0.01261 -0.1399056,0.0019 0.375,0.0625 0.8168146,0.09609 -0.347286,0.04858 0.75,0.0625 0.4101941,0.0052 0.2583617,0.0036 0.3125,0 0.054138,-0.0036 0.1015588,-0.02717 0.15625,-0.03125 0.1093823,-0.0082 0.1117656,0.01272 0.25,0 1.0601047,-0.09751 0.017923,0.01426 0.71875,-0.125 0.2278581,-0.04528 0.1790537,-0.03916 0.28125,-0.0625 0.051098,-0.01167 0.1064239,-0.01943 0.15625,-0.03125 0.049826,-0.01182 -0.070904,0.03697 0.25,-0.0625 0.3002696,-0.09307 0.2020823,-0.07565 0.25,-0.09375 0.047918,-0.0181 0.1054416,-0.04288 0.15625,-0.0625 0.1016168,-0.03925 -0.015234,0.03335 0.28125,-0.09375 0.9580807,-0.410729 -0.023576,0.03601 0.65625,-0.34375 0.1028005,-0.05743 0.1246928,-0.07055 0.21875,-0.125 0.047029,-0.02722 0.10952,-0.0349 0.15625,-0.0625 0.04673,-0.0276 -0.089329,0.05162 0.25,-0.1875 0.2862332,-0.201704 0.1777935,-0.12313 0.21875,-0.15625 0.040957,-0.03312 0.082136,-0.05854 0.125,-0.09375 0.085727,-0.07041 0.044002,-0.0387 0.25,-0.21875 0.052028,-0.04548 0.07748,-0.08591 0.15625,-0.15625 0.039385,-0.03517 0.084951,-0.05731 0.125,-0.09375 0.040049,-0.03644 -0.068189,0.09045 0.21875,-0.21875 0.393795,-0.424341 0.246158,-0.264701 0.28125,-0.3125 0.03509,-0.0478 0.06268,-0.112918 0.09375,-0.15625 0.06213,-0.08666 0.234762,-0.312956 0.09375,-0.125 0.04455,-0.05938 0.06195,-0.101494 0.125,-0.1875 0.03152,-0.043 0.06202,-0.08087 0.09375,-0.125 0.03173,-0.04413 -0.03082,0.0836 0.1875,-0.28125 0.178328,-0.298018 0.101622,-0.203931 0.125,-0.25 0.02338,-0.04607 0.03906,-0.07783 0.0625,-0.125 0.04689,-0.09434 0.03418,-0.05445 0.125,-0.25 0.134733,-0.290092 0.106266,-0.202146 0.125,-0.25 0.01873,-0.04785 0.04303,-0.105384 0.0625,-0.15625 0.03895,-0.101732 -0.0073,0.01353 0.09375,-0.28125 0.0815,-0.237657 0.06218,-0.179389 0.09375,-0.28125 0.01579,-0.05093 0.01639,-0.106917 0.03125,-0.15625 0.01486,-0.04933 0.01827,0.07836 0.09375,-0.25 -0.01995,0.08679 0.0071,-0.08549 0.03125,-0.1875 0.01207,-0.05101 0.01881,-0.101074 0.03125,-0.15625 0.01244,-0.05518 0.0024,0.117407 0.0625,-0.375 0.07382,-0.604478 0.03099,-0.346012 0.03125,-0.40625 2.58e-4,-0.06024 3.72e-4,-0.132785 0,-0.1875 -7.44e-4,-0.10943 0.0045,-0.388422 0,-0.125 0.0018,-0.102704 -3.77e-4,-0.171814 0,-0.28125 1.89e-4,-0.05472 2.92e-4,-0.101525 0,-0.15625 -2.92e-4,-0.05472 0.03723,0.112746 0,-0.3125 -0.05027,-0.574191 -0.04662,-0.303955 -0.0625,-0.40625 -0.01588,-0.102295 -0.0028,-0.0052 -0.0625,-0.3125 -0.05283,-0.272113 -0.03911,-0.179063 -0.0625,-0.28125 -0.01169,-0.05109 -0.0196,-0.107153 -0.03125,-0.15625 -0.01165,-0.0491 0.02903,0.04994 -0.0625,-0.25 -0.09857,-0.323009 -0.07539,-0.201416 -0.09375,-0.25 -0.01836,-0.04858 -0.04285,-0.10545 -0.0625,-0.15625 -0.03929,-0.1016 0.0138,-0.0273 -0.09375,-0.28125 -0.104469,-0.246675 -0.0784,-0.179757 -0.125,-0.28125 -0.0233,-0.05075 -0.07126,-0.108242 -0.09375,-0.15625 -0.02249,-0.04801 0.07908,0.06261 -0.09375,-0.25 -0.221954,-0.401459 -0.22408,-0.309209 -0.25,-0.34375 l -9.15625,-16.25 c 6.1951845,-4.185244 10.46875,-11.005157 10.46875,-19 0,-12.8330313 -10.5635648,-23.34375 -23.5,-23.34375 z m 0,13.1875 c 5.7065952,0 10.15625,4.4147771 10.15625,10.15625 0,5.741474 -4.4496545,10.15625 -10.15625,10.15625 -5.704563,0 -10.21875,-4.440554 -10.21875,-10.15625 0,-5.715694 4.514187,-10.15625 10.21875,-10.15625 z"
       transform="matrix(0.86545933,0,0,0.86545933,43.030996,10.330417)" />
    <path
       sodipodi:type="arc"
       style="fill:none;stroke:#5f5f5f;stroke-width:8.18944549999999971;stroke-miterlimit:4;stroke-opacity:1;stroke-dasharray:none"
       id="path2826"
       sodipodi:cx="31.272728"
       sodipodi:cy="20.727272"
       sodipodi:rx="15.636364"
       sodipodi:ry="15.636364"
       d="m 46.909092,20.727272 a 15.636364,15.636364 0 1 1 -31.272728,0 15.636364,15.636364 0 1 1 31.272728,0 z"
       transform="matrix(0.93267941,0,0,0.90752074,4.0288017,3.7937747)" />
    <path
       style="fill:#1a1a1a;fill-opacity:1;stroke:#5f5f5f;stroke-width:7.53440570999999970;stroke-linecap:round;stroke-linejoin:miter;stroke-miterlimit:4;stroke-opacity:1;stroke-dasharray:none"
       d="M 29.167646,37.411692 19.443561,56.577151"
       id="path3604" />
    <path
       style="fill:#1a1a1a;fill-opacity:1;stroke:#5f5f5f;stroke-width:7.53440570999999970;stroke-linecap:round;stroke-linejoin:miter;stroke-miterlimit:4;stroke-opacity:1;stroke-dasharray:none"
       d="M 36.941992,37.836973 47.231723,56.151871"
       id="path3604-1" />
    <path
       sodipodi:type="inkscape:offset"
       inkscape:radius="-0.65249825"
       inkscape:original="M 33.09375 18.5625 C 31.399637 18.5625 30 19.919189 30 21.625 C 30 23.330811 31.387939 24.71875 33.09375 24.71875 C 34.799561 24.71875 36.1875 23.330811 36.1875 21.625 C 36.1875 19.919189 34.787863 18.5625 33.09375 18.5625 z "
       style="fill:#5f5f5f;fill-opacity:1;stroke:none"
       id="path4560"
       d="m 33.09375,19.21875 c -1.345755,0 -2.4375,1.05736 -2.4375,2.40625 0,1.351873 1.085627,2.4375 2.4375,2.4375 1.351873,0 2.4375,-1.085627 2.4375,-2.4375 0,-1.34889 -1.091745,-2.40625 -2.4375,-2.40625 z"
       transform="matrix(1.4242496,0,0,1.4242496,-13.871532,-8.4295063)" />
  </g>
</svg>
