<?xml version="1.0" encoding="UTF-8" standalone="no"?>
<!-- Created with Inkscape (http://www.inkscape.org/) -->

<svg
   xmlns:dc="http://purl.org/dc/elements/1.1/"
   xmlns:cc="http://creativecommons.org/ns#"
   xmlns:rdf="http://www.w3.org/1999/02/22-rdf-syntax-ns#"
   xmlns:svg="http://www.w3.org/2000/svg"
   xmlns="http://www.w3.org/2000/svg"
   xmlns:xlink="http://www.w3.org/1999/xlink"
   xmlns:sodipodi="http://sodipodi.sourceforge.net/DTD/sodipodi-0.dtd"
   xmlns:inkscape="http://www.inkscape.org/namespaces/inkscape"
   width="64px"
   height="64px"
   id="svg2816"
   version="1.1"
   inkscape:version="0.47 r22583"
   sodipodi:docname="dontImport.svg"
   inkscape:export-filename="/home/blitz/documents/projects/surveyEditor-svn/icons/dontImport.png"
   inkscape:export-xdpi="22.5"
   inkscape:export-ydpi="22.5">
  <defs
     id="defs2818">
    <linearGradient
       id="linearGradient4188">
      <stop
         style="stop-color:#580909;stop-opacity:1;"
         offset="0"
         id="stop4190" />
      <stop
         style="stop-color:#d00000;stop-opacity:1;"
         offset="1"
         id="stop4192" />
    </linearGradient>
    <inkscape:perspective
       sodipodi:type="inkscape:persp3d"
       inkscape:vp_x="0 : 32 : 1"
       inkscape:vp_y="0 : 1000 : 0"
       inkscape:vp_z="64 : 32 : 1"
       inkscape:persp3d-origin="32 : 21.333333 : 1"
       id="perspective2824" />
    <linearGradient
       inkscape:collect="always"
       xlink:href="#linearGradient4188"
       id="linearGradient4194"
       x1="-3.3636377"
       y1="64.28125"
       x2="61.71875"
       y2="2.28125"
       gradientUnits="userSpaceOnUse" />
  </defs>
  <sodipodi:namedview
     id="base"
     pagecolor="#ffffff"
     bordercolor="#666666"
     borderopacity="1.0"
     inkscape:pageopacity="0.0"
     inkscape:pageshadow="2"
     inkscape:zoom="11"
     inkscape:cx="19.543099"
     inkscape:cy="37.827092"
     inkscape:current-layer="layer1"
     showgrid="true"
     inkscape:document-units="px"
     inkscape:grid-bbox="true"
     inkscape:window-width="1600"
     inkscape:window-height="1172"
     inkscape:window-x="0"
     inkscape:window-y="1"
     inkscape:window-maximized="1" />
  <metadata
     id="metadata2821">
    <rdf:RDF>
      <cc:Work
         rdf:about="">
        <dc:format>image/svg+xml</dc:format>
        <dc:type
           rdf:resource="http://purl.org/dc/dcmitype/StillImage" />
        <dc:title></dc:title>
      </cc:Work>
    </rdf:RDF>
  </metadata>
  <g
     id="layer1"
     inkscape:label="Layer 1"
     inkscape:groupmode="layer">
    <path
       sodipodi:type="inkscape:offset"
       inkscape:radius="0"
       inkscape:original="M 32 0.71875 C 14.728549 0.71875 0.71875 14.728549 0.71875 32 C 0.71875 49.271451 14.728549 63.28125 32 63.28125 C 49.271451 63.28125 63.28125 49.271451 63.28125 32 C 63.28125 14.728549 49.271451 0.71875 32 0.71875 z M 32 13.5 C 42.344746 13.5 50.5 21.639071 50.5 32 C 50.5 35.528412 49.529144 38.783144 47.875 41.5625 L 26.46875 14.3125 C 28.206887 13.783983 30.070894 13.5 32 13.5 z M 16.375 22 L 38 49.53125 C 36.124395 50.156287 34.109836 50.5 32 50.5 C 21.639071 50.5 13.5 42.344746 13.5 32 C 13.5 28.294023 14.555985 24.86968 16.375 22 z "
       style="fill:#1d1d1d;fill-opacity:1;stroke:none"
       id="path3412"
       d="M 32,0.71875 C 14.728549,0.71875 0.71875,14.728549 0.71875,32 0.71875,49.271451 14.728549,63.28125 32,63.28125 49.271451,63.28125 63.28125,49.271451 63.28125,32 63.28125,14.728549 49.271451,0.71875 32,0.71875 z M 32,13.5 c 10.344746,0 18.5,8.139071 18.5,18.5 0,3.528412 -0.970856,6.783144 -2.625,9.5625 L 26.46875,14.3125 C 28.206887,13.783983 30.070894,13.5 32,13.5 z M 16.375,22 38,49.53125 C 36.124395,50.156287 34.109836,50.5 32,50.5 21.639071,50.5 13.5,42.344746 13.5,32 c 0,-3.705977 1.055985,-7.13032 2.875,-10 z" />
    <path
       d="M 32,2.28125 C 15.575232,2.28125 2.28125,15.575232 2.28125,32 2.28125,48.424768 15.575232,61.71875 32,61.71875 48.424768,61.71875 61.71875,48.424768 61.71875,32 61.71875,15.575232 48.424768,2.28125 32,2.28125 z m 0,9.65625 c 11.165991,0 20.0625,8.879978 20.0625,20.0625 0,3.815618 -1.052566,7.365385 -2.84375,10.375 a 1.5658584,1.5658584 0 0 1 -2.5625,0.15625 L 25.25,15.28125 A 1.5658584,1.5658584 0 0 1 26,12.8125 c 1.886873,-0.573743 3.917236,-0.875 6,-0.875 z m -15.78125,8.5 a 1.5658584,1.5658584 0 0 1 1.375,0.59375 l 21.625,27.53125 A 1.5658584,1.5658584 0 0 1 38.5,51.03125 C 36.468706,51.70817 34.279881,52.0625 32,52.0625 20.817478,52.0625 11.9375,43.165991 11.9375,32 c 0,-4.003399 1.151144,-7.729793 3.125,-10.84375 a 1.5658584,1.5658584 0 0 1 1.15625,-0.71875 z"
       id="path3414"
       style="fill:url(#linearGradient4194);fill-opacity:1;stroke:none"
       inkscape:original="M 32 0.71875 C 14.728549 0.71875 0.71875 14.728549 0.71875 32 C 0.71875 49.271451 14.728549 63.28125 32 63.28125 C 49.271451 63.28125 63.28125 49.271451 63.28125 32 C 63.28125 14.728549 49.271451 0.71875 32 0.71875 z M 32 13.5 C 42.344746 13.5 50.5 21.639071 50.5 32 C 50.5 35.528412 49.529144 38.783144 47.875 41.5625 L 26.46875 14.3125 C 28.206887 13.783983 30.070894 13.5 32 13.5 z M 16.375 22 L 38 49.53125 C 36.124395 50.156287 34.109836 50.5 32 50.5 C 21.639071 50.5 13.5 42.344746 13.5 32 C 13.5 28.294023 14.555985 24.86968 16.375 22 z "
       inkscape:radius="-1.5657018"
       sodipodi:type="inkscape:offset" />
  </g>
</svg>
