<?xml version="1.0" encoding="UTF-8" standalone="no"?>
<!-- Created with Inkscape (http://www.inkscape.org/) -->
<svg
   xmlns:dc="http://purl.org/dc/elements/1.1/"
   xmlns:cc="http://creativecommons.org/ns#"
   xmlns:rdf="http://www.w3.org/1999/02/22-rdf-syntax-ns#"
   xmlns:svg="http://www.w3.org/2000/svg"
   xmlns="http://www.w3.org/2000/svg"
   xmlns:xlink="http://www.w3.org/1999/xlink"
   xmlns:sodipodi="http://sodipodi.sourceforge.net/DTD/sodipodi-0.dtd"
   xmlns:inkscape="http://www.inkscape.org/namespaces/inkscape"
   width="512"
   height="512"
   id="svg2383"
   sodipodi:version="0.32"
   inkscape:version="0.46"
   version="1.0"
   sodipodi:docname="logo.svg"
   inkscape:output_extension="org.inkscape.output.svg.inkscape"
   inkscape:export-filename="/home/blitz/documents/projects/cavewhere/images/logo128x128.png"
   inkscape:export-xdpi="22.5"
   inkscape:export-ydpi="22.5">
  <defs
     id="defs2385">
    <linearGradient
       inkscape:collect="always"
       id="linearGradient3799">
      <stop
         style="stop-color:#ffffff;stop-opacity:1;"
         offset="0"
         id="stop3801" />
      <stop
         style="stop-color:#ffffff;stop-opacity:0;"
         offset="1"
         id="stop3803" />
    </linearGradient>
    <linearGradient
       id="linearGradient3317">
      <stop
         style="stop-color:#10902b;stop-opacity:1;"
         offset="0"
         id="stop3319" />
      <stop
         style="stop-color:#00bc28;stop-opacity:0;"
         offset="1"
         id="stop3321" />
    </linearGradient>
    <inkscape:perspective
       sodipodi:type="inkscape:persp3d"
       inkscape:vp_x="0 : 32 : 1"
       inkscape:vp_y="6.1230318e-14 : 1000 : 0"
       inkscape:vp_z="64 : 32 : 1"
       inkscape:persp3d-origin="32 : 21.333333 : 1"
       id="perspective2391" />
    <radialGradient
       inkscape:collect="always"
       xlink:href="#linearGradient3317"
       id="radialGradient3683"
       cx="297.17712"
       cy="580.00482"
       fx="297.17712"
       fy="580.00482"
       r="282.50452"
       gradientTransform="matrix(1.7594233,4.395521e-2,-9.312371e-3,0.3727523,-218.86362,-108.10098)"
       gradientUnits="userSpaceOnUse" />
    <linearGradient
       inkscape:collect="always"
       xlink:href="#linearGradient3799"
       id="linearGradient3837"
       gradientUnits="userSpaceOnUse"
       x1="115.0812"
       y1="250.96412"
       x2="228.02467"
       y2="250.96412" />
  </defs>
  <sodipodi:namedview
     id="base"
     pagecolor="#ffffff"
     bordercolor="#666666"
     borderopacity="1.0"
     inkscape:pageopacity="0.0"
     inkscape:pageshadow="2"
     inkscape:zoom="0.99702056"
     inkscape:cx="197.11139"
     inkscape:cy="317.48414"
     inkscape:current-layer="layer1"
     showgrid="true"
     inkscape:document-units="px"
     inkscape:grid-bbox="true"
     showguides="true"
     inkscape:guide-bbox="true"
     inkscape:window-width="1598"
     inkscape:window-height="1172"
     inkscape:window-x="19"
     inkscape:window-y="38" />
  <metadata
     id="metadata2388">
    <rdf:RDF>
      <cc:Work
         rdf:about="">
        <dc:format>image/svg+xml</dc:format>
        <dc:type
           rdf:resource="http://purl.org/dc/dcmitype/StillImage" />
      </cc:Work>
    </rdf:RDF>
  </metadata>
  <g
     id="layer1"
     inkscape:label="Layer 1"
     inkscape:groupmode="layer">
    <path
       style="opacity:1;fill:#939374;fill-opacity:1;fill-rule:evenodd;stroke:none;stroke-width:2;stroke-linecap:round;stroke-miterlimit:4;stroke-dasharray:none;stroke-dashoffset:0;stroke-opacity:1"
       d="M 294.47948,498.50333 L 294.47948,487.19802 L 297.00806,486.39877 C 301.85488,484.86675 564.23391,414.72155 565.11767,414.72155 C 565.74507,414.72155 566.00827,418.01951 566.00827,425.87966 L 566.00827,437.0378 L 563.0907,437.89337 C 560.06964,438.77923 300.41275,508.3389 296.61904,509.27862 L 294.47948,509.8086 L 294.47948,498.50333 z"
       id="path3693" />
    <path
       style="opacity:1;fill:#939374;fill-opacity:1;fill-rule:evenodd;stroke:none;stroke-width:4;stroke-linecap:round;stroke-miterlimit:4;stroke-dasharray:none;stroke-dashoffset:0;stroke-opacity:1"
       d="M 160.26148,471.06352 C 83.755093,450.52284 14.26689,431.8628 5.8432594,429.59676 L -9.4724339,425.47669 L -9.4724339,300.70934 L -9.4724339,175.94198 L 145.84672,331.25988 L 301.16586,486.57775 L 301.16586,497.56968 C 301.16586,505.92303 300.94957,508.54339 300.26494,508.48589 C 299.76944,508.44427 236.76788,491.60421 160.26148,471.06352 L 160.26148,471.06352 z"
       id="path3691" />
    <path
       style="opacity:1;fill:#748993;fill-opacity:1;fill-rule:evenodd;stroke:none;stroke-width:2;stroke-linecap:round;stroke-miterlimit:4;stroke-dasharray:none;stroke-dashoffset:0;stroke-opacity:1"
       d="M 144.36504,329.88096 L -9.7117209,175.12593 L -9.7117209,109.06296 L -9.7117209,42.999978 L 3.752989,46.659944 C 11.158586,48.672927 17.71223,50.734275 18.316654,51.240728 C 18.921084,51.747179 19.813987,54.329392 20.30092,56.978992 C 20.787838,59.628593 21.508695,62.441992 21.902789,63.231003 C 23.222515,65.873201 29.038083,72.300301 31.725396,74.086493 C 33.851191,75.499469 35.264177,77.628723 38.77135,84.704132 C 41.963999,91.145047 44.025622,94.357377 46.344335,96.504083 C 48.096661,98.126449 49.939284,99.491789 50.439035,99.538221 C 50.938787,99.584673 55.043371,99.688551 59.560337,99.769105 C 67.243708,99.906137 68.086371,100.06811 72.635232,102.2824 C 78.102453,104.94376 82.220556,105.07121 86.745971,102.71917 C 89.390214,101.34485 99.090223,97.19624 108.83634,93.271318 C 118.89691,89.219766 122.2798,87.405521 125.72987,84.211387 C 128.85938,81.314002 129.23873,81.163551 133.39082,81.172633 C 142.36349,81.192264 135.57938,75.025947 220.78071,160.60434 L 298.80296,238.97191 L 298.62242,361.804 L 298.44182,484.63606 L 144.36504,329.88096 z"
       id="path3677" />
    <path
       style="opacity:1;fill:#748993;fill-opacity:1;fill-rule:evenodd;stroke:none;stroke-width:2;stroke-linecap:round;stroke-miterlimit:4;stroke-dasharray:none;stroke-dashoffset:0;stroke-opacity:1"
       d="M 298.79892,360.92796 L 298.79892,237.76472 L 302.58615,236.69283 C 304.66913,236.10327 360.42262,221.26545 426.48281,203.71987 C 492.54299,186.17427 547.64724,171.53664 548.93671,171.19176 L 551.28119,170.56471 L 551.28119,293.81765 L 551.28119,417.07057 L 426.66316,450.17528 C 358.12324,468.38287 301.31472,483.46243 300.42202,483.68544 L 298.79892,484.09103 L 298.79892,360.92796 z"
       id="path3685" />
    <path
       style="opacity:1;fill:#9d3e00;fill-opacity:1;fill-rule:evenodd;stroke:none;stroke-width:2;stroke-linecap:round;stroke-miterlimit:4;stroke-dasharray:none;stroke-dashoffset:0;stroke-opacity:1"
       d="M 221.48133,160.16804 C 179.15941,117.84461 144.79044,83.216347 145.10588,83.216347 C 145.85232,83.216347 298.32017,124.46541 298.59697,124.74226 C 298.71295,124.85818 298.72282,150.19055 298.61906,181.03641 L 298.43034,237.11975 L 221.48133,160.16804 z"
       id="path3667" />
    <path
       style="opacity:1;fill:#9d3e00;fill-opacity:1;fill-rule:evenodd;stroke:none;stroke-width:2;stroke-linecap:round;stroke-miterlimit:4;stroke-dasharray:none;stroke-dashoffset:0;stroke-opacity:1"
       d="M 299.50814,180.36083 L 299.50814,124.01308 L 301.18529,123.59216 C 302.10772,123.36065 358.77782,108.18795 427.11881,89.875056 C 495.45978,71.562154 551.6758,56.578895 552.04323,56.578895 C 552.44761,56.578895 552.63823,78.763521 552.52602,112.77942 L 552.34076,168.97993 L 426.1053,202.82555 C 356.67581,221.44067 299.78846,236.67962 299.68898,236.68989 C 299.58952,236.70017 299.50814,211.35209 299.50814,180.36083 L 299.50814,180.36083 z"
       id="path3675" />
    <path
       style="fill:none;fill-rule:evenodd;stroke:#000000;stroke-width:5;stroke-linecap:butt;stroke-linejoin:miter;stroke-opacity:1;stroke-miterlimit:4;stroke-dasharray:none"
       d="M -25.408352,423.21006 L 298.81962,510.08668 L 558.44815,440.51943"
       id="path2467" />
    <path
       style="fill:none;fill-rule:evenodd;stroke:#000000;stroke-width:4;stroke-linecap:butt;stroke-linejoin:miter;stroke-opacity:1;stroke-miterlimit:4;stroke-dasharray:none"
       d="M 298.80078,123.83539 L 298.80078,509.51151"
       id="path2471" />
    <path
       style="opacity:1;fill:none;fill-opacity:1;fill-rule:evenodd;stroke:#000000;stroke-width:5;stroke-linecap:round;stroke-miterlimit:4;stroke-dasharray:none;stroke-dashoffset:0;stroke-opacity:1"
       d="M 137.23731,79.609089 C 133.13968,77.511177 126.46455,79.973399 126.24113,80.085106 C 123.57483,81.418258 121.92294,84.726472 118.43972,86.468085 C 114.60882,88.383532 112.36686,89.759349 108.51064,90.723404 C 105.20145,91.550702 102.63719,92.950911 100,94.269504 C 97.666208,95.436399 94.327862,97.105978 91.489362,97.815603 C 87.980539,98.692809 85.563547,101.24741 82.269504,102.07092 C 78.136431,103.10419 75.552665,101.90399 73.049645,100.65248 C 70.034767,99.145043 69.23213,97.815603 64.539007,97.815603 C 61.30318,97.815603 58.092361,96.944995 54.609929,97.815603 C 49.926882,98.986365 48.13471,95.595703 46.099291,93.560284 C 44.018529,91.479522 42.482993,88.314949 41.843972,85.758865 C 41.037905,82.534597 38.246792,80.590006 37.588652,77.957447 C 36.631268,74.127908 33.888955,73.586929 31.205674,71.574468 C 28.984351,69.908476 27.566314,67.225888 25.531915,65.191489 C 22.949179,62.608753 23.59627,59.576568 22.695035,55.971631 C 21.686202,51.936298 21.48263,51.213127 19.148936,48.879433 C 18.775144,48.505641 18.20331,48.406619 17.730496,48.170213"
       id="path3245"
       sodipodi:nodetypes="cssssssssssssssssc" />
    <path
       style="fill:none;fill-rule:evenodd;stroke:#000000;stroke-width:3;stroke-linecap:butt;stroke-linejoin:miter;stroke-opacity:1;stroke-miterlimit:4;stroke-dasharray:none"
       d="M 141.77491,81.018418 L 298.57584,237.81935"
       id="path3247" />
    <path
       style="fill:none;fill-rule:evenodd;stroke:#000000;stroke-width:3;stroke-linecap:butt;stroke-linejoin:miter;stroke-opacity:1;stroke-miterlimit:4;stroke-dasharray:none"
       d="M 298.75261,237.68676 L 550.94409,170.11226"
       id="path3251" />
    <path
       style="fill:none;fill-rule:evenodd;stroke:#000000;stroke-width:1px;stroke-linecap:butt;stroke-linejoin:miter;stroke-opacity:1"
       d="M 192.9078,93.560283 L 603.84065,-16.548841"
       id="path3259" />
    <path
       style="fill:none;fill-rule:evenodd;stroke:#000000;stroke-width:1px;stroke-linecap:butt;stroke-linejoin:miter;stroke-opacity:1"
       d="M 180.14184,51.184397 L 596.4634,-60.368627"
       id="path3261" />
    <path
       style="fill:none;fill-rule:evenodd;stroke:#000000;stroke-width:1px;stroke-linecap:butt;stroke-linejoin:miter;stroke-opacity:1"
       d="M 103.19149,25.652481 L 526.9819,-87.901817"
       id="path3263" />
    <path
       style="fill:none;fill-rule:evenodd;stroke:#000000;stroke-width:1px;stroke-linecap:butt;stroke-linejoin:miter;stroke-opacity:1"
       d="M 399.29078,94.978722 L -21.026501,-17.644953"
       id="path3265" />
    <path
       style="fill:none;fill-rule:evenodd;stroke:#000000;stroke-width:1px;stroke-linecap:butt;stroke-linejoin:miter;stroke-opacity:1"
       d="M 491.48936,70.865249 L 72.330927,-41.447915"
       id="path3267" />
    <path
       style="fill:none;fill-rule:evenodd;stroke:#000000;stroke-width:1px;stroke-linecap:butt;stroke-linejoin:miter;stroke-opacity:1"
       d="M 582.97872,44.624114 L 178.40339,-63.781519"
       id="path3269" />
    <path
       sodipodi:type="arc"
       id="path3275"
       style="fill:#000000;stroke:none"
       sodipodi:cx="104.96454"
       sodipodi:cy="91.964539"
       sodipodi:rx="1.5"
       sodipodi:ry="1.5"
       d="M 106.46454,91.964539 A 1.5,1.5 0 1 1 103.46454,91.964539 A 1.5,1.5 0 1 1 106.46454,91.964539 z" />
    <path
       style="fill:none;fill-rule:evenodd;stroke:#000000;stroke-width:4;stroke-linecap:butt;stroke-linejoin:miter;stroke-miterlimit:4;stroke-dasharray:none;stroke-opacity:1"
       d="M -24.861538,161.67747 L 298.75876,485.29777"
       id="path3249" />
    <path
       style="fill:none;fill-rule:evenodd;stroke:#000000;stroke-width:4;stroke-linecap:butt;stroke-linejoin:miter;stroke-miterlimit:4;stroke-dasharray:none;stroke-opacity:1"
       d="M 298.72839,484.8307 L 566.65865,413.03902"
       id="path3283" />
    <path
       style="fill:none;fill-rule:evenodd;stroke:#000000;stroke-width:0.97473657px;stroke-linecap:butt;stroke-linejoin:miter;stroke-opacity:1"
       d="M 44.192823,91.541792 C 44.698198,91.584342 46.03814,91.202914 46.762105,91.018653 C 47.704699,90.778748 48.356502,90.381434 49.160103,89.972376 C 49.94192,89.574406 50.928162,89.508325 51.729385,89.100477 C 52.559109,88.678122 53.278548,88.619001 54.127383,88.402959 C 54.973092,88.187713 55.754591,88.0542 56.696665,88.0542 C 57.447791,88.0542 58.621241,87.597668 59.094663,87.356681 C 59.720976,87.037869 60.688539,87.038205 61.49266,86.833542 C 62.490235,86.579645 63.191713,86.23024 64.061944,85.787266 C 64.970609,85.324725 65.833308,85.001477 66.631226,84.392229 C 67.495939,83.73198 68.362109,83.462971 69.200509,82.822812 C 69.979939,82.22768 70.548189,81.875231 71.427221,81.427776 C 72.234541,81.016824 72.66457,80.633307 73.653933,80.381499 C 74.494701,80.167509 75.405613,80.240832 76.223215,80.032739 C 77.211407,79.781229 77.618848,79.372365 78.449928,79.160841 C 79.34335,78.933451 80.135497,78.513863 81.01921,78.288943 C 81.90587,78.063274 82.729028,77.984553 83.588493,77.765804 C 84.614968,77.50455 85.107393,77.341395 85.98649,76.893907 C 86.911565,76.423012 87.827024,75.957018 88.727054,75.49887 C 89.578521,75.065447 90.280743,74.617722 90.953771,74.103833 C 91.625186,73.591178 92.756933,73.426926 93.52305,73.231935 C 94.365137,73.017613 95.033614,72.585905 95.921048,72.360037 C 96.856967,72.121831 97.640366,72.09518 98.490336,71.66252 C 99.196548,71.303035 100.28799,71.161393 101.05961,70.965001 C 101.99877,70.72597 102.73963,70.458579 103.45761,70.093103 C 104.3406,69.643635 105.34836,68.911003 105.85561,68.523687 C 106.7162,67.866592 107.42336,67.413822 108.25361,66.779892 C 108.94644,66.250881 109.20114,65.640862 109.79518,65.036095 C 110.50676,64.311665 111.5236,63.629174 112.19317,63.11792 C 112.75127,62.691791 113.80557,62.366327 114.41989,61.897263 C 114.87935,61.54644 116.27426,61.338107 116.81788,61.199745 C 117.76333,60.959115 118.65714,60.873834 119.38716,60.502226 C 120.27936,60.048073 120.87195,59.572044 121.78516,59.107189 C 122.65678,58.66351 123.1583,58.058736 123.84059,57.537773 C 124.54151,57.002589 125.26593,55.507502 125.55344,54.92208 C 125.95743,54.099513 126.41463,53.342974 126.75245,52.655145 C 127.19805,51.747834 127.49541,51.142367 127.95144,50.213831 C 128.36513,49.37151 128.88195,48.369483 129.32173,47.772516 C 129.87641,47.019573 130.30125,46.224938 130.52073,45.331203 C 130.73741,44.44881 131.30935,43.725445 131.71972,42.889888 C 132.00757,42.303805 131.9298,40.988134 132.06229,40.448574 C 132.26281,39.632023 132.71064,38.854646 132.91873,38.00726 C 133.05537,37.450819 133.46741,36.470415 133.60387,35.914705 C 133.80163,35.109372 133.94644,34.134497 133.94644,33.299011 C 133.94644,32.476382 134.28901,31.851708 134.28901,30.857698 C 134.28901,30.24182 134.07331,30.153731 133.94644,29.63704"
       id="path3281" />
    <path
       style="fill:none;fill-rule:evenodd;stroke:#000000;stroke-width:1.0300982px;stroke-linecap:butt;stroke-linejoin:miter;stroke-opacity:1"
       d="M 39.382341,29.577656 C 39.945841,30.318075 40.986927,31.885832 41.967297,33.190955 C 42.851016,34.367411 43.557744,34.818335 44.293758,36.288069 C 44.953984,37.606465 45.618759,38.912294 46.361723,39.901368 C 47.124121,40.916315 48.311088,41.492452 48.688183,42.998483 C 48.811536,43.491125 51.649304,44.863875 52.048626,45.063224 C 53.189449,45.632747 54.287839,46.223832 55.150573,46.869875 C 56.411419,47.814036 56.598636,49.039805 56.960042,50.483174 C 57.264618,51.699581 57.872547,52.821527 58.25252,53.580287 C 58.586372,54.246951 60.336723,54.620765 60.837476,54.870751 C 62.228889,55.565374 63.085897,55.825205 63.939423,56.677401 C 65.785709,58.52081 65.82114,59.258329 68.333848,59.258329 C 69.683824,59.258329 70.770274,59.73744 71.952786,60.032607 C 73.054024,60.307488 73.676106,61.043475 74.796238,61.323072 C 75.955736,61.612494 77.099488,62.343856 78.15668,62.871628 C 79.222,63.403458 80.871239,63.355641 82.034115,63.645906 C 83.568239,64.02884 84.86751,64.571025 86.42854,65.194464 C 87.740365,65.718376 88.995947,66.157932 90.305973,66.484927 C 91.599058,66.807695 92.90568,67.198365 94.183408,67.517299 C 95.119667,67.750999 96.309777,70.003916 96.768363,70.614413 C 97.602454,71.724801 98.566109,72.673302 99.611814,73.195341 C 101.16582,73.971136 102.15256,74.463734 103.74775,75.260083 C 105.09203,75.931177 106.06093,76.224618 107.36669,76.550548 C 108.68675,76.880049 109.63803,77.246545 110.98563,77.582918 C 112.15846,77.875671 112.87192,78.357197 114.34607,78.357197 C 115.63854,78.357197 116.93102,78.357197 118.22349,78.357197 C 119.58503,78.357197 120.82748,77.900785 122.10093,77.582918 C 123.11967,77.32863 124.62761,76.450593 125.46137,76.034361 C 126.53754,75.497115 128.05317,75.00199 129.33881,75.00199 C 130.6523,75.00199 132.04199,74.262725 133.21624,73.969619 C 134.43122,73.666349 135.87781,73.756927 137.09368,73.453434 C 138.22088,73.17207 139.80233,73.453434 140.97111,73.453434 C 142.15704,73.453434 143.5653,73.711527 144.84854,73.711527"
       id="path3303" />
    <path
       style="fill:url(#radialGradient3683);fill-opacity:1;fill-rule:evenodd;stroke:none;stroke-width:2.83687948999999984;stroke-linecap:round;stroke-miterlimit:4;stroke-dasharray:none;stroke-dashoffset:0;stroke-opacity:1"
       d="M 234.29582,103.64366 C 199.90173,94.062292 165.31669,84.42316 157.44019,82.22333 C 149.56368,80.02349 139.98026,78.315929 140.74076,78.122267 C 157.16314,73.940297 163.06798,72.970016 172.21023,63.71214 C 181.5024,54.302437 182.30791,52.083191 177.91917,43.949401 L 173.51524,40.153852 L 158.51317,36.143415 C 149.43451,34.075575 140.62026,32.138777 134.56789,29.518638 C 130.70741,27.847389 122.34267,27.80405 114.04065,27.06492 C 105.73863,26.32579 94.021531,23.724278 87.696181,23.122588 C 81.370831,22.520878 74.109395,23.97454 70.946725,24.51409 C 67.784045,25.05363 57.182718,27.003628 47.694698,28.540908 C 27.168638,31.866638 25.443765,32.496693 22.418994,39.892433 C 21.268394,42.705753 18.322769,48.016488 17.405499,48.016488 C 16.488219,48.016488 4.2916497,42.0486 -2.3427903,40.27093 L -14.40541,37.03886 L -14.40541,-1.5854596 L -14.40541,-40.20975 L 268.09912,-40.20975 L 550.60365,-40.20975 L 550.22407,6.2311306 L 549.84448,52.67204 L 424.77508,86.96335 C 355.98692,105.82366 299.05877,121.2119 298.2681,121.1595 C 297.47744,121.1071 268.68991,113.22494 234.29582,103.64361 L 234.29582,103.64366 z"
       id="path3315"
       sodipodi:nodetypes="cssscccssssssscccccccccscc" />
    <path
       style="fill:none;fill-rule:evenodd;stroke:#000000;stroke-width:5;stroke-linecap:round;stroke-linejoin:miter;stroke-miterlimit:4;stroke-dasharray:none;stroke-opacity:1"
       d="M 134.04255,78.31205 C 134.51537,78.07565 134.94815,77.73104 135.46099,77.60283 C 139.02167,76.71266 141.58243,75.54056 144.68085,74.76596 C 147.37603,74.09216 150.28915,73.54119 153.90071,72.6383 C 155.39117,72.26568 161.01628,68.74343 162.41135,69.0922 C 165.9142,69.96791 167.96037,67.08927 170.92199,64.12766 C 172.92494,62.1247 175.26992,60.45807 177.30496,57.74468 C 178.36821,56.32702 181.99198,52.93431 180.14184,49.23404 C 179.15541,47.26117 176.31995,41.18637 174.46809,40.7234 C 170.95412,39.84491 167.41817,38.78362 163.82979,37.88652 C 160.71638,37.10817 157.89465,37.12503 154.60993,36.46808 C 150.7111,35.68832 147.76192,34.57878 143.97163,33.6312 C 140.86848,32.85542 138.58286,31.57479 135.46099,30.79432 C 132.21951,29.98395 128.43826,27.95744 124.8227,27.95744 C 121.2766,27.95744 117.7305,27.95744 114.1844,27.95744 C 110.36393,27.95744 107.37048,28.02702 104.25532,27.24822 C 101.1336,26.46779 98.17618,25.12057 94.32624,25.12057 C 90.45012,25.12057 87.47229,24.41135 83.68794,24.41135 C 80.48123,24.41135 76.14231,23.63818 73.04965,24.41135 C 70.11143,25.1459 66.6834,26.53566 63.12057,27.24822 C 60.01199,27.86994 55.70046,28.66666 52.48227,28.66666 C 48.65302,28.66666 45.36543,30.0851 41.84397,30.0851 C 38.24909,30.0851 34.8956,30.72241 31.91489,32.21276 C 29.89138,33.22452 23.86004,36.26573 22.69504,38.59574 C 21.00439,41.97703 19.22416,46.59705 19.14894,49.23404 L -13.9965,40.35275 L -14.04184,-39.58275 L 549.63761,-39.58275 L 549.63761,55.70114 L 298.85375,122.89848 L 134.04255,78.31205 z"
       id="path3271" />
    <path
       style="fill:none;fill-rule:evenodd;stroke:#000000;stroke-width:1.07613099px;stroke-linecap:butt;stroke-linejoin:miter;stroke-opacity:1"
       d="M 549.64539,56.009697 L 549.64539,183.46635 L 549.64539,455.93357"
       id="path3669" />
    <path
       style="fill:none;fill-rule:evenodd;stroke:#000000;stroke-width:1px;stroke-linecap:butt;stroke-linejoin:miter;stroke-opacity:1"
       d="M -10.638298,41.078014 L -10.638298,470.15603"
       id="path3673" />
    <path
       style="fill:none;fill-rule:evenodd;stroke:#000000;stroke-width:4.96357059;stroke-linecap:butt;stroke-linejoin:miter;stroke-miterlimit:4;stroke-dasharray:none;stroke-opacity:1"
       d="M 2.5265958,43.187459 L 2.5265958,431.12044"
       id="path3697" />
    <path
       style="fill:none;fill-rule:evenodd;stroke:#000000;stroke-width:5;stroke-linecap:butt;stroke-linejoin:miter;stroke-miterlimit:5;stroke-dasharray:none;stroke-opacity:1"
       d="M 510.10639,65.191489 L 510.10639,452.42553"
       id="path3699" />
    <g
       id="g3828"
       transform="translate(-4.0119533,-8.0239066)">
      <g
         id="g3819">
        <path
           style="fill:url(#linearGradient3837);fill-opacity:1;fill-rule:evenodd;stroke:#030303;stroke-width:4;stroke-linecap:butt;stroke-linejoin:miter;stroke-miterlimit:4;stroke-dasharray:none;stroke-opacity:1"
           d="M 155.52374,138.19938 C 156.55911,140.0662 159.25366,144.76619 161.90671,147.41924 C 165.54154,151.05406 165.94315,152.01254 170.41735,153.80222 C 174.07439,155.26503 176.99394,157.49353 179.63721,159.47598 C 181.97325,161.22801 185.00977,164.13932 187.43863,166.56818 C 189.69853,168.82808 190.8311,172.6439 192.40317,175.78803 C 194.06091,179.10351 197.24891,182.24902 198.78615,184.29867 C 200.67831,186.82155 202.82333,188.82693 204.45991,192.10009 C 206.05419,195.28865 207.29678,197.88132 207.29678,201.31995 C 207.29678,205.5913 206.09961,208.23631 205.16913,211.95825 C 204.34971,215.23591 204.46172,219.76692 205.16913,222.59654 C 206.33174,227.24701 206.58757,234.54404 206.58757,239.61782 C 206.58757,243.44182 207.86039,246.83678 208.71522,250.25612 C 209.67961,254.11367 210.75891,257.18037 212.26132,260.1852 C 214.12467,263.9119 214.70015,266.48129 216.51664,270.11428 C 217.71391,272.50882 216.58558,278.19145 217.22586,280.75257 C 218.19272,284.62 217.685,287.55367 218.6443,291.39087 C 219.54812,295.00615 220.60422,298.52131 221.48118,302.02917 C 222.41862,305.77892 223.40167,309.00188 224.31806,312.66747 C 225.18253,316.12532 225.02728,319.63248 225.02728,323.30576 C 225.02728,326.65776 224.31806,330.23812 224.31806,333.94406 C 224.31806,336.68101 225.16495,341.01539 225.7365,343.87314 C 226.38488,347.11504 225.7365,351.19303 225.7365,354.51144 C 225.7365,359.85164 226.8742,359.75672 222.89962,363.7313 C 219.71775,366.91317 217.97764,368.35186 213.67976,367.2774 C 213.19251,367.15558 208.31288,363.60684 206.58757,362.31286 C 204.38355,360.65985 202.64709,356.55957 201.62303,354.51144 C 200.19377,351.65293 198.02851,348.77313 195.94927,346.0008 C 194.38151,343.91046 191.61991,340.99924 188.85707,339.61782 C 185.69506,338.03682 183.25927,334.72924 181.76487,333.23484 C 178.54617,330.01614 177.54371,327.4094 173.96345,324.7242 C 171.2497,322.68889 168.67561,320.8548 166.87125,319.05045 C 164.42462,316.60381 162.45902,314.63821 159.77905,311.95825 C 157.36246,309.54165 155.67484,306.58671 154.1053,303.44761 C 152.66668,300.57038 153.02657,297.03484 151.97764,294.93697 C 150.19873,291.37915 151.14995,291.86316 149.14076,287.84477 C 147.96775,285.49877 145.65783,282.9434 144.17622,281.46179 C 140.78841,278.07398 138.36835,277.64749 136.3748,273.66037 C 134.74007,270.39091 131.56712,266.72504 129.2826,264.44052 C 127.13255,262.29047 126.44572,258.14245 126.44572,255.22066 C 126.44572,251.36549 127.15494,248.43505 127.15494,244.58236 C 127.15494,240.43973 126.44572,237.23231 126.44572,233.23484 C 126.44572,229.05567 123.60884,227.3807 123.60884,223.30576 C 123.60884,219.99618 121.42874,215.39946 120.06274,212.66747 C 118.66759,209.87716 117.85264,205.24549 117.22586,202.73839 C 116.50767,199.86563 118.66142,194.86851 119.35352,192.10009 C 120.42272,187.82331 120.26535,185.3119 122.1904,181.46179 C 123.91697,178.00865 123.42254,174.40557 124.31806,170.82349 C 125.15838,167.46222 124.23176,163.36727 125.02728,160.1852 C 125.96927,156.41725 126.52004,152.9939 128.57338,150.25612 C 130.61834,147.52951 134.26226,147.389 136.3748,143.16392 C 138.6005,138.71252 137.49371,136.93071 142.04856,134.65328 C 144.66172,133.3467 149.73021,136.01184 151.26842,136.78094 C 152.60573,137.4496 154.1053,137.72657 155.52374,138.19938 z"
           id="path3705" />
        <path
           style="fill:none;fill-rule:evenodd;stroke:#000000;stroke-width:1px;stroke-linecap:butt;stroke-linejoin:miter;stroke-opacity:1"
           d="M 157.97066,144.90627 L 157.97066,161.70632"
           id="path3807" />
        <path
           style="fill:none;fill-rule:evenodd;stroke:#000000;stroke-width:1px;stroke-linecap:butt;stroke-linejoin:miter;stroke-opacity:1"
           d="M 166.99756,153.68241 L 166.99756,185.52729"
           id="path3809" />
        <path
           style="fill:none;fill-rule:evenodd;stroke:#000000;stroke-width:1px;stroke-linecap:butt;stroke-linejoin:miter;stroke-opacity:1"
           d="M 174.77072,156.69138 L 174.77072,174.74517"
           id="path3811" />
        <path
           style="fill:#91723a;fill-opacity:1;fill-rule:evenodd;stroke:#000000;stroke-width:1px;stroke-linecap:butt;stroke-linejoin:miter;stroke-opacity:1"
           d="M 143.17658,245.45585 C 143.17658,244.07737 146.85421,243.7842 148.19153,243.44987 C 149.53266,243.11459 150.39284,242.77417 151.70199,242.44688 C 152.88441,242.15128 154.15492,242.19614 155.46319,242.19614 C 156.69534,242.19614 158.14884,242.44688 159.47515,242.44688 C 160.68429,242.44688 162.10968,241.97631 163.23635,241.69464 C 164.37065,241.41107 165.7958,241.19315 166.99756,241.19315 C 168.22056,241.19315 169.55567,240.49093 170.75877,240.19016 C 171.98076,239.88466 173.2618,240.19127 174.26922,239.93941 C 175.49196,239.63373 176.85388,239.9828 178.03043,239.68866 C 179.31677,239.36708 180.62712,240.48552 181.54089,240.9424 C 182.62086,241.48239 183.49995,241.93366 184.54986,242.19614 C 185.60251,242.4593 186.38076,243.61308 187.05733,243.95137 C 188.21129,244.52835 189.31967,244.89307 190.56779,245.2051 C 191.49802,245.43766 193.00399,246.63831 193.57675,247.21108 C 194.41667,248.051 195.4633,248.53047 196.33497,248.96631 C 197.64038,249.61901 198.84687,250.09689 200.09617,250.72154 C 201.37175,251.35933 202.52369,251.68455 203.60663,252.22602 C 204.44151,252.64346 205.94019,252.97826 207.11709,252.97826 C 208.05371,253.68073 208.26113,253.87155 208.87232,254.48274 C 209.44031,255.05073 210.57101,256.12488 211.12905,257.24096 C 211.58673,258.15632 212.32121,259.50215 212.63353,260.75142 C 212.89685,261.80469 213.88726,263.1324 213.88726,264.01113 C 213.88726,265.00573 214.18985,266.12079 214.63951,267.0201 C 215.23378,268.20864 215.37515,269.21045 215.64249,270.27981 C 215.90862,271.34432 216.30992,272.19728 216.64548,273.53952 C 216.90564,274.58014 217.19226,276.20718 216.64548,277.30073 C 215.88715,278.8174 215.3179,278.05297 213.63652,278.05297 C 212.1519,278.05297 211.36826,277.61128 210.12606,277.30073 C 208.82205,276.97473 207.95384,276.6323 206.6156,276.29774 C 205.24127,275.95416 203.78177,275.65197 202.3529,275.29475 C 200.87538,274.92537 199.63582,274.43771 198.34094,273.79027 C 197.02678,273.13319 195.70776,272.72443 194.32899,272.03504 C 192.99812,271.3696 191.21543,270.94006 189.5648,270.27981 C 187.66859,269.52133 186.23257,268.86444 184.54986,268.02309 C 182.69269,267.0945 180.85798,266.10886 179.03342,265.01412 C 176.79203,263.66929 174.84774,262.41979 172.51399,261.25291 C 172.17967,261.08575 171.84534,260.91858 171.51101,260.75142 C 169.94424,259.96803 167.96312,258.42265 166.24532,257.9932 C 164.59196,257.57986 163.75298,256.5419 162.23336,256.23797 C 160.57299,255.9059 158.94677,255.16558 157.21842,254.73349 C 155.59309,254.32716 154.46667,253.35762 153.20647,252.72751 C 151.93081,252.08968 150.08941,251.04361 148.44227,250.22004 C 147.0962,249.54701 144.24472,248.12617 143.67808,246.70958 C 143.51091,246.29167 143.34375,245.87376 143.17658,245.45585 z"
           id="path3817"
           sodipodi:nodetypes="csssssssssssssssssc" />
      </g>
      <path
         id="path3813"
         d="M 135.90492,268.02309 C 136.01975,267.08284 137.28071,265.27815 137.66015,263.76039 C 138.00757,262.37071 138.32762,261.09051 138.66314,259.74843 C 138.96235,258.5516 138.62971,257.12393 138.91389,255.98723 C 139.27466,254.54412 139.26763,253.5245 139.91687,252.22602 C 140.40475,251.25026 140.41837,249.81526 140.41837,248.71556 C 140.41837,247.22863 141.26974,246.24599 142.42434,245.95734 C 143.74994,245.62594 143.89676,244.95435 145.68406,244.95435 C 147.27692,244.95435 147.92806,245.57486 149.19452,246.20809 C 150.38592,246.80379 150.62622,247.38094 151.95273,247.71257 C 153.40365,248.0753 154.10204,249.13649 155.21245,249.9693 C 156.14318,250.66735 157.2336,251.10524 158.47216,251.72453 C 159.88729,252.43209 160.48953,252.97826 162.23336,252.97826 C 163.4871,252.97826 164.74084,252.97826 165.99457,252.97826 C 167.13115,252.97826 168.66166,253.45697 169.75578,253.7305 C 171.14466,254.07772 172.45949,254.65718 173.76773,254.98424 C 175.3622,255.38286 176.28456,255.61345 177.77968,255.98723 C 178.92203,256.27281 180.56891,257.51497 181.54089,258.24395 C 182.55276,259.00285 184.18961,259.44293 185.3021,259.99918 C 186.81674,260.7565 187.73444,262.09297 189.0633,262.7574 C 190.22445,263.33797 190.93209,264.44403 192.07227,265.01412 C 193.41546,265.68572 194.20689,266.83367 195.58273,267.52159 C 196.83058,268.14552 198.55021,268.20077 199.84543,268.52458 C 201.25365,268.87664 202.72479,269.57603 203.85738,270.02906 C 205.02043,270.49428 206.40486,270.72862 207.61859,271.03205 C 208.79017,271.32495 209.54655,271.99603 210.62755,272.53653 C 211.9036,273.17456 212.47404,273.63078 213.13502,274.29176 C 214.06304,275.21978 214.65245,276.32364 215.141,277.30073 C 215.54997,278.11866 215.64249,278.62864 215.64249,279.55745 C 215.22985,280.38273 215.141,282.04164 215.141,283.06791 C 215.141,284.29421 214.88506,285.60135 214.63951,286.82912 C 214.26269,288.71318 213.44666,289.2757 212.13203,290.59032 C 211.08418,291.63818 211.1388,292.58655 209.87531,293.85004 C 208.7702,294.95515 208.2209,295.20394 206.6156,295.60527 C 205.52182,295.87871 203.96181,297.10975 203.10514,297.10975 C 201.90356,297.10975 200.41966,297.62943 199.34393,297.36049 C 198.16088,297.06473 196.73537,297.0592 195.83347,296.60825 C 194.70285,296.04294 192.80358,295.58957 191.82152,294.85302 C 190.91079,294.16998 189.82029,293.72703 188.56181,293.09779 C 187.49576,292.56477 186.19565,292.19964 185.55284,291.34256 C 184.71445,290.22471 184.10155,289.62722 183.04537,288.83509 C 181.94667,288.01107 180.32902,287.15302 179.03342,286.82912 C 177.45716,286.43505 176.06361,285.84571 174.51997,285.07389 C 173.35984,284.49382 172.29066,283.83386 171.26026,283.31866 C 170.2159,282.79648 169.29785,282.07581 168.25129,281.81418 C 167.04239,281.51195 165.77623,281.38347 164.49009,281.06193 C 163.38876,280.7866 161.86047,280.56044 160.72888,280.56044 C 159.53292,280.56044 157.96335,280.55678 156.96768,280.05895 C 155.76738,279.4588 154.21697,279.31046 152.70498,278.55446 C 151.44451,277.92423 150.15782,277.16543 148.69302,276.79923 C 147.0761,276.395 146.88914,275.99834 145.9348,275.044 C 145.21608,274.32528 143.99713,272.80436 142.92584,272.53653 C 142.14878,272.34227 140.41797,272.03464 139.66613,271.2828 C 139.20805,270.82472 137.87009,269.00566 136.90791,268.52458 C 136.57358,268.35742 136.23925,268.19025 135.90492,268.02309 z"
         style="fill:#91723a;fill-opacity:1;fill-rule:evenodd;stroke:#000000;stroke-width:1px;stroke-linecap:butt;stroke-linejoin:miter;stroke-opacity:1" />
    </g>
  </g>
</svg>
