<?xml version="1.0" encoding="UTF-8" standalone="no"?>
<!-- Created with Inkscape (http://www.inkscape.org/) -->

<svg
   xmlns:dc="http://purl.org/dc/elements/1.1/"
   xmlns:cc="http://creativecommons.org/ns#"
   xmlns:rdf="http://www.w3.org/1999/02/22-rdf-syntax-ns#"
   xmlns:svg="http://www.w3.org/2000/svg"
   xmlns="http://www.w3.org/2000/svg"
   xmlns:sodipodi="http://sodipodi.sourceforge.net/DTD/sodipodi-0.dtd"
   xmlns:inkscape="http://www.inkscape.org/namespaces/inkscape"
   width="64px"
   height="64px"
   id="svg3707"
   version="1.1"
   inkscape:version="0.47 r22583"
   sodipodi:docname="cave.svg"
   inkscape:export-filename="/home/blitz/documents/projects/surveyEditor-svn/icons/cave.png"
   inkscape:export-xdpi="22.5"
   inkscape:export-ydpi="22.5">
  <defs
     id="defs3709">
    <inkscape:perspective
       sodipodi:type="inkscape:persp3d"
       inkscape:vp_x="0 : 32 : 1"
       inkscape:vp_y="0 : 1000 : 0"
       inkscape:vp_z="64 : 32 : 1"
       inkscape:persp3d-origin="32 : 21.333333 : 1"
       id="perspective3715" />
  </defs>
  <sodipodi:namedview
     id="base"
     pagecolor="#ffffff"
     bordercolor="#666666"
     borderopacity="1.0"
     inkscape:pageopacity="0.0"
     inkscape:pageshadow="2"
     inkscape:zoom="11"
     inkscape:cx="27.668014"
     inkscape:cy="31.467866"
     inkscape:current-layer="layer1"
     showgrid="true"
     inkscape:document-units="px"
     inkscape:grid-bbox="true"
     inkscape:window-width="613"
     inkscape:window-height="504"
     inkscape:window-x="252"
     inkscape:window-y="124"
     inkscape:window-maximized="0" />
  <metadata
     id="metadata3712">
    <rdf:RDF>
      <cc:Work
         rdf:about="">
        <dc:format>image/svg+xml</dc:format>
        <dc:type
           rdf:resource="http://purl.org/dc/dcmitype/StillImage" />
        <dc:title></dc:title>
      </cc:Work>
    </rdf:RDF>
  </metadata>
  <g
     id="layer1"
     inkscape:label="Layer 1"
     inkscape:groupmode="layer">
    <path
       sodipodi:nodetypes="cszsscscssa"
       id="path4250"
       d="m 7,11.363636 c 0.7272728,-2.9090909 6.454545,-3.1818178 12,-4.4545451 5.545455,-1.2727273 5.591462,-0.6646494 9.636364,-1 C 32.681266,5.5737403 39.909091,4.6363636 43.272727,5 c 3.363637,0.3636363 13.636364,0.6363636 14.636364,6.545454 1,5.909091 -0.181819,22.545455 -0.181819,22.545455 0,0 0.09091,6.818182 -5.90909,10.818182 -6,4 -16.545455,4.909091 -16.545455,4.909091 0,0 -20.181818,11.818182 -22.909091,8.181818 C 9.6363632,54.363637 5.1818182,40.272728 5.8181818,36.545455 6.4545454,32.818182 6.9090909,13.909091 6.8181819,11.727273"
       style="fill:#dcdcdc;stroke:none;stroke-width:10;stroke-linecap:round;stroke-linejoin:miter;stroke-opacity:1;stroke-miterlimit:4;stroke-dasharray:none;fill-opacity:1" />
    <path
       style="fill:#000000;fill-opacity:1;stroke:#000000;stroke-width:1.34195495px;stroke-linecap:round;stroke-linejoin:round;stroke-opacity:1"
       d="m 22.534614,52.101749 2.559632,-27.839862 6.825685,24.909351 -9.385317,2.930511 z"
       id="path4229" />
    <path
       style="fill:#000000;fill-opacity:1;stroke:#000000;stroke-width:1.24931489999999989px;stroke-linecap:round;stroke-linejoin:miter;stroke-opacity:1"
       d="m 33.670112,10.500996 1.518267,11.01071 1.686964,-12.3870485 -3.205231,1.3763385 z"
       id="path4233" />
    <path
       style="fill:#000000;fill-opacity:1;stroke:#000000;stroke-width:1.35282385000000005px;stroke-linecap:butt;stroke-linejoin:miter;stroke-opacity:1"
       d="M 40.721867,8.6309573 45.884346,34.641771 48.914497,9.0352705 40.721867,8.6309573 z"
       id="path4237" />
    <path
       style="fill:none;stroke:#000000;stroke-width:3.0710001;stroke-linecap:round;stroke-linejoin:miter;stroke-miterlimit:4;stroke-opacity:1;stroke-dasharray:none"
       d="m 17.454545,9.6360946 0,18.3641744"
       id="path4241"
       sodipodi:nodetypes="cc" />
    <path
       style="fill:none;stroke:#1d1d1d;stroke-width:10;stroke-linecap:round;stroke-linejoin:miter;stroke-opacity:1;stroke-miterlimit:4;stroke-dasharray:none;fill-opacity:1"
       d="m 7,11.363636 c 0.7272728,-2.9090909 6.454545,-3.1818178 12,-4.4545451 5.545455,-1.2727273 5.591462,-0.6646494 9.636364,-1 4.044902,-0.3353506 11.090909,-0.3636364 14.454545,0 3.363637,0.3636363 13.818182,-0.2727273 14.818182,5.6363631 1,5.909091 -0.181819,22.545455 -0.181819,22.545455 0,0 0.09091,6.818182 -5.90909,10.818182 -6,4 -16.545455,4.909091 -16.545455,4.909091 0,0 -20.181818,11.818182 -22.909091,8.181818 C 9.6363632,54.363637 5.1818182,40.272728 5.8181818,36.545455 6.4545454,32.818182 6.9090909,13.909091 6.8181819,11.727273"
       id="path4227"
       sodipodi:nodetypes="cszsscscssa" />
  </g>
</svg>
