<?xml version="1.0" encoding="UTF-8" standalone="no"?>
<!-- Created with Inkscape (http://www.inkscape.org/) -->

<svg
   xmlns:dc="http://purl.org/dc/elements/1.1/"
   xmlns:cc="http://creativecommons.org/ns#"
   xmlns:rdf="http://www.w3.org/1999/02/22-rdf-syntax-ns#"
   xmlns:svg="http://www.w3.org/2000/svg"
   xmlns="http://www.w3.org/2000/svg"
   xmlns:xlink="http://www.w3.org/1999/xlink"
   xmlns:sodipodi="http://sodipodi.sourceforge.net/DTD/sodipodi-0.dtd"
   xmlns:inkscape="http://www.inkscape.org/namespaces/inkscape"
   width="100"
   height="100"
   id="svg2"
   version="1.1"
   inkscape:version="0.48.1 r9760"
   sodipodi:docname="loadingSwirl.svg">
  <defs
     id="defs4">
    <linearGradient
       id="linearGradient3769">
      <stop
         style="stop-color:#000000;stop-opacity:1;"
         offset="0"
         id="stop3772" />
      <stop
         style="stop-color:#ffffff;stop-opacity:1;"
         offset="1"
         id="stop3774" />
    </linearGradient>
    <linearGradient
       id="linearGradient3767">
      <stop
         style="stop-color:#008621;stop-opacity:1;"
         offset="0"
         id="stop3769" />
      <stop
         style="stop-color:#317831;stop-opacity:0;"
         offset="1"
         id="stop3771" />
    </linearGradient>
    <linearGradient
       inkscape:collect="always"
       xlink:href="#linearGradient3767"
       id="linearGradient3775"
       x1="17.097565"
       y1="14.623215"
       x2="44.110077"
       y2="47.519699"
       gradientUnits="userSpaceOnUse" />
    <filter
       inkscape:collect="always"
       id="filter3785">
      <feGaussianBlur
         inkscape:collect="always"
         stdDeviation="0.47468777"
         id="feGaussianBlur3787" />
    </filter>
    <linearGradient
       inkscape:collect="always"
       xlink:href="#linearGradient3767"
       id="linearGradient3789"
       gradientUnits="userSpaceOnUse"
       x1="13.809679"
       y1="2.5034573"
       x2="23.517527"
       y2="48.558537" />
    <radialGradient
       inkscape:collect="always"
       xlink:href="#linearGradient3769"
       id="radialGradient3780"
       cx="53.672855"
       cy="44.222473"
       fx="53.672855"
       fy="44.222473"
       r="55.168827"
       gradientTransform="matrix(-1.6309589,-1.5798675,1.165764,-1.2034638,94.505446,177.00351)"
       gradientUnits="userSpaceOnUse" />
    <radialGradient
       inkscape:collect="always"
       xlink:href="#linearGradient3769"
       id="radialGradient3800"
       cx="64.532333"
       cy="27.962494"
       fx="64.532333"
       fy="27.962494"
       r="55.168827"
       gradientTransform="matrix(1.0781905,-0.54067246,0.67759674,1.3512402,-24.91883,28.015744)"
       gradientUnits="userSpaceOnUse" />
    <radialGradient
       inkscape:collect="always"
       xlink:href="#linearGradient3769"
       id="radialGradient3805"
       gradientUnits="userSpaceOnUse"
       gradientTransform="matrix(-1.6309589,-1.5798675,1.165764,-1.2034638,94.505446,177.00351)"
       cx="53.672855"
       cy="44.222473"
       fx="53.672855"
       fy="44.222473"
       r="55.168827" />
    <filter
       inkscape:collect="always"
       id="filter3811">
      <feGaussianBlur
         inkscape:collect="always"
         stdDeviation="2.5196583"
         id="feGaussianBlur3813" />
    </filter>
    <radialGradient
       inkscape:collect="always"
       xlink:href="#linearGradient3769"
       id="radialGradient3818"
       gradientUnits="userSpaceOnUse"
       gradientTransform="matrix(-1.6309589,-1.5798675,1.165764,-1.2034638,94.505446,177.00351)"
       cx="53.672855"
       cy="44.222473"
       fx="53.672855"
       fy="44.222473"
       r="55.168827" />
    <filter
       inkscape:collect="always"
       id="filter3840">
      <feGaussianBlur
         inkscape:collect="always"
         stdDeviation="0.98111069"
         id="feGaussianBlur3842" />
    </filter>
    <filter
       inkscape:collect="always"
       id="filter3875">
      <feGaussianBlur
         inkscape:collect="always"
         stdDeviation="1.5438281"
         id="feGaussianBlur3877" />
    </filter>
    <filter
       inkscape:collect="always"
       id="filter3879">
      <feGaussianBlur
         inkscape:collect="always"
         stdDeviation="0.51460937"
         id="feGaussianBlur3881" />
    </filter>
  </defs>
  <sodipodi:namedview
     id="base"
     pagecolor="#ffffff"
     bordercolor="#666666"
     borderopacity="1.0"
     inkscape:pageopacity="0.0"
     inkscape:pageshadow="2"
     inkscape:zoom="1.4"
     inkscape:cx="9.0036873"
     inkscape:cy="102.17978"
     inkscape:document-units="px"
     inkscape:current-layer="layer1"
     showgrid="false"
     inkscape:window-width="1534"
     inkscape:window-height="1176"
     inkscape:window-x="66"
     inkscape:window-y="24"
     inkscape:window-maximized="1" />
  <metadata
     id="metadata7">
    <rdf:RDF>
      <cc:Work
         rdf:about="">
        <dc:format>image/svg+xml</dc:format>
        <dc:type
           rdf:resource="http://purl.org/dc/dcmitype/StillImage" />
        <dc:title />
      </cc:Work>
    </rdf:RDF>
  </metadata>
  <g
     inkscape:label="Layer 1"
     inkscape:groupmode="layer"
     id="layer1"
     transform="translate(0,-952.36218)">
    <path
       sodipodi:type="inkscape:offset"
       inkscape:radius="2.4055116"
       inkscape:original="M 49.25 0 C 22.052772 -9.4739031e-15 0 21.886981 0 48.875 C 4.7369516e-15 75.863019 22.052772 97.71875 49.25 97.71875 C 76.447228 97.71875 98.5 75.863019 98.5 48.875 C 98.5 21.886981 76.447228 0 49.25 0 z "
       style="fill:none;stroke:#000000;stroke-width:11.84777640999999981;stroke-miterlimit:4;stroke-opacity:1;filter:url(#filter3879)"
       id="path3820"
       d="m 49.25,-2.40625 c -28.487786,0 -51.65625,22.982817 -51.65625,51.28125 0,28.298433 23.170307,51.25 51.65625,51.25 28.485943,0 51.65625,-22.951567 51.65625,-51.25 0,-28.298433 -23.168464,-51.28125 -51.65625,-51.28125 z"
       transform="matrix(0.84404024,0,0,0.84404024,8.4352908,961.12151)" />
    <path
       sodipodi:type="inkscape:offset"
       inkscape:radius="1.827093"
       inkscape:original="M 44.96875 958.9375 C 32.694847 959.81678 20.79997 965.35409 12.40625 975.5 C -2.6200265 993.66302 -1.0571114 1021.6814 17.59375 1036.875 C 34.091836 1050.3149 59.481096 1048.8078 73.09375 1031.8125 C 84.96023 1016.9974 83.552915 994.32467 68.1875 982.3125 C 55.039791 972.03405 35.010766 973.36323 24.59375 987.09375 C 15.927387 998.51676 17.184618 1015.7963 29.1875 1024.625 L 29.3125 1024.7188 C 39.108261 1031.8248 53.802446 1030.6075 60.96875 1020.0625 C 66.484307 1011.9465 65.315474 999.82242 56.28125 994.34375 C 53.055301 992.38742 49.214843 991.72642 45.5625 992.4375 C 41.910157 993.14857 38.363928 995.45337 36.53125 999.28125 C 35.369939 1001.7068 35.135199 1004.4216 35.90625 1007.0625 C 36.677301 1009.7034 38.946237 1012.3985 42.28125 1013.0312 C 44.70559 1013.4911 46.051963 1012.8665 47.6875 1011.625 C 48.505268 1011.0042 49.519347 1010.0695 49.8125 1008.4375 C 50.105653 1006.8056 49.253796 1005.0036 48.21875 1004.0312 A 3.5012881 3.4994125 0 0 0 42.625 1004.9375 C 42.444384 1004.1145 42.51493 1002.9029 42.8125 1002.2812 C 43.625968 1000.5823 45.004316 999.67671 46.875 999.3125 C 48.745684 998.9483 51.045235 999.31669 52.6875 1000.3125 C 57.941878 1003.4989 58.622807 1011.1013 55.1875 1016.1562 C 50.423714 1023.1659 40.221732 1023.984 33.4375 1019.0625 C 24.70179 1012.7255 23.74879 999.83052 30.1875 991.34375 C 38.104018 980.9091 53.655598 979.87899 63.84375 987.84375 C 75.97884 997.33057 77.134476 1015.565 67.625 1027.4375 C 56.558268 1041.2542 35.596734 1042.5196 22.03125 1031.4688 C 6.5219718 1018.8345 5.1721934 995.14746 17.78125 979.90625 L 17.9375 979.8125 C 32.177396 962.74978 58.454263 961.37762 75.34375 975.5 C 94.216375 991.28061 95.723489 1020.3358 80 1038.9375 A 3.5012881 3.4994125 0 1 0 85.3125 1043.4375 C 103.49416 1021.9277 101.77091 988.45459 79.8125 970.09375 C 69.888912 961.796 57.242653 958.05822 44.96875 958.9375 z "
       style="font-size:medium;font-style:normal;font-variant:normal;font-weight:normal;font-stretch:normal;text-indent:0;text-align:start;text-decoration:none;line-height:normal;letter-spacing:normal;word-spacing:normal;text-transform:none;direction:ltr;block-progression:tb;writing-mode:lr-tb;text-anchor:start;baseline-shift:baseline;color:#000000;fill:#595959;fill-opacity:1;fill-rule:nonzero;stroke:none;stroke-width:4.79789352;marker:none;visibility:visible;display:inline;overflow:visible;filter:url(#filter3785);enable-background:accumulate;font-family:Sans;-inkscape-font-specification:Sans"
       id="path3783"
       d="M 44.84375,957.125 C 32.108446,958.03733 19.726004,963.79619 11,974.34375 c -15.654206,18.92203 -14.0273763,48.08075 5.4375,63.93745 17.261587,14.0619 43.821057,12.5069 58.09375,-5.3124 C 87.010411,1017.3887 85.514131,993.5409 69.3125,980.875 55.395247,969.99495 34.189306,971.4163 23.125,986 c -9.254043,12.19762 -7.901716,30.6269 4.96875,40.0938 l 0.125,0.094 a 1.8272757,1.8272757 0 0 0 0.03125,0 c 10.579006,7.6742 26.436562,6.3575 34.21875,-5.0937 6.058472,-8.9149 4.746385,-22.25039 -5.25,-28.31255 -3.61967,-2.1951 -7.903352,-2.92258 -12,-2.125 -4.161522,0.8102 -8.238002,3.44551 -10.34375,7.84375 -1.349208,2.818 -1.612173,6.0025 -0.71875,9.0625 0.947583,3.2455 3.661835,6.4685 7.78125,7.25 2.843646,0.5394 5.058651,-0.3637 6.84375,-1.7187 0.941857,-0.7151 2.442429,-2.1096 2.84375,-4.3438 0.43867,-2.442 -0.658267,-4.5972 -2.125,-6 -0.01596,-0.015 -0.01519,-0.047 -0.03125,-0.062 l -0.03125,0.031 c -0.09638,-0.089 -0.35988,-0.37 -0.40625,-0.4063 -0.05178,-0.04 -0.443799,-0.3096 -0.5,-0.3437 -0.0562,-0.034 -0.50266,-0.2852 -0.5625,-0.3126 -0.05984,-0.027 -0.531101,-0.1986 -0.59375,-0.2187 -0.06265,-0.02 -0.529164,-0.1436 -0.59375,-0.1563 0.166772,-0.045 0.246424,-0.1502 0.4375,-0.1874 1.368146,-0.2664 3.364744,0.074 4.53125,0.7812 4.212463,2.5546 4.831025,8.9923 1.9375,13.25 -4.1193,6.0614 -13.185878,6.8225 -19.1875,2.4688 -7.833238,-5.6824 -8.691353,-17.4487 -2.84375,-25.1563 7.255116,-9.56287 21.645321,-10.51829 31.0625,-3.15625 11.284458,8.82182 12.362426,25.89635 3.46875,36.99995 -10.397004,12.9806 -30.202023,14.2069 -43,3.7813 C 8.5758113,1018.1594 7.240892,995.76395 19.03125,981.28125 a 1.8272757,1.8272757 0 0 0 0.03125,-0.0312 1.8272757,1.8272757 0 0 0 0.28125,-0.28125 c 13.562296,-16.2508 38.683114,-17.54931 54.8125,-4.0625 18.062693,15.10337 19.518304,43.00235 4.4375,60.84375 -0.104368,0.1097 -0.225281,0.2521 -0.25,0.2812 -0.03781,0.045 -0.279567,0.3893 -0.3125,0.4376 -0.03293,0.048 -0.284798,0.4173 -0.3125,0.4687 -0.0277,0.051 -0.196581,0.446 -0.21875,0.5 -0.02217,0.054 -0.171105,0.4752 -0.1875,0.5313 -0.0164,0.056 -0.114556,0.4738 -0.125,0.5312 -0.01044,0.057 -0.08937,0.5043 -0.09375,0.5625 -0.0044,0.058 -0.0017,0.5042 0,0.5625 0.0017,0.058 0.02342,0.5047 0.03125,0.5625 0.0078,0.058 0.111163,0.4745 0.125,0.5313 0.01384,0.057 0.136555,0.4762 0.15625,0.5312 0.01969,0.055 0.19341,0.4786 0.21875,0.5312 0.02534,0.053 0.219291,0.4504 0.25,0.5 0.03071,0.05 0.308007,0.3914 0.34375,0.4376 0.03574,0.046 0.303362,0.3952 0.34375,0.4374 0.04039,0.042 0.361658,0.3373 0.40625,0.375 0.04459,0.038 0.389193,0.3109 0.4375,0.3438 0.04831,0.033 0.448506,0.2536 0.5,0.2812 0.05149,0.028 0.445884,0.2279 0.5,0.25 0.05412,0.022 0.475106,0.1712 0.53125,0.1876 0.05614,0.016 0.473696,0.1145 0.53125,0.125 0.05755,0.01 0.504168,0.058 0.5625,0.062 0.05833,0 0.504032,0 0.5625,0 0.05847,-0 0.473289,-0.023 0.53125,-0.031 0.05796,-0.01 0.505684,-0.08 0.5625,-0.094 0.05682,-0.014 0.476203,-0.1677 0.53125,-0.1874 0.05505,-0.02 0.447327,-0.1622 0.5,-0.1876 0.05267,-0.025 0.450279,-0.2505 0.5,-0.2812 0.04972,-0.031 0.422526,-0.2767 0.46875,-0.3125 0.04622,-0.036 0.364029,-0.3346 0.40625,-0.375 0.04222,-0.04 0.368493,-0.3617 0.40625,-0.4063 0.025,-0.029 0.127213,-0.1598 0.21875,-0.2812 0.0467,-0.062 0.08264,-0.1399 0.09375,-0.1562 C 105.50896,1022.1969 103.7131,987.67938 81,968.6875 70.697548,960.07296 57.574972,956.21296 44.84375,957.125 z"
       transform="translate(-108.5914,-2.7779195)" />
    <path
       sodipodi:type="spiral"
       style="fill:url(#linearGradient3789);fill-opacity:1;stroke:#000000;stroke-width:4.79789352;stroke-linecap:round;stroke-linejoin:miter;stroke-miterlimit:4;stroke-opacity:1;stroke-dasharray:none"
       id="path2997"
       sodipodi:cx="32.577419"
       sodipodi:cy="27.016478"
       sodipodi:expansion="1"
       sodipodi:revolution="3"
       sodipodi:radius="34.65942"
       sodipodi:argument="-18.095076"
       sodipodi:t0="0"
       d="m 32.577419,27.016478 c 1.266186,1.190215 -0.979694,2.294003 -1.978215,2.104484 -2.70593,-0.513586 -3.244422,-3.942545 -2.230753,-6.060916 1.813217,-3.789268 6.80777,-4.38108 10.143615,-2.357021 4.895487,2.970389 5.549988,9.711344 2.48329,14.226315 -4.087427,6.017746 -12.628462,6.73255 -18.309015,2.609558 -7.148395,-5.188364 -7.922157,-15.55202 -2.735826,-22.391714 6.281341,-8.2837861 18.479201,-9.1158409 26.474413,-2.862095 9.422082,7.369823 10.312084,21.40864 2.988364,30.557113 C 40.957768,53.404477 25.073705,54.352235 14.773479,45.956835 3.0697077,36.417447 2.0643021,18.685242 11.532578,7.2343218 22.154553,-5.6118797 41.73695,-6.674866 54.337791,3.8671524 68.327113,15.570791 69.447638,37.004884 57.831229,50.755065"
       transform="matrix(1.4593646,0,0,1.4585828,-110.3246,964.36549)" />
    <path
       transform="matrix(0.84404024,0,0,0.84404024,8.4352908,961.12151)"
       d="m 100.50468,48.861027 a 51.259743,51.259743 0 1 1 -102.5194848,0 51.259743,51.259743 0 1 1 102.5194848,0 z"
       sodipodi:ry="51.259743"
       sodipodi:rx="51.259743"
       sodipodi:cy="48.861027"
       sodipodi:cx="49.244938"
       id="path3792"
       style="fill:url(#radialGradient3800);fill-opacity:1;stroke:none"
       sodipodi:type="arc" />
    <path
       sodipodi:type="inkscape:offset"
       inkscape:radius="2.3936124"
       inkscape:original="M 49.25 0 C 22.052772 -9.4739031e-15 0 21.886981 0 48.875 C 4.7369516e-15 75.863019 22.052772 97.71875 49.25 97.71875 C 76.447228 97.71875 98.5 75.863019 98.5 48.875 C 98.5 21.886981 76.447228 0 49.25 0 z "
       style="fill:none;stroke:#ffffff;stroke-width:5.92388821000000032;stroke-miterlimit:4;stroke-opacity:1;filter:url(#filter3875)"
       id="path3845"
       d="m 49.25,-2.40625 c -28.481402,0 -51.65625,22.9893 -51.65625,51.28125 0,28.29195 23.176682,51.25 51.65625,51.25 28.479568,0 51.65625,-22.95805 51.65625,-51.25 0,-28.29195 -23.174848,-51.28125 -51.65625,-51.28125 z"
       transform="matrix(0.84404024,0,0,0.84404024,8.4352908,961.12151)" />
  </g>
</svg>
