<?xml version="1.0" encoding="UTF-8" standalone="no"?>
<!-- Created with Inkscape (http://www.inkscape.org/) -->

<svg
   xmlns:dc="http://purl.org/dc/elements/1.1/"
   xmlns:cc="http://creativecommons.org/ns#"
   xmlns:rdf="http://www.w3.org/1999/02/22-rdf-syntax-ns#"
   xmlns:svg="http://www.w3.org/2000/svg"
   xmlns="http://www.w3.org/2000/svg"
   xmlns:sodipodi="http://sodipodi.sourceforge.net/DTD/sodipodi-0.dtd"
   xmlns:inkscape="http://www.inkscape.org/namespaces/inkscape"
   width="64px"
   height="64px"
   id="svg2816"
   version="1.1"
   inkscape:version="0.47 r22583"
   sodipodi:docname="trip.svg"
   inkscape:export-filename="/home/blitz/documents/projects/surveyEditor-svn/icons/trip.png"
   inkscape:export-xdpi="22.5"
   inkscape:export-ydpi="22.5">
  <defs
     id="defs2818">
    <inkscape:perspective
       sodipodi:type="inkscape:persp3d"
       inkscape:vp_x="0 : 32 : 1"
       inkscape:vp_y="0 : 1000 : 0"
       inkscape:vp_z="64 : 32 : 1"
       inkscape:persp3d-origin="32 : 21.333333 : 1"
       id="perspective2824" />
  </defs>
  <sodipodi:namedview
     id="base"
     pagecolor="#ffffff"
     bordercolor="#666666"
     borderopacity="1.0"
     inkscape:pageopacity="0.0"
     inkscape:pageshadow="2"
     inkscape:zoom="7.7781746"
     inkscape:cx="20.351995"
     inkscape:cy="17.383876"
     inkscape:current-layer="layer1"
     showgrid="true"
     inkscape:document-units="px"
     inkscape:grid-bbox="true"
     inkscape:window-width="1600"
     inkscape:window-height="1172"
     inkscape:window-x="0"
     inkscape:window-y="1"
     inkscape:window-maximized="1" />
  <metadata
     id="metadata2821">
    <rdf:RDF>
      <cc:Work
         rdf:about="">
        <dc:format>image/svg+xml</dc:format>
        <dc:type
           rdf:resource="http://purl.org/dc/dcmitype/StillImage" />
        <dc:title></dc:title>
      </cc:Work>
    </rdf:RDF>
  </metadata>
  <g
     id="layer1"
     inkscape:label="Layer 1"
     inkscape:groupmode="layer">
    <path
       id="path3944"
       d="M 22.855565,43.147389 42.354673,16.139307 61.611556,52.715275"
       style="fill:#c6c6c6;stroke:#000000;stroke-width:4.64200020000000002;stroke-linecap:round;stroke-linejoin:miter;stroke-miterlimit:4;stroke-opacity:1;stroke-dasharray:none;fill-opacity:1" />
    <path
       style="fill:none;stroke:#000000;stroke-width:4.6420002;stroke-linecap:round;stroke-linejoin:miter;stroke-miterlimit:4;stroke-opacity:1;stroke-dasharray:none"
       d="M 22.855565,43.147389 42.354673,16.139307 61.611556,52.715275"
       id="path3734" />
    <g
       id="g3723"
       transform="matrix(1.7909899,0,0,1.7614035,-8.204665,-49.004657)">
      <path
         sodipodi:nodetypes="cc"
         id="path3618"
         d="M 10.454545,51.40909 6.4090909,62.272727"
         style="fill:none;stroke:#000000;stroke-width:2.79999995;stroke-linecap:round;stroke-linejoin:miter;stroke-miterlimit:4;stroke-opacity:1;stroke-dasharray:none" />
      <path
         sodipodi:nodetypes="cc"
         id="path3620"
         d="m 10.727273,51.454545 3.363636,11.000001"
         style="fill:none;stroke:#000000;stroke-width:2.79999995;stroke-linecap:round;stroke-linejoin:miter;stroke-miterlimit:4;stroke-opacity:1;stroke-dasharray:none" />
      <path
         id="path3622"
         d="M 10.545455,51.818182 10.454545,39.363636"
         style="fill:none;stroke:#000000;stroke-width:2.79999995;stroke-linecap:round;stroke-linejoin:miter;stroke-miterlimit:4;stroke-opacity:1;stroke-dasharray:none" />
      <path
         sodipodi:nodetypes="cszsz"
         id="path3624"
         d="m 9.6818182,41.136364 c -0.1590909,-0.255682 -1.8181818,-1.454546 -2.4545455,-0.09091 -0.6363636,1.363637 -0.2504365,6.757288 -0.1818181,7.545455 0.068618,0.788167 1.6363636,1.454546 2.090909,0.09091 0.4545455,-1.363637 0.7045455,-7.289773 0.5454546,-7.545455 z"
         style="fill:#000000;fill-opacity:1;stroke:#000000;stroke-width:1px;stroke-linecap:butt;stroke-linejoin:miter;stroke-opacity:1" />
      <path
         transform="translate(-1.0909091,-1.2727273)"
         d="m 14.909091,38.227272 c 0,1.732166 -1.404198,3.136364 -3.136364,3.136364 -1.732166,0 -3.1363637,-1.404198 -3.1363637,-3.136364 0,-1.732166 1.4041977,-3.136364 3.1363637,-3.136364 1.732166,0 3.136364,1.404198 3.136364,3.136364 z"
         sodipodi:ry="3.1363637"
         sodipodi:rx="3.1363637"
         sodipodi:cy="38.227272"
         sodipodi:cx="11.772727"
         id="path3626"
         style="fill:#000000;fill-opacity:1;stroke:none"
         sodipodi:type="arc" />
      <path
         id="path3632"
         d="m 10.701705,32.880682 c -1.8297355,0 -3.3690805,1.367997 -3.6562505,3.125 l 7.2812505,0 c -0.281091,-1.75445 -1.794359,-3.125 -3.625,-3.125 z"
         style="fill:#9a0000;fill-opacity:1;stroke:none" />
      <path
         id="path3637"
         d="m 10.727273,42.090909 5.636363,4.272727"
         style="fill:none;stroke:#000000;stroke-width:2.79999995;stroke-linecap:round;stroke-linejoin:miter;stroke-miterlimit:4;stroke-opacity:1;stroke-dasharray:none" />
      <path
         sodipodi:type="inkscape:offset"
         inkscape:radius="0"
         inkscape:original="M 21.84375 29.25 A 0.85008502 0.85008502 0 0 0 21.625 29.34375 L 14.9375 32.34375 A 0.85353127 0.85353127 0 1 0 15.625 33.90625 L 22.3125 30.875 A 0.85008502 0.85008502 0 0 0 21.84375 29.25 z "
         style="font-size:medium;font-style:normal;font-variant:normal;font-weight:normal;font-stretch:normal;text-indent:0;text-align:start;text-decoration:none;line-height:normal;letter-spacing:normal;word-spacing:normal;text-transform:none;direction:ltr;block-progression:tb;writing-mode:lr-tb;text-anchor:start;color:#000000;fill:#000000;fill-opacity:1;stroke:none;stroke-width:1.70000005;marker:none;visibility:visible;display:inline;overflow:visible;enable-background:accumulate;font-family:Bitstream Vera Sans;-inkscape-font-specification:Bitstream Vera Sans"
         id="path3748"
         d="M 21.84375,29.25 A 0.85008502,0.85008502 0 0 0 21.625,29.34375 l -6.6875,3 a 0.85353127,0.85353127 0 1 0 0.6875,1.5625 L 22.3125,30.875 A 0.85008502,0.85008502 0 0 0 21.84375,29.25 z" />
      <path
         style="font-size:medium;font-style:normal;font-variant:normal;font-weight:normal;font-stretch:normal;text-indent:0;text-align:start;text-decoration:none;line-height:normal;letter-spacing:normal;word-spacing:normal;text-transform:none;direction:ltr;block-progression:tb;writing-mode:lr-tb;text-anchor:start;color:#000000;fill:#000000;fill-opacity:1;stroke:none;stroke-width:1.70000005;marker:none;visibility:visible;display:inline;overflow:visible;enable-background:accumulate;font-family:Bitstream Vera Sans;-inkscape-font-specification:Bitstream Vera Sans"
         d="m 15.71875,34.96875 a 0.85008502,0.85008502 0 0 0 -0.0625,1.6875 l 6.375,1.53125 a 0.85008502,0.85008502 0 1 0 0.375,-1.65625 L 16.03125,35 a 0.85008502,0.85008502 0 0 0 -0.3125,-0.03125 z"
         id="path3643" />
      <path
         d="m 21.84375,29.53125 c -0.01215,0.0052 -0.01929,0.02562 -0.03125,0.03125 -0.01175,0.006 -0.01972,-0.0065 -0.03125,0 -0.01153,0.0065 0.0113,0.02439 0,0.03125 a 0.27923467,0.27923467 0 0 1 -0.03125,0 l -6.6875,3 c -0.01697,0.0075 -0.01467,0.02296 -0.03125,0.03125 -0.01658,0.0083 -0.0151,-0.0091 -0.03125,0 -0.01615,0.0091 -0.01556,-0.0099 -0.03125,0 -0.01569,0.0099 -0.01607,0.02062 -0.03125,0.03125 -0.01464,0.01136 -0.01718,0.01918 -0.03125,0.03125 -0.01407,0.01207 -0.01779,0.01851 -0.03125,0.03125 -0.01282,0.01339 -0.0191,0.01725 -0.03125,0.03125 -0.01215,0.014 0.01144,0.01667 0,0.03125 -0.01144,0.01458 -0.02054,-0.01512 -0.03125,0 -0.01071,0.01512 -0.02129,0.01562 -0.03125,0.03125 -0.01,0.01563 0.0092,0.01515 0,0.03125 -0.0092,0.0161 0.0084,0.01472 0,0.03125 -0.0084,0.01653 -0.02369,0.01433 -0.03125,0.03125 -0.0067,0.01727 0.0059,0.01367 0,0.03125 -0.0059,0.01758 -0.02626,0.0134 -0.03125,0.03125 -0.005,0.01785 0.0041,0.01318 0,0.03125 -0.0041,0.01807 0.0032,0.013 0,0.03125 -0.0032,0.01825 0.0023,0.01286 0,0.03125 -0.0023,0.01839 0.0014,0.01277 0,0.03125 -5.06e-4,0.01853 -4.04e-4,0.01272 0,0.03125 4.04e-4,0.01853 -0.0013,0.01276 0,0.03125 0.0013,0.01849 -0.0022,0.01285 0,0.03125 0.0022,0.0184 -0.0031,0.01298 0,0.03125 0.0031,0.01827 -0.004,0.01315 0,0.03125 0.004,0.0181 -0.0049,0.01337 0,0.03125 0.0049,0.01788 0.02548,0.01363 0.03125,0.03125 0.0058,0.01762 -0.0066,0.01394 0,0.03125 0.0075,0.01697 0.02296,0.01467 0.03125,0.03125 0.0083,0.01658 -0.0091,0.0151 0,0.03125 0.0091,0.01615 -0.0099,0.01556 0,0.03125 0.0099,0.01569 0.02062,0.01607 0.03125,0.03125 0.01136,0.01464 0.01918,0.01718 0.03125,0.03125 0.01207,0.01407 0.01851,0.01779 0.03125,0.03125 0.01339,0.01282 0.01725,0.01911 0.03125,0.03125 0.014,0.01214 0.01667,-0.01144 0.03125,0 0.01458,0.01144 -0.01512,0.02054 0,0.03125 0.01512,0.01071 0.01562,0.02129 0.03125,0.03125 0.01563,0.01 0.01515,-0.0092 0.03125,0 0.0161,0.0092 0.01472,-0.0084 0.03125,0 0.01653,0.0084 0.01432,0.02369 0.03125,0.03125 0.01727,0.0067 0.01367,-0.0059 0.03125,0 0.01758,0.0059 0.0134,0.02626 0.03125,0.03125 0.01785,0.005 0.01318,-0.0041 0.03125,0 0.01807,0.0041 0.013,-0.0032 0.03125,0 0.01825,0.0032 0.01286,-0.0023 0.03125,0 0.01839,0.0023 0.01277,-0.0014 0.03125,0 0.01853,5.05e-4 0.01272,4.05e-4 0.03125,0 0.01853,-4.05e-4 0.01276,0.0013 0.03125,0 0.01849,-0.0013 0.01285,0.0022 0.03125,0 0.0184,-0.0022 0.01298,0.0031 0.03125,0 0.01827,-0.0031 0.01315,0.004 0.03125,0 0.0181,-0.004 0.01337,0.0049 0.03125,0 0.01788,-0.0049 0.01364,-0.02548 0.03125,-0.03125 0.01761,-0.0058 0.01394,0.0066 0.03125,0 L 22.1875,30.625 a 0.27923467,0.27923467 0 0 1 0.03125,0 c 0.01602,-0.0065 -0.01571,-0.02406 0,-0.03125 0.01571,-0.0072 0.01589,0.0079 0.03125,0 0.01536,-0.0079 0.01627,0.0086 0.03125,0 0.01498,-0.0086 0.01668,-0.02198 0.03125,-0.03125 0.01413,-0.0099 0.01759,-0.02068 0.03125,-0.03125 0.01366,-0.01057 0.01809,0.01119 0.03125,0 0.01316,-0.01119 -0.01263,-0.01947 0,-0.03125 0.01263,-0.01178 0.01917,0.01235 0.03125,0 0.01208,-0.01235 -0.0115,-0.01836 0,-0.03125 0.0115,-0.01289 0.02035,-0.01785 0.03125,-0.03125 0.0109,-0.0134 0.02098,0.01389 0.03125,0 0.01027,-0.01389 -0.0096,-0.01691 0,-0.03125 0.0096,-0.01434 -0.009,-0.01648 0,-0.03125 0.009,-0.01477 0.02298,0.01516 0.03125,0 0.0083,-0.01516 -0.0076,-0.01572 0,-0.03125 0.0076,-0.01553 0.02441,-0.01539 0.03125,-0.03125 0.0068,-0.01586 -0.0061,-0.01509 0,-0.03125 0.0061,-0.01616 -0.0054,-0.01483 0,-0.03125 0.0046,-0.01665 0.02742,-0.01441 0.03125,-0.03125 0.0038,-0.01684 -0.0031,-0.01425 0,-0.03125 0.0031,-0.017 -0.0023,-0.01413 0,-0.03125 0.0023,-0.01712 -0.0015,-0.01404 0,-0.03125 6.97e-4,-0.01726 9.5e-5,-0.01398 0,-0.03125 -9.5e-5,-0.01727 8.88e-4,-0.014 0,-0.03125 -8.88e-4,-0.01725 0.0017,-0.01406 0,-0.03125 -0.0017,-0.01719 0.0025,-0.01415 0,-0.03125 -0.0025,-0.0171 0.0032,-0.01429 0,-0.03125 -0.004,-0.0168 -0.02646,-0.01465 -0.03125,-0.03125 -0.0048,-0.0166 0.0055,-0.01489 0,-0.03125 -0.0055,-0.01636 0.0063,-0.01516 0,-0.03125 -0.0063,-0.01609 0.007,-0.01547 0,-0.03125 -0.007,-0.01578 -0.02351,0.01544 -0.03125,0 -0.0077,-0.01544 0.0084,-0.01618 0,-0.03125 -0.0084,-0.01507 -0.02213,-0.01658 -0.03125,-0.03125 -0.0091,-0.01467 0.0098,-0.01701 0,-0.03125 -0.0098,-0.01424 -0.02082,0.01377 -0.03125,0 -0.01043,-0.01377 0.01105,-0.01797 0,-0.03125 -0.01105,-0.01328 -0.01961,-0.01849 -0.03125,-0.03125 -0.01222,-0.01221 -0.01849,-0.01961 -0.03125,-0.03125 -0.01328,-0.01104 -0.01747,-0.02083 -0.03125,-0.03125 -0.01378,-0.01042 -0.01701,0.0098 -0.03125,0 -0.01424,-0.0098 -0.01658,-0.02214 -0.03125,-0.03125 -0.01508,-0.0084 -0.0158,-0.02352 -0.03125,-0.03125 -0.01545,-0.0077 -0.01546,0.007 -0.03125,0 -0.01579,-0.007 -0.01516,0.0063 -0.03125,0 -0.01609,-0.0063 0.01636,-0.02571 0,-0.03125 -0.01636,-0.0055 -0.01465,0.0048 -0.03125,0 -0.0166,-0.0048 -0.01445,0.004 -0.03125,0 -0.0168,-0.004 -0.01428,0.0032 -0.03125,0 -0.01697,-0.0032 -0.01415,0.0025 -0.03125,0 -0.01719,-0.0017 -0.014,8.81e-4 -0.03125,0 -0.01725,-8.81e-4 -0.01398,8.9e-5 -0.03125,0 -0.01727,-8.9e-5 -0.01399,-7.04e-4 -0.03125,0 -0.01726,7.04e-4 -0.01404,-0.0015 -0.03125,0 -0.01721,0.0015 -0.01413,-0.0023 -0.03125,0 -0.01263,0.0039 -0.01877,-0.0043 -0.03125,0 -0.01232,0.0048 -0.0191,-0.0052 -0.03125,0 z"
         id="path3750"
         style="font-size:medium;font-style:normal;font-variant:normal;font-weight:normal;font-stretch:normal;text-indent:0;text-align:start;text-decoration:none;line-height:normal;letter-spacing:normal;word-spacing:normal;text-transform:none;direction:ltr;block-progression:tb;writing-mode:lr-tb;text-anchor:start;color:#000000;fill:#ffa400;fill-opacity:1;stroke:none;stroke-width:1.70000005;marker:none;visibility:visible;display:inline;overflow:visible;enable-background:accumulate;font-family:Bitstream Vera Sans;-inkscape-font-specification:Bitstream Vera Sans"
         inkscape:original="M 21.84375 29.25 A 0.85008502 0.85008502 0 0 0 21.625 29.34375 L 14.9375 32.34375 A 0.85353127 0.85353127 0 1 0 15.625 33.90625 L 22.3125 30.875 A 0.85008502 0.85008502 0 0 0 21.84375 29.25 z "
         inkscape:radius="-0.27920675"
         sodipodi:type="inkscape:offset" />
      <path
         sodipodi:type="inkscape:offset"
         inkscape:radius="-0.28889948"
         inkscape:original="M 15.625 34.96875 A 0.85008502 0.85008502 0 0 0 15.65625 36.65625 L 22.03125 38.1875 A 0.85008502 0.85008502 0 1 0 22.40625 36.53125 L 16.03125 35 A 0.85008502 0.85008502 0 0 0 15.71875 34.96875 A 0.85008502 0.85008502 0 0 0 15.625 34.96875 z "
         style="font-size:medium;font-style:normal;font-variant:normal;font-weight:normal;font-stretch:normal;text-indent:0;text-align:start;text-decoration:none;line-height:normal;letter-spacing:normal;word-spacing:normal;text-transform:none;direction:ltr;block-progression:tb;writing-mode:lr-tb;text-anchor:start;color:#000000;fill:#ffa400;fill-opacity:1;stroke:none;stroke-width:1.70000005000000010;marker:none;visibility:visible;display:inline;overflow:visible;enable-background:accumulate;font-family:Bitstream Vera Sans;-inkscape-font-specification:Bitstream Vera Sans"
         id="path3754"
         d="m 15.625,35.25 c -0.01675,0.0039 -0.01469,0.02658 -0.03125,0.03125 -0.01656,0.0047 -0.01492,-0.0054 -0.03125,0 -0.01633,0.0054 -0.01519,-0.0062 -0.03125,0 -0.01577,0.0069 -0.01581,0.02367 -0.03125,0.03125 -0.01544,0.0076 -0.01617,-0.0083 -0.03125,0 -0.01508,0.0083 -0.01656,0.0223 -0.03125,0.03125 -0.01427,0.0096 -0.01743,0.02101 -0.03125,0.03125 -0.01382,0.01024 -0.01791,-0.01086 -0.03125,0 -0.01334,0.01086 0.01284,0.0198 0,0.03125 -0.01284,0.01145 -0.01894,-0.01202 -0.03125,0 -0.01231,0.01202 0.01175,0.01868 0,0.03125 -0.01175,0.01257 -0.02008,-0.01309 -0.03125,0 -0.01117,0.01309 0.01056,0.01767 0,0.03125 -0.01056,0.01358 -0.02131,0.01721 -0.03125,0.03125 -0.0093,0.01448 -0.02262,0.01637 -0.03125,0.03125 -0.0086,0.01488 0.0079,0.01599 0,0.03125 -0.0079,0.01526 -0.02401,-0.0156 -0.03125,0 -0.0072,0.0156 0.0065,0.01533 0,0.03125 -0.0065,0.01592 0.0058,0.01505 0,0.03125 -0.0058,0.0162 0.0051,0.01481 0,0.03125 -0.0051,0.01644 -0.02694,-0.01666 -0.03125,0 -0.0043,0.01666 0.0036,0.01442 0,0.03125 -0.0036,0.01683 0.0028,0.01427 0,0.03125 -0.0028,0.01698 0.002,0.01416 0,0.03125 -0.002,0.01709 0.0012,0.01409 0,0.03125 -4.61e-4,0.0172 -3.19e-4,0.01405 0,0.03125 3.19e-4,0.0172 -0.0011,0.01408 0,0.03125 0.0011,0.01717 -0.0019,0.01415 0,0.03125 0.0019,0.0171 -0.0026,0.01425 0,0.03125 0.0026,0.017 -0.0034,0.01439 0,0.03125 0.0042,0.01669 0.02632,0.01477 0.03125,0.03125 0.0049,0.01648 -0.0057,0.01501 0,0.03125 0.0057,0.01624 -0.0064,0.01528 0,0.03125 0.0071,0.01566 0.02343,0.01592 0.03125,0.03125 0.0078,0.01533 -0.0085,0.01629 0,0.03125 0.0085,0.01496 0.02208,0.01669 0.03125,0.03125 0.0098,0.01412 0.0208,0.01758 0.03125,0.03125 0.01106,0.01318 0.01961,0.01859 0.03125,0.03125 0.01164,0.01266 -0.01221,0.01913 0,0.03125 0.01221,0.01212 0.01851,-0.01156 0.03125,0 0.01274,0.01156 -0.01325,0.02028 0,0.03125 0.01325,0.01097 0.01751,-0.01036 0.03125,0 0.01374,0.01036 0.01706,0.02153 0.03125,0.03125 0.01462,0.0091 0.01624,0.02285 0.03125,0.03125 0.01501,0.0084 0.01587,-0.0077 0.03125,0 0.01571,0.007 0.01524,0.02496 0.03125,0.03125 0.01601,0.0063 0.01497,-0.0056 0.03125,0 0.01628,0.0056 0.01473,-0.0048 0.03125,0 0.01652,0.0048 0.01453,-0.0041 0.03125,0 0.01672,0.0041 -0.01689,0.02795 0,0.03125 0.01689,0.0033 0.01423,-0.0025 0.03125,0 0.01702,0.0025 0.01414,-0.0018 0.03125,0 a 0.28892837,0.28892837 0 0 1 0.03125,0 l 6.375,1.53125 c 0.01851,0.0051 0.0125,-0.0042 0.03125,0 0.01875,0.0042 0.01232,-0.0032 0.03125,0 0.01893,0.0032 0.01217,0.02896 0.03125,0.03125 0.01908,0.0023 0.01208,-0.0013 0.03125,0 0.01917,0.0013 0.01204,-3.48e-4 0.03125,0 0.01921,3.48e-4 0.01205,6.24e-4 0.03125,0 0.0192,-6.24e-4 0.0121,0.0016 0.03125,0 0.01915,-0.0016 0.01221,0.0026 0.03125,0 0.01904,-0.0026 0.01236,-0.02773 0.03125,-0.03125 0.01868,-0.0045 0.01282,0.0054 0.03125,0 0.01843,-0.0054 0.01311,0.0063 0.03125,0 0.01814,-0.0063 0.01346,-0.02401 0.03125,-0.03125 0.01779,-0.0072 0.01385,0.0081 0.03125,0 0.0174,-0.0081 0.01428,0.009 0.03125,0 0.01697,-0.009 -0.01649,-0.0214 0,-0.03125 0.01649,-0.0099 0.01528,0.01067 0.03125,0 0.01597,-0.01067 0.01584,-0.01978 0.03125,-0.03125 0.01541,-0.01147 0.01644,0.01223 0.03125,0 0.01481,-0.01223 -0.01418,-0.01828 0,-0.03125 0.01418,-0.01297 0.01775,-0.01758 0.03125,-0.03125 0.0135,-0.01367 0.01846,0.01433 0.03125,0 0.01279,-0.01433 -0.01205,-0.01629 0,-0.03125 0.01205,-0.01496 0.01997,-0.0157 0.03125,-0.03125 0.01048,-0.0161 0.0216,-0.01464 0.03125,-0.03125 0.0097,-0.01661 -0.0088,-0.01417 0,-0.03125 0.0088,-0.01708 0.02333,-0.01375 0.03125,-0.03125 0.0079,-0.0175 -0.007,-0.01337 0,-0.03125 0.0061,-0.01821 0.02606,-0.01275 0.03125,-0.03125 0.0052,-0.0185 -0.0042,-0.01251 0,-0.03125 0.0042,-0.01874 -0.0033,-0.01232 0,-0.03125 0.0033,-0.01893 -0.0023,-0.01218 0,-0.03125 0.0023,-0.01907 -0.0014,-0.01209 0,-0.03125 0.0014,-0.01916 -3.89e-4,-0.01204 0,-0.03125 3.89e-4,-0.01921 5.83e-4,-0.01205 0,-0.03125 -5.83e-4,-0.0192 0.0016,-0.0121 0,-0.03125 -0.0016,-0.01915 0.0025,-0.0122 0,-0.03125 -0.0035,-0.01889 0.0044,-0.01256 0,-0.03125 -0.0044,-0.01869 0.0054,-0.0128 0,-0.03125 -0.0054,-0.01845 -0.02495,-0.0131 -0.03125,-0.03125 -0.0063,-0.01815 0.0072,-0.01344 0,-0.03125 -0.0072,-0.01781 0.0081,-0.01383 0,-0.03125 -0.0081,-0.01742 -0.02228,-0.01426 -0.03125,-0.03125 -0.0098,-0.01651 -0.02061,-0.01525 -0.03125,-0.03125 -0.01064,-0.016 0.01144,-0.01581 0,-0.03125 -0.01144,-0.01544 -0.01905,-0.01641 -0.03125,-0.03125 -0.01294,-0.0142 -0.01761,-0.01772 -0.03125,-0.03125 -0.01364,-0.01353 -0.01694,-0.01843 -0.03125,-0.03125 -0.01494,-0.01208 -0.01572,-0.01994 -0.03125,-0.03125 -0.01553,-0.01131 -0.01517,0.01051 -0.03125,0 -0.01608,-0.01051 -0.01466,-0.02156 -0.03125,-0.03125 -0.01706,-0.0088 -0.01376,-0.02329 -0.03125,-0.03125 -0.01749,-0.008 -0.01338,0.0071 -0.03125,0 -0.01787,-0.0071 -0.01305,0.0062 -0.03125,0 -0.0182,-0.0062 -0.01276,0.0052 -0.03125,0 -0.01849,-0.0052 -0.01252,-0.02697 -0.03125,-0.03125 -0.01873,-0.0043 -0.01233,0.0033 -0.03125,0 l -6.375,-1.53125 a 0.28892837,0.28892837 0 0 1 -0.03125,0 c -0.01713,-0.0042 -0.01394,-0.02788 -0.03125,-0.03125 -0.01731,-0.0034 -0.0138,0.0026 -0.03125,0 -0.01745,-0.0026 -0.0137,0.0018 -0.03125,0 -0.01755,-0.0018 -0.01364,9.38e-4 -0.03125,0 -0.01761,-9.38e-4 -0.01362,1.19e-4 -0.03125,0 -0.01762,6.99e-4 -0.01368,-0.0015 -0.03125,0 a 0.28892837,0.28892837 0 0 1 -0.0625,0 c -0.01047,0 -0.02078,-2.89e-4 -0.03125,0 -0.01704,0.0024 -0.01434,-0.0032 -0.03125,0 z" />
    </g>
    <path
       id="path3738"
       d="M -46.440901,33.247894 -26.941793,6.2398124 -7.6849096,42.81578"
       style="fill:#a0a0a0;fill-opacity:1;stroke:#000000;stroke-width:0.94203395px;stroke-linecap:butt;stroke-linejoin:miter;stroke-opacity:1" />
    <path
       style="fill:none;stroke:#000000;stroke-width:3;stroke-linecap:round;stroke-linejoin:miter;stroke-miterlimit:4;stroke-opacity:1;stroke-dasharray:none"
       d="m 75.853273,26.587623 5.399725,5.913984 4.49977,-4.371205 9.256671,6.685373"
       id="path3756" />
    <path
       style="fill:none;stroke:#000000;stroke-width:5.30000019;stroke-linecap:butt;stroke-linejoin:miter;stroke-miterlimit:4.4000001;stroke-opacity:1;stroke-dasharray:5.30000019,5.30000019;stroke-dashoffset:11.1300004;marker-mid:none"
       d="m 25.327279,58.343146 c 0,0 7.585328,-2.442733 11.313709,-5.399725 4.078006,-3.555319 4.952105,-4.276593 6.685373,-8.99954"
       id="path3758"
       sodipodi:nodetypes="ccc" />
    <path
       style="fill:#ffffff;stroke:#000000;stroke-width:3.90000010000000019;stroke-linecap:butt;stroke-linejoin:miter;stroke-miterlimit:4;stroke-opacity:1;stroke-dasharray:none;fill-opacity:1"
       d="m 50.783123,33.144431 -10.799448,3.342687 -6.942504,-6.428244 8.485282,-12.085097 8.356716,14.78496"
       id="path3942"
       sodipodi:nodetypes="ccccc" />
  </g>
</svg>
