<?xml version="1.0" encoding="UTF-8" standalone="no"?>
<!-- Created with Inkscape (http://www.inkscape.org/) -->

<svg
   xmlns:dc="http://purl.org/dc/elements/1.1/"
   xmlns:cc="http://creativecommons.org/ns#"
   xmlns:rdf="http://www.w3.org/1999/02/22-rdf-syntax-ns#"
   xmlns:svg="http://www.w3.org/2000/svg"
   xmlns="http://www.w3.org/2000/svg"
   xmlns:xlink="http://www.w3.org/1999/xlink"
   xmlns:sodipodi="http://sodipodi.sourceforge.net/DTD/sodipodi-0.dtd"
   xmlns:inkscape="http://www.inkscape.org/namespaces/inkscape"
   width="64px"
   height="64px"
   id="svg2816"
   version="1.1"
   inkscape:version="0.47 r22583"
   sodipodi:docname="error.svg"
   inkscape:export-filename="/home/blitz/documents/projects/surveyEditor-svn/icons/trip.png"
   inkscape:export-xdpi="22.5"
   inkscape:export-ydpi="22.5">
  <defs
     id="defs2818">
    <linearGradient
       id="linearGradient4069">
      <stop
         style="stop-color:#ff0000;stop-opacity:1;"
         offset="0"
         id="stop4071" />
      <stop
         style="stop-color:#831d1d;stop-opacity:1;"
         offset="1"
         id="stop4073" />
    </linearGradient>
    <inkscape:perspective
       sodipodi:type="inkscape:persp3d"
       inkscape:vp_x="0 : 32 : 1"
       inkscape:vp_y="0 : 1000 : 0"
       inkscape:vp_z="64 : 32 : 1"
       inkscape:persp3d-origin="32 : 21.333333 : 1"
       id="perspective2824" />
    <linearGradient
       inkscape:collect="always"
       xlink:href="#linearGradient4069"
       id="linearGradient4075"
       x1="27.56908"
       y1="15.171881"
       x2="31.884089"
       y2="29.307249"
       gradientUnits="userSpaceOnUse" />
    <linearGradient
       inkscape:collect="always"
       xlink:href="#linearGradient4069"
       id="linearGradient4081"
       gradientUnits="userSpaceOnUse"
       x1="24.206335"
       y1="21.123617"
       x2="39.56184"
       y2="21.123617" />
    <linearGradient
       inkscape:collect="always"
       xlink:href="#linearGradient4069"
       id="linearGradient4089"
       x1="24.206335"
       y1="21.123615"
       x2="39.56184"
       y2="21.123615"
       gradientUnits="userSpaceOnUse" />
    <linearGradient
       inkscape:collect="always"
       xlink:href="#linearGradient4069"
       id="linearGradient4097"
       x1="18.09375"
       y1="51.59375"
       x2="37.84375"
       y2="51.59375"
       gradientUnits="userSpaceOnUse" />
  </defs>
  <sodipodi:namedview
     id="base"
     pagecolor="#ffffff"
     bordercolor="#666666"
     borderopacity="1.0"
     inkscape:pageopacity="0.0"
     inkscape:pageshadow="2"
     inkscape:zoom="7.7781746"
     inkscape:cx="20.351995"
     inkscape:cy="17.383876"
     inkscape:current-layer="layer1"
     showgrid="true"
     inkscape:document-units="px"
     inkscape:grid-bbox="true"
     inkscape:window-width="1600"
     inkscape:window-height="1172"
     inkscape:window-x="0"
     inkscape:window-y="1"
     inkscape:window-maximized="1" />
  <metadata
     id="metadata2821">
    <rdf:RDF>
      <cc:Work
         rdf:about="">
        <dc:format>image/svg+xml</dc:format>
        <dc:type
           rdf:resource="http://purl.org/dc/dcmitype/StillImage" />
        <dc:title></dc:title>
      </cc:Work>
    </rdf:RDF>
  </metadata>
  <g
     id="layer1"
     inkscape:label="Layer 1"
     inkscape:groupmode="layer">
    <g
       id="g4053"
       transform="matrix(0.86404979,0,0,0.86404979,4.0352828,2.277017)">
      <path
         d="m 31.75,-1.21875 c -0.265749,0.00399 -0.699914,0.066764 -0.9375,0.09375 -0.278995,0.031689 -0.716052,0.1087773 -0.9375,0.15625 -0.221138,0.0474062 -0.667165,0.13237554 -0.9375,0.21875 -0.236226,0.0754763 -0.666107,0.2401361 -0.90625,0.34375 -0.247453,0.10676822 -0.663428,0.32042551 -0.875,0.4375 -0.228258,0.12630794 -0.610362,0.36067028 -0.8125,0.5 -0.184519,0.12718532 -0.53294,0.37908774 -0.75,0.5625 C 25.389488,1.2663481 25.069581,1.5819437 24.90625,1.75 24.715136,1.9466425 24.429047,2.2833672 24.28125,2.46875 24.137403,2.6491781 23.869681,3.0170914 23.71875,3.25 23.564669,3.4877697 23.353415,3.8935995 23.25,4.09375 23.137196,4.3120717 22.940936,4.693347 22.84375,4.9375 22.766925,5.1305032 22.583606,5.5538196 22.5,5.84375 c -0.08116,0.2814537 -0.148341,0.7255208 -0.1875,0.9375 -0.0432,0.2338504 -0.102319,0.6700034 -0.125,0.9375 -0.02093,0.246803 -0.06409,0.6847895 -0.0625,0.9375 -3.8e-5,-0.00609 -3.97e-4,0.00188 0,0.03125 l 0,24.84375 0,0.03125 0,0.03125 c -0.0066,0.243851 -0.01489,0.623625 0,0.875 0.01823,0.307779 0.121283,0.783244 0.15625,1 0.04143,0.256799 0.121169,0.68887 0.1875,0.9375 0.06728,0.252198 0.220045,0.692979 0.3125,0.9375 0.07564,0.200057 0.238152,0.631608 0.375,0.90625 0.12643,0.253734 0.370389,0.669658 0.5,0.875 0.142296,0.225439 0.404867,0.610987 0.5625,0.8125 0.158152,0.202177 0.442564,0.52856 0.625,0.71875 0.173256,0.18062 0.513565,0.512763 0.71875,0.6875 0.217114,0.184896 0.582952,0.456729 0.78125,0.59375 0.192176,0.132791 0.589302,0.390961 0.84375,0.53125 0.260259,0.143493 0.672442,0.319868 0.875,0.40625 0.204104,0.08704 0.646503,0.284241 0.9375,0.375 0.259912,0.08106 0.695856,0.169376 0.9375,0.21875 0.281273,0.05747 0.735486,0.101413 0.96875,0.125 0.231113,0.02337 0.705667,0.09375 1,0.09375 0.294333,0 0.744028,-0.07103 0.96875,-0.09375 0.233264,-0.02359 0.687477,-0.06753 0.96875,-0.125 0.241644,-0.04937 0.677588,-0.137686 0.9375,-0.21875 0.290997,-0.09076 0.733396,-0.287959 0.9375,-0.375 0.202558,-0.08638 0.614741,-0.262757 0.875,-0.40625 0.254448,-0.140289 0.651574,-0.398459 0.84375,-0.53125 0.198298,-0.137021 0.564136,-0.408854 0.78125,-0.59375 0.205185,-0.174737 0.545494,-0.50688 0.71875,-0.6875 0.182436,-0.19019 0.466848,-0.516573 0.625,-0.71875 0.157633,-0.201513 0.420204,-0.587061 0.5625,-0.8125 0.129611,-0.205342 0.37357,-0.621266 0.5,-0.875 0.136848,-0.274642 0.299357,-0.706193 0.375,-0.90625 0.09246,-0.244521 0.245217,-0.685302 0.3125,-0.9375 0.06633,-0.24863 0.146073,-0.680701 0.1875,-0.9375 0.03497,-0.216756 0.138019,-0.692221 0.15625,-1 0.01542,-0.260353 0.0068,-0.664037 0,-0.90625 4.53e-4,0.01608 -2.52e-4,-0.02002 0,-0.03125 l 0,-0.03125 0,-24.8125 c 3.87e-4,-0.028845 3.4e-5,-0.036818 0,-0.03125 0.0016,-0.2544032 -0.04074,-0.6862395 -0.0625,-0.9375 C 41.571259,7.4590521 41.516498,7.0033939 41.46875,6.75 41.420171,6.4921911 41.32331,6.0304561 41.25,5.78125 41.167511,5.5008434 40.990237,5.0816889 40.90625,4.875 40.811842,4.6426652 40.623097,4.2331232 40.5,4 40.389081,3.7899387 40.157945,3.3943633 40,3.15625 39.856973,2.9406276 39.599216,2.57273 39.4375,2.375 39.301166,2.2083043 39.025907,1.8384073 38.8125,1.625 38.599091,1.4115912 38.229195,1.1363336 38.0625,1 37.864769,0.83828341 37.496873,0.58052683 37.28125,0.4375 c -0.238112,-0.15794443 -0.633689,-0.38908092 -0.84375,-0.5 -0.233125,-0.12309756 -0.642666,-0.31184231 -0.875,-0.40625 -0.20669,-0.0839873 -0.625845,-0.26126125 -0.90625,-0.34375 -0.249206,-0.0733107 -0.710939,-0.17017049 -0.96875,-0.21875 -0.253392,-0.047747 -0.709051,-0.102509 -0.96875,-0.125 -0.261172,-0.022619 -0.714056,-0.065931 -0.96875,-0.0625 z"
         id="path4051"
         style="font-size:medium;font-style:normal;font-variant:normal;font-weight:normal;font-stretch:normal;text-indent:0;text-align:start;text-decoration:none;line-height:normal;letter-spacing:normal;word-spacing:normal;text-transform:none;direction:ltr;block-progression:tb;writing-mode:lr-tb;text-anchor:start;color:#000000;fill:#1d1d1d;fill-opacity:1;stroke:none;stroke-width:15.35550594;marker:none;visibility:visible;display:inline;overflow:visible;enable-background:accumulate;font-family:Bitstream Vera Sans;-inkscape-font-specification:Bitstream Vera Sans"
         inkscape:original="M 31.75 -0.5625 C 31.545883 -0.55943407 31.077836 -0.52303874 30.875 -0.5 C 30.672164 -0.47696126 30.199605 -0.38654012 30 -0.34375 C 29.800395 -0.30095988 29.319455 -0.1871302 29.125 -0.125 C 28.930545 -0.062869803 28.468687 0.10662691 28.28125 0.1875 C 28.093813 0.26837309 27.647367 0.49491135 27.46875 0.59375 C 27.290133 0.69258865 26.88683 0.94664582 26.71875 1.0625 C 26.55067 1.1783542 26.155927 1.4619939 26 1.59375 C 25.844073 1.7255061 25.517276 2.0411083 25.375 2.1875 C 25.232724 2.3338917 24.908508 2.7153799 24.78125 2.875 C 24.653992 3.0346201 24.361016 3.4224357 24.25 3.59375 C 24.138984 3.7650643 23.906207 4.1936381 23.8125 4.375 C 23.718793 4.5563619 23.512997 4.9978338 23.4375 5.1875 C 23.362003 5.3771662 23.181562 5.8351025 23.125 6.03125 C 23.068438 6.2273975 22.974583 6.7055065 22.9375 6.90625 C 22.900417 7.1069935 22.829747 7.5778401 22.8125 7.78125 C 22.795847 7.9776541 22.779899 8.4411002 22.78125 8.65625 C 22.781298 8.6639245 22.781155 8.6804697 22.78125 8.6875 L 22.78125 33.53125 L 22.78125 33.59375 C 22.774787 33.823468 22.769702 34.242556 22.78125 34.4375 C 22.793653 34.646884 22.872845 35.167926 22.90625 35.375 C 22.939655 35.582074 23.039682 36.047337 23.09375 36.25 C 23.147818 36.452663 23.300817 36.928805 23.375 37.125 C 23.449183 37.321195 23.625205 37.781014 23.71875 37.96875 C 23.812295 38.156486 24.075543 38.603877 24.1875 38.78125 C 24.299457 38.958623 24.589516 39.366041 24.71875 39.53125 C 24.847984 39.696459 25.167301 40.06738 25.3125 40.21875 C 25.457699 40.37012 25.809059 40.707756 25.96875 40.84375 C 26.128441 40.979744 26.546188 41.287012 26.71875 41.40625 C 26.891312 41.525488 27.316317 41.804977 27.5 41.90625 C 27.683683 42.007523 28.119561 42.19897 28.3125 42.28125 C 28.505439 42.36353 28.987262 42.562548 29.1875 42.625 C 29.387738 42.687452 29.856995 42.80176 30.0625 42.84375 C 30.268005 42.88574 30.760063 42.947648 30.96875 42.96875 C 31.177437 42.989852 31.696499 43.03125 31.90625 43.03125 C 32.116001 43.03125 32.603813 42.989852 32.8125 42.96875 C 33.021187 42.947648 33.513245 42.88574 33.71875 42.84375 C 33.924255 42.80176 34.393512 42.687452 34.59375 42.625 C 34.793988 42.562548 35.275811 42.36353 35.46875 42.28125 C 35.661689 42.19897 36.097567 42.007523 36.28125 41.90625 C 36.464933 41.804977 36.889938 41.525488 37.0625 41.40625 C 37.235062 41.287012 37.652809 40.979744 37.8125 40.84375 C 37.972191 40.707756 38.323551 40.37012 38.46875 40.21875 C 38.613949 40.06738 38.933266 39.696459 39.0625 39.53125 C 39.191734 39.366041 39.481793 38.958623 39.59375 38.78125 C 39.705707 38.603877 39.968955 38.156486 40.0625 37.96875 C 40.156045 37.781014 40.332067 37.321195 40.40625 37.125 C 40.480433 36.928805 40.633432 36.452663 40.6875 36.25 C 40.741568 36.047337 40.841595 35.582074 40.875 35.375 C 40.908405 35.167926 40.987597 34.646884 41 34.4375 C 41.011548 34.242556 41.006463 33.823468 41 33.59375 C 40.999521 33.576734 41.000602 33.545703 41 33.53125 L 41 8.6875 C 41.000096 8.6803422 40.999952 8.6640637 41 8.65625 C 41.001342 8.4371981 40.986065 7.9811861 40.96875 7.78125 C 40.950817 7.5741821 40.882237 7.0792486 40.84375 6.875 C 40.805263 6.6707514 40.683657 6.1681442 40.625 5.96875 C 40.566343 5.7693558 40.390743 5.3175532 40.3125 5.125 C 40.234257 4.9324468 40.034549 4.4962937 39.9375 4.3125 C 39.840451 4.1287063 39.583639 3.673203 39.46875 3.5 C 39.353861 3.326797 39.069083 2.9421366 38.9375 2.78125 C 38.805917 2.6203634 38.490717 2.2407172 38.34375 2.09375 C 38.196783 1.9467828 37.817137 1.6315835 37.65625 1.5 C 37.495363 1.3684165 37.110703 1.0836388 36.9375 0.96875 C 36.764297 0.85386123 36.308794 0.59704936 36.125 0.5 C 35.941206 0.40295064 35.505053 0.20324301 35.3125 0.125 C 35.119947 0.046756987 34.668144 -0.12884291 34.46875 -0.1875 C 34.269356 -0.24615709 33.766749 -0.36776325 33.5625 -0.40625 C 33.358251 -0.44473675 32.863318 -0.51331706 32.65625 -0.53125 C 32.449182 -0.54918294 31.957824 -0.56529954 31.75 -0.5625 z "
         inkscape:radius="0.64282435"
         sodipodi:type="inkscape:offset" />
      <path
         sodipodi:nodetypes="cc"
         id="path3988"
         d="m 31.884088,8.6514235 0,24.9443855"
         style="fill:url(#linearGradient4075);stroke:url(#linearGradient4089);stroke-width:15.35550594000000046;stroke-linecap:round;stroke-linejoin:miter;stroke-miterlimit:4;stroke-opacity:1;stroke-dasharray:none;fill-opacity:1" />
    </g>
    <g
       id="g4057"
       transform="matrix(0.8765503,0,0,0.88120096,3.7460887,4.7962751)">
      <path
         sodipodi:type="inkscape:offset"
         inkscape:radius="2.207345"
         inkscape:original="M 27.96875 49.34375 C 26.655168 49.34375 25.59375 50.351173 25.59375 51.59375 C 25.59375 52.836327 26.655168 53.84375 27.96875 53.84375 C 29.282332 53.84375 30.34375 52.836327 30.34375 51.59375 C 30.34375 50.351173 29.282332 49.34375 27.96875 49.34375 z "
         style="fill:#ffffff;fill-opacity:1;stroke:#1d1d1d;stroke-width:15;stroke-linecap:round;stroke-linejoin:round;stroke-miterlimit:4;stroke-opacity:1;stroke-dasharray:none;stroke-dashoffset:11.1300004"
         id="path3994"
         d="m 27.96875,47.125 c -2.442165,0 -4.59375,1.969153 -4.59375,4.46875 0,2.499597 2.151585,4.46875 4.59375,4.46875 2.442165,0 4.59375,-1.969153 4.59375,-4.46875 0,-2.499597 -2.151585,-4.46875 -4.59375,-4.46875 z"
         transform="matrix(0.90419186,0,0,0.90419186,6.6180986,6.7088203)" />
      <path
         transform="matrix(0.90419186,0,0,0.90419186,6.6180986,6.7088203)"
         d="m 27.96875,49.34375 c -1.313582,0 -2.375,1.007423 -2.375,2.25 0,1.242577 1.061418,2.25 2.375,2.25 1.313582,0 2.375,-1.007423 2.375,-2.25 0,-1.242577 -1.061418,-2.25 -2.375,-2.25 z"
         id="path3992"
         style="fill:#ffffff;fill-opacity:1;stroke:url(#linearGradient4097);stroke-width:15;stroke-linecap:round;stroke-linejoin:round;stroke-miterlimit:4;stroke-opacity:1;stroke-dasharray:none;stroke-dashoffset:11.13000040000000013"
         inkscape:original="M 27.96875 49.34375 C 26.655168 49.34375 25.59375 50.351173 25.59375 51.59375 C 25.59375 52.836327 26.655168 53.84375 27.96875 53.84375 C 29.282332 53.84375 30.34375 52.836327 30.34375 51.59375 C 30.34375 50.351173 29.282332 49.34375 27.96875 49.34375 z "
         inkscape:radius="0"
         sodipodi:type="inkscape:offset" />
    </g>
  </g>
</svg>
