<?xml version="1.0" encoding="UTF-8" standalone="no"?>
<!-- Created with Inkscape (http://www.inkscape.org/) -->

<svg
   xmlns:dc="http://purl.org/dc/elements/1.1/"
   xmlns:cc="http://creativecommons.org/ns#"
   xmlns:rdf="http://www.w3.org/1999/02/22-rdf-syntax-ns#"
   xmlns:svg="http://www.w3.org/2000/svg"
   xmlns="http://www.w3.org/2000/svg"
   xmlns:sodipodi="http://sodipodi.sourceforge.net/DTD/sodipodi-0.dtd"
   xmlns:inkscape="http://www.inkscape.org/namespaces/inkscape"
   width="64px"
   height="64px"
   id="svg2816"
   version="1.1"
   inkscape:version="0.47 r22583"
   sodipodi:docname="team.svg"
   inkscape:export-filename="/home/blitz/documents/projects/surveyEditor-svn/icons/team.png"
   inkscape:export-xdpi="90"
   inkscape:export-ydpi="90">
  <defs
     id="defs2818">
    <linearGradient
       id="linearGradient3712">
      <stop
         style="stop-color:#333333;stop-opacity:1;"
         offset="0"
         id="stop3714" />
      <stop
         id="stop3720"
         offset="0.5"
         style="stop-color:#333333;stop-opacity:0.82499999;" />
      <stop
         style="stop-color:#333333;stop-opacity:0;"
         offset="1"
         id="stop3716" />
    </linearGradient>
    <inkscape:perspective
       sodipodi:type="inkscape:persp3d"
       inkscape:vp_x="0 : 32 : 1"
       inkscape:vp_y="0 : 1000 : 0"
       inkscape:vp_z="64 : 32 : 1"
       inkscape:persp3d-origin="32 : 21.333333 : 1"
       id="perspective2824" />
    <inkscape:perspective
       id="perspective3627"
       inkscape:persp3d-origin="0.5 : 0.33333333 : 1"
       inkscape:vp_z="1 : 0.5 : 1"
       inkscape:vp_y="0 : 1000 : 0"
       inkscape:vp_x="0 : 0.5 : 1"
       sodipodi:type="inkscape:persp3d" />
    <inkscape:perspective
       id="perspective3657"
       inkscape:persp3d-origin="0.5 : 0.33333333 : 1"
       inkscape:vp_z="1 : 0.5 : 1"
       inkscape:vp_y="0 : 1000 : 0"
       inkscape:vp_x="0 : 0.5 : 1"
       sodipodi:type="inkscape:persp3d" />
    <inkscape:perspective
       id="perspective4540"
       inkscape:persp3d-origin="0.5 : 0.33333333 : 1"
       inkscape:vp_z="1 : 0.5 : 1"
       inkscape:vp_y="0 : 1000 : 0"
       inkscape:vp_x="0 : 0.5 : 1"
       sodipodi:type="inkscape:persp3d" />
    <inkscape:perspective
       id="perspective4823"
       inkscape:persp3d-origin="0.5 : 0.33333333 : 1"
       inkscape:vp_z="1 : 0.5 : 1"
       inkscape:vp_y="0 : 1000 : 0"
       inkscape:vp_x="0 : 0.5 : 1"
       sodipodi:type="inkscape:persp3d" />
    <inkscape:perspective
       id="perspective4823-7"
       inkscape:persp3d-origin="0.5 : 0.33333333 : 1"
       inkscape:vp_z="1 : 0.5 : 1"
       inkscape:vp_y="0 : 1000 : 0"
       inkscape:vp_x="0 : 0.5 : 1"
       sodipodi:type="inkscape:persp3d" />
    <inkscape:perspective
       id="perspective3679"
       inkscape:persp3d-origin="0.5 : 0.33333333 : 1"
       inkscape:vp_z="1 : 0.5 : 1"
       inkscape:vp_y="0 : 1000 : 0"
       inkscape:vp_x="0 : 0.5 : 1"
       sodipodi:type="inkscape:persp3d" />
    <inkscape:perspective
       id="perspective3771"
       inkscape:persp3d-origin="0.5 : 0.33333333 : 1"
       inkscape:vp_z="1 : 0.5 : 1"
       inkscape:vp_y="0 : 1000 : 0"
       inkscape:vp_x="0 : 0.5 : 1"
       sodipodi:type="inkscape:persp3d" />
    <inkscape:perspective
       id="perspective3805"
       inkscape:persp3d-origin="0.5 : 0.33333333 : 1"
       inkscape:vp_z="1 : 0.5 : 1"
       inkscape:vp_y="0 : 1000 : 0"
       inkscape:vp_x="0 : 0.5 : 1"
       sodipodi:type="inkscape:persp3d" />
    <inkscape:perspective
       id="perspective3673"
       inkscape:persp3d-origin="0.5 : 0.33333333 : 1"
       inkscape:vp_z="1 : 0.5 : 1"
       inkscape:vp_y="0 : 1000 : 0"
       inkscape:vp_x="0 : 0.5 : 1"
       sodipodi:type="inkscape:persp3d" />
    <inkscape:perspective
       id="perspective3699"
       inkscape:persp3d-origin="0.5 : 0.33333333 : 1"
       inkscape:vp_z="1 : 0.5 : 1"
       inkscape:vp_y="0 : 1000 : 0"
       inkscape:vp_x="0 : 0.5 : 1"
       sodipodi:type="inkscape:persp3d" />
    <inkscape:perspective
       id="perspective3772"
       inkscape:persp3d-origin="0.5 : 0.33333333 : 1"
       inkscape:vp_z="1 : 0.5 : 1"
       inkscape:vp_y="0 : 1000 : 0"
       inkscape:vp_x="0 : 0.5 : 1"
       sodipodi:type="inkscape:persp3d" />
    <inkscape:perspective
       id="perspective3821"
       inkscape:persp3d-origin="0.5 : 0.33333333 : 1"
       inkscape:vp_z="1 : 0.5 : 1"
       inkscape:vp_y="0 : 1000 : 0"
       inkscape:vp_x="0 : 0.5 : 1"
       sodipodi:type="inkscape:persp3d" />
    <inkscape:perspective
       id="perspective3859"
       inkscape:persp3d-origin="0.5 : 0.33333333 : 1"
       inkscape:vp_z="1 : 0.5 : 1"
       inkscape:vp_y="0 : 1000 : 0"
       inkscape:vp_x="0 : 0.5 : 1"
       sodipodi:type="inkscape:persp3d" />
    <inkscape:perspective
       id="perspective4577"
       inkscape:persp3d-origin="0.5 : 0.33333333 : 1"
       inkscape:vp_z="1 : 0.5 : 1"
       inkscape:vp_y="0 : 1000 : 0"
       inkscape:vp_x="0 : 0.5 : 1"
       sodipodi:type="inkscape:persp3d" />
    <inkscape:perspective
       id="perspective4603"
       inkscape:persp3d-origin="0.5 : 0.33333333 : 1"
       inkscape:vp_z="1 : 0.5 : 1"
       inkscape:vp_y="0 : 1000 : 0"
       inkscape:vp_x="0 : 0.5 : 1"
       sodipodi:type="inkscape:persp3d" />
    <inkscape:perspective
       id="perspective4636"
       inkscape:persp3d-origin="0.5 : 0.33333333 : 1"
       inkscape:vp_z="1 : 0.5 : 1"
       inkscape:vp_y="0 : 1000 : 0"
       inkscape:vp_x="0 : 0.5 : 1"
       sodipodi:type="inkscape:persp3d" />
    <inkscape:perspective
       id="perspective4661"
       inkscape:persp3d-origin="0.5 : 0.33333333 : 1"
       inkscape:vp_z="1 : 0.5 : 1"
       inkscape:vp_y="0 : 1000 : 0"
       inkscape:vp_x="0 : 0.5 : 1"
       sodipodi:type="inkscape:persp3d" />
    <inkscape:perspective
       id="perspective4683"
       inkscape:persp3d-origin="0.5 : 0.33333333 : 1"
       inkscape:vp_z="1 : 0.5 : 1"
       inkscape:vp_y="0 : 1000 : 0"
       inkscape:vp_x="0 : 0.5 : 1"
       sodipodi:type="inkscape:persp3d" />
    <inkscape:perspective
       id="perspective4731"
       inkscape:persp3d-origin="0.5 : 0.33333333 : 1"
       inkscape:vp_z="1 : 0.5 : 1"
       inkscape:vp_y="0 : 1000 : 0"
       inkscape:vp_x="0 : 0.5 : 1"
       sodipodi:type="inkscape:persp3d" />
    <inkscape:perspective
       id="perspective4757"
       inkscape:persp3d-origin="0.5 : 0.33333333 : 1"
       inkscape:vp_z="1 : 0.5 : 1"
       inkscape:vp_y="0 : 1000 : 0"
       inkscape:vp_x="0 : 0.5 : 1"
       sodipodi:type="inkscape:persp3d" />
    <inkscape:perspective
       id="perspective4783"
       inkscape:persp3d-origin="0.5 : 0.33333333 : 1"
       inkscape:vp_z="1 : 0.5 : 1"
       inkscape:vp_y="0 : 1000 : 0"
       inkscape:vp_x="0 : 0.5 : 1"
       sodipodi:type="inkscape:persp3d" />
    <inkscape:perspective
       id="perspective4816"
       inkscape:persp3d-origin="0.5 : 0.33333333 : 1"
       inkscape:vp_z="1 : 0.5 : 1"
       inkscape:vp_y="0 : 1000 : 0"
       inkscape:vp_x="0 : 0.5 : 1"
       sodipodi:type="inkscape:persp3d" />
    <inkscape:perspective
       id="perspective4887"
       inkscape:persp3d-origin="0.5 : 0.33333333 : 1"
       inkscape:vp_z="1 : 0.5 : 1"
       inkscape:vp_y="0 : 1000 : 0"
       inkscape:vp_x="0 : 0.5 : 1"
       sodipodi:type="inkscape:persp3d" />
    <inkscape:perspective
       id="perspective4913"
       inkscape:persp3d-origin="0.5 : 0.33333333 : 1"
       inkscape:vp_z="1 : 0.5 : 1"
       inkscape:vp_y="0 : 1000 : 0"
       inkscape:vp_x="0 : 0.5 : 1"
       sodipodi:type="inkscape:persp3d" />
    <inkscape:perspective
       id="perspective4939"
       inkscape:persp3d-origin="0.5 : 0.33333333 : 1"
       inkscape:vp_z="1 : 0.5 : 1"
       inkscape:vp_y="0 : 1000 : 0"
       inkscape:vp_x="0 : 0.5 : 1"
       sodipodi:type="inkscape:persp3d" />
    <filter
       inkscape:collect="always"
       id="filter4953">
      <feGaussianBlur
         inkscape:collect="always"
         stdDeviation="0.80599483"
         id="feGaussianBlur4955" />
    </filter>
    <inkscape:perspective
       id="perspective4965"
       inkscape:persp3d-origin="0.5 : 0.33333333 : 1"
       inkscape:vp_z="1 : 0.5 : 1"
       inkscape:vp_y="0 : 1000 : 0"
       inkscape:vp_x="0 : 0.5 : 1"
       sodipodi:type="inkscape:persp3d" />
    <inkscape:perspective
       id="perspective5076"
       inkscape:persp3d-origin="0.5 : 0.33333333 : 1"
       inkscape:vp_z="1 : 0.5 : 1"
       inkscape:vp_y="0 : 1000 : 0"
       inkscape:vp_x="0 : 0.5 : 1"
       sodipodi:type="inkscape:persp3d" />
    <inkscape:perspective
       id="perspective5133"
       inkscape:persp3d-origin="0.5 : 0.33333333 : 1"
       inkscape:vp_z="1 : 0.5 : 1"
       inkscape:vp_y="0 : 1000 : 0"
       inkscape:vp_x="0 : 0.5 : 1"
       sodipodi:type="inkscape:persp3d" />
    <filter
       inkscape:collect="always"
       id="filter5206"
       x="-0.12341229"
       width="1.2468246"
       y="-0.09630389"
       height="1.1926078">
      <feGaussianBlur
         inkscape:collect="always"
         stdDeviation="0.79699528"
         id="feGaussianBlur5208" />
    </filter>
    <filter
       inkscape:collect="always"
       id="filter5216">
      <feGaussianBlur
         inkscape:collect="always"
         stdDeviation="0.31015636"
         id="feGaussianBlur5218" />
    </filter>
    <filter
       inkscape:collect="always"
       id="filter5222">
      <feGaussianBlur
         inkscape:collect="always"
         stdDeviation="0.30890109"
         id="feGaussianBlur5224" />
    </filter>
    <filter
       inkscape:collect="always"
       id="filter5284"
       x="-0.11804776"
       width="1.2360955"
       y="-0.18857402"
       height="1.377148">
      <feGaussianBlur
         inkscape:collect="always"
         stdDeviation="0.7393356"
         id="feGaussianBlur5286" />
    </filter>
    <filter
       inkscape:collect="always"
       id="filter5340"
       x="-0.094413582"
       width="1.1888272"
       y="-0.16460986"
       height="1.3292197">
      <feGaussianBlur
         inkscape:collect="always"
         stdDeviation="0.63390766"
         id="feGaussianBlur5342" />
    </filter>
    <filter
       inkscape:collect="always"
       id="filter5348">
      <feGaussianBlur
         inkscape:collect="always"
         stdDeviation="0.29363685"
         id="feGaussianBlur5350" />
    </filter>
    <filter
       inkscape:collect="always"
       id="filter5434">
      <feGaussianBlur
         inkscape:collect="always"
         stdDeviation="0.6532038"
         id="feGaussianBlur5436" />
    </filter>
    <inkscape:perspective
       id="perspective5461"
       inkscape:persp3d-origin="0.5 : 0.33333333 : 1"
       inkscape:vp_z="1 : 0.5 : 1"
       inkscape:vp_y="0 : 1000 : 0"
       inkscape:vp_x="0 : 0.5 : 1"
       sodipodi:type="inkscape:persp3d" />
    <filter
       inkscape:collect="always"
       id="filter5492">
      <feGaussianBlur
         inkscape:collect="always"
         stdDeviation="0.64482313"
         id="feGaussianBlur5494" />
    </filter>
  </defs>
  <sodipodi:namedview
     id="base"
     pagecolor="#ffffff"
     bordercolor="#666666"
     borderopacity="1.0"
     inkscape:pageopacity="0.0"
     inkscape:pageshadow="2"
     inkscape:zoom="7.7781746"
     inkscape:cx="14.959227"
     inkscape:cy="40.887074"
     inkscape:current-layer="layer1"
     showgrid="true"
     inkscape:document-units="px"
     inkscape:grid-bbox="true"
     inkscape:window-width="1600"
     inkscape:window-height="1173"
     inkscape:window-x="1600"
     inkscape:window-y="0"
     inkscape:window-maximized="1"
     inkscape:snap-global="false">
    <inkscape:grid
       type="xygrid"
       id="grid4791" />
  </sodipodi:namedview>
  <metadata
     id="metadata2821">
    <rdf:RDF>
      <cc:Work
         rdf:about="">
        <dc:format>image/svg+xml</dc:format>
        <dc:type
           rdf:resource="http://purl.org/dc/dcmitype/StillImage" />
        <dc:title></dc:title>
      </cc:Work>
    </rdf:RDF>
  </metadata>
  <g
     id="layer1"
     inkscape:label="Layer 1"
     inkscape:groupmode="layer">
    <path
       sodipodi:type="inkscape:offset"
       inkscape:radius="1.2890266"
       inkscape:original="M -18.875 34.125 A 5.8525955 5.8525955 0 0 0 -23.84375 37.375 L -28.1875 45.96875 A 5.8558531 5.8558531 0 0 0 -28.4375 46.625 L -28.5 46.59375 L -30.40625 50.03125 L -34.96875 58.25 L -40.65625 66.09375 C -42.18614 67.116404 -42.647654 69.43886 -41.625 70.96875 C -40.602347 72.49864 -38.27989 72.960154 -36.75 71.9375 L -30.40625 63.65625 L -29.71875 63.1875 L -29.3125 62.4375 L -26.21875 56.875 L -22.875 59.3125 L -22.875 70 C -22.90115 71.849094 -21.224279 73.5625 -19.375 73.5625 C -17.525721 73.5625 -15.848849 71.849094 -15.875 70 L -15.875 57.5625 L -15.875 55.78125 L -17.3125 54.71875 L -19.34375 53.25 A 5.8558531 5.8558531 0 0 0 -17.75 51.28125 L -14.625 45.09375 L -13.8125 45.78125 L -13.03125 46.40625 L -12.0625 46.53125 L -5.0625 47.53125 A 3.50035 3.50035 0 1 0 -4.0625 40.625 L -10.03125 39.78125 L -13.78125 36.65625 A 5.8525955 5.8525955 0 0 0 -18.875 34.125 z "
       style="font-size:medium;font-style:normal;font-variant:normal;font-weight:normal;font-stretch:normal;text-indent:0;text-align:start;text-decoration:none;line-height:normal;letter-spacing:normal;word-spacing:normal;text-transform:none;direction:ltr;block-progression:tb;writing-mode:lr-tb;text-anchor:start;color:#000000;fill:#5f5f5f;fill-opacity:1;stroke:none;stroke-width:7;marker:none;visibility:visible;display:inline;overflow:visible;enable-background:accumulate;font-family:Bitstream Vera Sans;-inkscape-font-specification:Bitstream Vera Sans;filter:url(#filter5492)"
       id="path5482"
       d="m -18.9375,32.84375 c -0.10104,0.0048 -0.36825,0.01977 -0.46875,0.03125 -0.1005,0.01148 -0.369236,0.04436 -0.46875,0.0625 -0.09951,0.01814 -0.370661,0.06904 -0.46875,0.09375 -0.09809,0.02471 -0.372519,0.125079 -0.46875,0.15625 -0.09623,0.03117 -0.343553,0.118753 -0.4375,0.15625 -0.09395,0.0375 -0.346252,0.143843 -0.4375,0.1875 -0.09125,0.04366 -0.318105,0.169127 -0.40625,0.21875 -0.08815,0.04962 -0.321597,0.194629 -0.40625,0.25 -0.08465,0.05537 -0.325463,0.220377 -0.40625,0.28125 -0.08079,0.06087 -0.298437,0.215143 -0.375,0.28125 -0.07656,0.06611 -0.271749,0.241452 -0.34375,0.3125 -0.072,0.07105 -0.245379,0.268075 -0.3125,0.34375 -0.06712,0.07567 -0.250555,0.295032 -0.3125,0.375 -0.06195,0.07997 -0.224756,0.291093 -0.28125,0.375 -0.05649,0.08391 -0.199206,0.318774 -0.25,0.40625 -0.04789,0.08248 -0.167881,0.305593 -0.21875,0.40625 -0.0031,0.0061 0.0026,0.02607 0,0.03125 l -4.34375,8.5625 a 1.2891555,1.2891555 0 0 0 -0.03125,0.0625 c -0.02557,0.05664 -0.05295,0.181353 -0.09375,0.28125 a 1.2891555,1.2891555 0 0 0 -0.0625,0.125 1.2891555,1.2891555 0 0 0 -0.09375,0.125 l -1.90625,3.4375 -4.5625,8.21875 -5.59375,7.71875 c -1.878769,1.536568 -2.372451,4.290564 -1,6.34375 1.457169,2.179926 4.476324,2.76967 6.65625,1.3125 a 1.2891555,1.2891555 0 0 0 0.3125,-0.28125 l 6.25,-8.125 L -29,64.25 a 1.2891555,1.2891555 0 0 0 0.40625,-0.4375 l 0.40625,-0.75 2.40625,-4.3125 1.625,1.21875 0,10 0,0.03125 c -0.01939,2.625475 2.146424,4.84375 4.78125,4.84375 2.634826,0 4.800646,-2.218274 4.78125,-4.84375 -7.9e-5,-0.01063 1.5e-4,-0.02061 0,-0.03125 l 0,-12.40625 0,-1.78125 a 1.2891555,1.2891555 0 0 0 -0.5,-1.03125 l -1.4375,-1.0625 a 1.2891555,1.2891555 0 0 0 -0.03125,0 l -0.8125,-0.59375 c 0.120371,-0.15585 0.32655,-0.438572 0.40625,-0.5625 0.08661,-0.13467 0.293951,-0.497302 0.375,-0.65625 0.0029,-0.0058 -0.0026,-0.02605 0,-0.03125 l 2.40625,-4.71875 0.34375,0.28125 a 1.2891555,1.2891555 0 0 0 0.65625,0.28125 l 0.9375,0.125 0.03125,0 6.875,0.96875 c 0.015212,0.0035 0.060946,0.02506 0.09375,0.03125 0.1271145,0.02398 0.3149865,0.05522 0.375,0.0625 0.075501,0.0092 0.4239577,0.02992 0.5,0.03125 0.076042,0.0013 0.424225,-0.02474 0.5,-0.03125 0.075775,-0.0065 0.4252982,-0.04822 0.5,-0.0625 0.074702,-0.01428 0.3959161,-0.07185 0.46875,-0.09375 0.072834,-0.0219 0.3985586,-0.158219 0.46875,-0.1875 0.070191,-0.02928 0.3706977,-0.182395 0.4375,-0.21875 0.066802,-0.03636 0.3747974,-0.206958 0.4375,-0.25 0.062703,-0.04304 0.3170639,-0.231979 0.375,-0.28125 0.057936,-0.04927 0.32244676,-0.288774 0.375,-0.34375 0.0525532,-0.05498 0.26588856,-0.314904 0.3125,-0.375 0.0466114,-0.0601 0.24107614,-0.341672 0.28125,-0.40625 0.0401739,-0.06458 0.21669102,-0.369128 0.25,-0.4375 0.03330898,-0.06837 0.1614102,-0.397311 0.1875,-0.46875 0.0260898,-0.07144 0.10640688,-0.395004 0.125,-0.46875 0.0185931,-0.07375 0.11410132,-0.393481 0.125,-0.46875 0.0108987,-0.07527 0.0281617,-0.424009 0.03125,-0.5 0.003088,-0.07599 0.004755,-0.424095 0,-0.5 -0.004755,-0.0759 -0.0499525,-0.424988 -0.0625,-0.5 -0.0125475,-0.07501 -0.0735433,-0.395429 -0.09375,-0.46875 -0.0202067,-0.07332 -0.12859904,-0.397901 -0.15625,-0.46875 -0.027651,-0.07085 -0.18394889,-0.369875 -0.21875,-0.4375 -0.03480111,-0.06762 -0.20841891,-0.373819 -0.25,-0.4375 -0.0415811,-0.06368 -0.23333121,-0.347191 -0.28125,-0.40625 -0.0479188,-0.05906 -0.29000318,-0.32119 -0.34375,-0.375 -0.0537468,-0.05381 -0.2847468,-0.264512 -0.34375,-0.3125 -0.059003,-0.04799 -0.3426181,-0.239594 -0.40625,-0.28125 -0.063632,-0.04166 -0.3699161,-0.21512 -0.4375,-0.25 -0.067584,-0.03488 -0.366683,-0.191016 -0.4375,-0.21875 C -2.602067,39.628516 -2.9267032,39.520292 -3,39.5 c -0.073297,-0.02029 -0.425003,-0.08111 -0.5,-0.09375 -0.06026,-0.01015 -0.2470924,-0.04961 -0.375,-0.0625 l -0.09375,0 L -9.5,38.5625 -12.875,35.75 c -0.05068,-0.06885 -0.0964,-0.151071 -0.125,-0.1875 -0.05959,-0.07589 -0.216975,-0.271787 -0.28125,-0.34375 -0.06428,-0.07196 -0.243792,-0.276006 -0.3125,-0.34375 -0.06871,-0.06774 -0.270886,-0.217997 -0.34375,-0.28125 -0.07286,-0.06325 -0.267023,-0.253993 -0.34375,-0.3125 -0.07673,-0.05851 -0.294719,-0.196474 -0.375,-0.25 -0.08028,-0.05353 -0.291488,-0.20167 -0.375,-0.25 -0.08351,-0.04833 -0.319842,-0.175811 -0.40625,-0.21875 -0.08641,-0.04294 -0.317294,-0.150125 -0.40625,-0.1875 -0.08896,-0.03737 -0.315104,-0.124588 -0.40625,-0.15625 -0.09115,-0.03166 -0.34453,-0.09918 -0.4375,-0.125 -0.09297,-0.02582 -0.343081,-0.105125 -0.4375,-0.125 -0.09442,-0.01987 -0.373261,-0.04865 -0.46875,-0.0625 -0.09549,-0.01385 -0.341325,-0.05473 -0.4375,-0.0625 -0.09617,-0.0078 -0.341026,0.0017 -0.4375,0 -0.09647,-0.0017 -0.372365,-0.0045 -0.46875,0 z"
       transform="translate(50.397429,-10.928014)" />
    <path
       sodipodi:type="inkscape:offset"
       inkscape:radius="-0.53732669"
       inkscape:original="M -1.40625 -15.34375 A 1.6365273 1.6365273 0 0 0 -1.5625 -15.3125 A 1.6365273 1.6365273 0 0 0 -1.9375 -15.21875 L -19 -8.3125 A 1.6365273 1.6365273 0 0 0 -20 -6.9375 L -20.15625 -5.21875 A 1.6365273 1.6365273 0 0 0 -19.09375 -3.53125 L -1.625 3 A 1.6365273 1.6365273 0 0 0 0.5625 1.4375 L 0.3125 -13.71875 A 1.6365273 1.6365273 0 0 0 -1.40625 -15.34375 z "
       style="fill:#5f5f5f;fill-opacity:1;stroke:none;filter:url(#filter5434)"
       id="path5352"
       d="m -1.375,-14.8125 c -0.034606,0.0069 -0.028272,0.02265 -0.0625,0.03125 a 0.53738043,0.53738043 0 0 1 -0.0625,0 c -0.042545,0.0054 -0.02035,-0.0079 -0.0625,0 -0.04215,0.0079 -0.020892,0.02085 -0.0625,0.03125 -0.041608,0.0104 -0.021581,-0.01285 -0.0625,0 -0.040919,0.01285 -0.022412,0.01601 -0.0625,0.03125 l -17.03125,6.90625 -0.03125,0 c -0.01207,0.00501 -0.03153,0.015749 -0.0625,0.03125 -0.04424,0.022144 -0.01987,0.00614 -0.0625,0.03125 -0.04263,0.025111 -0.02169,0.00329 -0.0625,0.03125 -0.04081,0.02796 -0.02369,0.03182 -0.0625,0.0625 -0.03881,0.03068 0.0054,-0.00201 -0.03125,0.03125 -0.03663,0.033256 -0.02822,0.026822 -0.0625,0.0625 -0.03428,0.035678 -0.03074,0.024567 -0.0625,0.0625 -0.03176,0.037933 -0.0022,0.022489 -0.03125,0.0625 -0.0291,0.040011 -0.0362,0.020597 -0.0625,0.0625 -0.0263,0.041903 -0.0079,0.0189 -0.03125,0.0625 -0.02338,0.0436 -0.0109,0.017406 -0.03125,0.0625 -0.02035,0.045094 -0.01402,0.016123 -0.03125,0.0625 -0.01723,0.046377 -0.01722,0.015056 -0.03125,0.0625 -0.01403,0.047444 0.01075,0.045459 0,0.09375 -0.01075,0.048291 -0.02381,0.013588 -0.03125,0.0625 -0.0074,0.048912 0.0041,0.013195 0,0.0625 a 0.53738043,0.53738043 0 0 1 0,0.03125 l -0.15625,1.71875 c -0.0028,0.029541 0.0016,0.00162 0,0.03125 -0.0016,0.029629 3.36e-4,0.00158 0,0.03125 -3.36e-4,0.029668 -8.79e-4,0.032843 0,0.0625 8.79e-4,0.029657 -0.0021,0.00165 0,0.03125 0.0021,0.029596 -0.0033,0.033015 0,0.0625 0.0033,0.029485 -0.0045,0.00192 0,0.03125 0.0045,0.029325 0.02555,0.033384 0.03125,0.0625 0.0057,0.029116 -0.0069,0.00239 0,0.03125 0.0069,0.028859 -0.0081,0.0027 0,0.03125 0.0081,0.028552 0.02202,0.034302 0.03125,0.0625 0.0092,0.028198 -0.01037,0.00345 0,0.03125 0.01037,0.027797 0.01975,0.035151 0.03125,0.0625 0.0115,0.027349 -0.01261,0.00439 0,0.03125 0.01261,0.026855 0.01755,0.00493 0.03125,0.03125 0.0137,0.026316 0.01648,0.00552 0.03125,0.03125 0.01477,0.025734 -0.01581,0.037393 0,0.0625 0.01581,0.025107 0.01443,0.00681 0.03125,0.03125 0.01682,0.024439 0.01344,0.00752 0.03125,0.03125 0.01781,0.02373 0.01248,0.00827 0.03125,0.03125 0.01877,0.022981 0.01156,0.00906 0.03125,0.03125 0.01969,0.022194 0.01067,0.00988 0.03125,0.03125 0.02058,0.021369 0.0098,0.010741 0.03125,0.03125 0.02144,0.020509 0.009,0.011636 0.03125,0.03125 0.02226,0.019614 0.0082,0.012564 0.03125,0.03125 0.02305,0.018686 0.0075,0.013523 0.03125,0.03125 0.02379,0.017727 0.0068,0.014511 0.03125,0.03125 0.0245,0.016739 0.03734,0.015528 0.0625,0.03125 0.02516,0.015722 0.0055,-0.014679 0.03125,0 0.02578,0.014679 0.0049,0.017639 0.03125,0.03125 0.02636,0.013611 0.0044,0.01873 0.03125,0.03125 0.0269,0.01252 0.03511,-0.011409 0.0625,0 0.02739,0.011409 0.0034,0.020972 0.03125,0.03125 L -1.4375,2.5 c 0.041096,0.014698 0.020593,-0.012198 0.0625,0 0.041907,0.012198 0.019935,0.021597 0.0625,0.03125 0.042565,0.00965 0.019431,-0.00707 0.0625,0 0.043069,0.00707 0.019084,0.026782 0.0625,0.03125 0.043416,0.00447 0.018893,-0.00185 0.0625,0 0.043607,0.00185 0.018861,7.822e-4 0.0625,0 0.043639,-7.822e-4 0.018988,0.00341 0.0625,0 0.0435124,-0.00341 0.0192716,0.00602 0.0625,0 0.0432284,-0.00602 0.0509624,-0.022638 0.09375,-0.03125 0.0427876,-0.00861 0.0203085,0.011172 0.0625,0 0.0421915,-0.011172 0.0210575,-0.017558 0.0625,-0.03125 0.0414425,-0.013692 0.0219568,-0.015089 0.0625,-0.03125 0.0405432,-0.016161 0.0230032,0.018573 0.0625,0 0.0394968,-0.018573 -0.007057,-0.010333 0.03125,-0.03125 0.0383072,-0.020917 0.0255214,-0.039315 0.0625,-0.0625 0.0369786,-0.023185 0.0269841,-0.00588 0.0625,-0.03125 0.0355159,-0.025368 0.0285756,-0.00379 0.0625,-0.03125 0.0339244,-0.02746 -9.5989e-4,-0.0018 0.03125,-0.03125 0.0322099,-0.029453 0.0321215,-0.031162 0.0625,-0.0625 0.0303785,-0.031338 0.002813,0.00186 0.03125,-0.03125 0.028437,-0.03311 0.0361077,-0.027738 0.0625,-0.0625 0.0263923,-0.034762 0.006998,-0.026213 0.03125,-0.0625 0.0242519,-0.036287 0.009226,-0.024818 0.03125,-0.0625 0.0220236,-0.037682 0.0115346,0.00769 0.03125,-0.03125 0.01971536,-0.038939 0.01391437,-0.022445 0.03125,-0.0625 0.01733563,-0.040055 0.01635698,-0.021474 0.03125,-0.0625 0.01489302,-0.041026 -0.0123964,-0.020652 0,-0.0625 C -0.0188536,1.7394018 -0.00985481,1.7612685 0,1.71875 0.00985481,1.6762315 -0.00727749,1.6992846 0,1.65625 0.00727749,1.6132154 0.02657623,1.6058947 0.03125,1.5625 c 0.0046738,-0.043395 -0.0020531,-0.018903 0,-0.0625 0.0020531,-0.043597 5.7501e-4,-0.018858 0,-0.0625 l -0.25,-15.15625 c -2.1142e-4,-0.03658 0.002057,-0.02598 0,-0.0625 -0.002057,-0.03652 0.003897,0.0051 0,-0.03125 -0.003897,-0.03637 -0.0255232,-0.02637 -0.03125,-0.0625 -0.005727,-0.03613 0.007542,-0.02671 0,-0.0625 -0.007542,-0.03579 0.009339,-0.02713 0,-0.0625 -0.009339,-0.03537 -0.0201389,0.0036 -0.03125,-0.03125 -0.0111111,-0.03485 0.0128553,-0.02826 0,-0.0625 -0.0128553,-0.03424 -0.0166832,-0.02895 -0.03125,-0.0625 -0.0145668,-0.03355 -0.0150089,0.0015 -0.03125,-0.03125 -0.0162411,-0.03277 -0.0133759,-0.03059 -0.03125,-0.0625 -0.0178741,-0.03191 -0.0117885,-2.8e-4 -0.03125,-0.03125 -0.0194615,-0.03097 -0.0102506,-0.03255 -0.03125,-0.0625 -0.0209994,-0.02995 -0.008766,-0.0024 -0.03125,-0.03125 -0.0224837,-0.02885 -0.007339,-0.03482 -0.03125,-0.0625 -0.0239108,-0.02768 -0.005973,-0.0048 -0.03125,-0.03125 -0.025277,-0.02644 -0.004671,-0.0061 -0.03125,-0.03125 -0.0265788,-0.02513 -0.0346872,-0.0075 -0.0625,-0.03125 -0.0278128,-0.02376 -0.002274,-0.04018 -0.03125,-0.0625 -0.028976,-0.02232 -0.001185,-0.01042 -0.03125,-0.03125 -0.0300654,-0.02083 -0.0314218,-0.01196 -0.0625,-0.03125 -0.0310782,-0.01929 7.6189e-4,0.0177 -0.03125,0 -0.0320119,-0.0177 -0.029636,-0.01519 -0.0625,-0.03125 -0.032864,-0.01606 -0.0288677,-0.01687 -0.0625,-0.03125 -0.0336323,-0.01438 0.003065,-0.01859 -0.03125,-0.03125 -0.034315,-0.01266 -0.0275897,0.01092 -0.0625,0 -0.03491,-0.01092 -0.027083,-0.02211 -0.0625,-0.03125 -0.035417,-0.0091 0.00458,0.0073 -0.03125,0 -0.035833,-0.0073 -0.026342,0.0055 -0.0625,0 -0.036158,-0.0055 -0.02611,-0.02756 -0.0625,-0.03125 -0.03639,-0.0037 -0.02597,0.0019 -0.0625,0 -0.03653,-0.0019 0.00533,7e-6 -0.03125,0 -0.036577,-7e-6 -0.025969,-0.0018 -0.0625,0 z"
       transform="translate(62.996786,17.099128)" />
    <path
       sodipodi:type="inkscape:offset"
       inkscape:radius="0.90909094"
       inkscape:original="M -27.1875 -11.8125 C -30.170595 -11.8125 -32.546092 -10.606248 -33.75 -8.875 C -34.954276 -7.143204 -35.03125 -2.6875 -35.03125 -2.6875 L -18.9375 -2.59375 C -18.9375 -2.59375 -19.397056 -7.083988 -20.3125 -8.46875 C -21.80051 -10.719611 -24.204405 -11.8125 -27.1875 -11.8125 z "
       style="fill:#5f5f5f;fill-opacity:1;stroke:none;filter:url(#filter5340)"
       id="path5344"
       d="m -27.1875,-12.71875 c -3.228163,0 -5.901575,1.283557 -7.3125,3.3125 -0.805597,1.1584802 -1.073248,2.7711989 -1.25,4.15625 -0.176752,1.3850511 -0.1875,2.53125 -0.1875,2.53125 a 0.90918185,0.90918185 0 0 0 0.90625,0.9375 l 16.09375,0.09375 a 0.90918185,0.90918185 0 0 0 0.90625,-1 c 0,0 -0.107807,-1.1356716 -0.34375,-2.46875 -0.235943,-1.3330784 -0.519087,-2.8014138 -1.1875,-3.8125 -1.661749,-2.513669 -4.419868,-3.75 -7.625,-3.75 z"
       transform="translate(62.868221,16.841998)" />
    <path
       sodipodi:type="inkscape:offset"
       inkscape:radius="0.2875903"
       inkscape:original="M -33.625 -2.59375 C -33.639269 -2.5912092 -33.610828 -2.5655364 -33.625 -2.5625 C -33.639172 -2.5594636 -33.642192 -2.5660283 -33.65625 -2.5625 C -33.670176 -2.5584841 -33.673722 -2.5669986 -33.6875 -2.5625 C -33.701113 -2.5575241 -33.705319 -2.5679471 -33.71875 -2.5625 C -33.732181 -2.5570529 -33.705517 -2.5371617 -33.71875 -2.53125 C -33.731983 -2.5253383 -33.736981 -2.5376191 -33.75 -2.53125 C -33.762789 -2.5244312 -33.768706 -2.5385102 -33.78125 -2.53125 C -33.793794 -2.5239898 -33.768966 -2.5076928 -33.78125 -2.5 C -33.793534 -2.4923072 -33.800492 -2.5081161 -33.8125 -2.5 C -33.823914 -2.4910674 -33.832654 -2.4780748 -33.84375 -2.46875 C -33.854514 -2.4590444 -33.864581 -2.4788248 -33.875 -2.46875 C -33.885419 -2.4586752 -33.864938 -2.4479316 -33.875 -2.4375 C -33.884693 -2.4267242 -33.896939 -2.417357 -33.90625 -2.40625 C -33.914765 -2.3945216 -33.929398 -2.3870179 -33.9375 -2.375 C -33.945178 -2.3627071 -33.930255 -2.3563029 -33.9375 -2.34375 C -33.944745 -2.3311971 -33.961947 -2.3565477 -33.96875 -2.34375 C -33.975553 -2.3309523 -33.962397 -2.3255269 -33.96875 -2.3125 C -33.974646 -2.2992597 -33.963319 -2.2946877 -33.96875 -2.28125 C -34.200461 -1.6514471 -34.375 -0.95924512 -34.375 -0.25 C -34.375 3.3477101 -31.105334 6.25 -27.15625 6.25 C -23.206828 6.25 -19.90625 3.3513752 -19.90625 -0.25 C -19.90625 -0.90716378 -20.032815 -1.5355716 -20.25 -2.15625 C -20.255045 -2.1716363 -20.24436 -2.1723217 -20.25 -2.1875 C -20.256227 -2.2024473 -20.243196 -2.2040564 -20.25 -2.21875 C -20.256804 -2.2334436 -20.27388 -2.2043323 -20.28125 -2.21875 C -20.28862 -2.2331677 -20.273324 -2.2358801 -20.28125 -2.25 C -20.289719 -2.2638007 -20.3035 -2.2677893 -20.3125 -2.28125 C -20.322017 -2.2943502 -20.30248 -2.2997801 -20.3125 -2.3125 C -20.32252 -2.3252199 -20.333243 -2.3001797 -20.34375 -2.3125 C -20.354257 -2.3248203 -20.332771 -2.331848 -20.34375 -2.34375 C -20.355184 -2.3552157 -20.363129 -2.363988 -20.375 -2.375 C -20.387291 -2.3855417 -20.393558 -2.3649447 -20.40625 -2.375 C -20.418942 -2.3850553 -20.393176 -2.3966962 -20.40625 -2.40625 C -20.419324 -2.4158038 -20.424065 -2.3972123 -20.4375 -2.40625 C -20.451277 -2.414758 -20.454652 -2.4295347 -20.46875 -2.4375 C -20.483147 -2.4449106 -20.485325 -2.4306553 -20.5 -2.4375 C -20.51493 -2.4437684 -20.516088 -2.4630674 -20.53125 -2.46875 C -20.546622 -2.4738382 -20.546941 -2.4642639 -20.5625 -2.46875 C -20.578059 -2.4732361 -20.578029 -2.4648729 -20.59375 -2.46875 C -20.60961 -2.4720123 -20.609025 -2.4661074 -20.625 -2.46875 C -20.640975 -2.4713926 -20.608934 -2.4979811 -20.625 -2.5 C -20.641066 -2.5020189 -20.640118 -2.4986079 -20.65625 -2.5 C -20.672382 -2.5013921 -20.671326 -2.4992369 -20.6875 -2.5 L -33.53125 -2.59375 A 0.38535613 0.38535613 0 0 1 -33.5625 -2.59375 C -33.585116 -2.59375 -33.571167 -2.5949791 -33.59375 -2.59375 C -33.608099 -2.5917078 -33.610731 -2.5962908 -33.625 -2.59375 z "
       style="fill:#5f5f5f;fill-opacity:1;stroke:none;filter:url(#filter5284)"
       id="path5226"
       d="m -33.71875,-2.875 c -7.3e-5,2.46e-5 0.0033,0.029794 0,0.03125 -0.0065,0.00291 -0.02154,-0.00435 -0.03125,0 -0.0097,0.00435 -0.03113,-6.57e-5 -0.03125,0 -0.01446,0.00265 -0.01865,-0.00511 -0.03125,0 -0.01741,0.00706 -0.04689,0.05224 -0.0625,0.0625 -0.01236,0.00241 -0.01967,-0.00401 -0.03125,0 -0.01158,0.00401 -0.02104,-0.00591 -0.03125,0 -0.0049,0.00286 0.0068,0.026164 0,0.03125 -0.0096,0.00477 -0.02321,-0.00543 -0.03125,0 a 0.28761905,0.28761905 0 0 0 0,0.03125 c -0.01149,0.00448 -0.02057,-0.00535 -0.03125,0 -2.04e-4,2.08e-4 0.01068,0.015939 0,0.03125 -0.0053,0.00766 -0.02592,-0.00766 -0.03125,0 -0.0089,0.00625 -0.02424,-0.00678 -0.03125,0 -0.02027,0.019604 -0.01632,0.061355 -0.03125,0.09375 -1.31e-4,6.42e-5 -0.02452,-0.00489 -0.03125,0 a 0.28761905,0.28761905 0 0 0 0,0.03125 c -0.02381,0.017333 -0.06219,0.03093 -0.0625,0.03125 -0.005,0.00668 0.0027,0.026511 0,0.03125 -0.0078,0.010116 0.0075,0.020158 0,0.03125 -0.0038,0.00555 -0.02906,-0.00412 -0.03125,0 -0.0058,0.010968 0.0037,0.018757 0,0.03125 -0.0076,0.032015 -0.0023,0.065908 0,0.09375 0.0012,0.051082 -0.03238,0.1218585 -0.03125,0.125 0.002,0.00635 -0.02756,-0.088064 0,-0.15625 -0.239129,0.6499666 -0.40625,1.3685726 -0.40625,2.125 0,3.771955 3.410011,6.78125 7.5,6.78125 4.090137,0 7.53125,-3.0041615 7.53125,-6.78125 0,-0.69408899 -0.118082,-1.3550797 -0.34375,-2 -0.0019,-0.013783 0.004,-0.0205 0,-0.03125 A 0.28761905,0.28761905 0 0 0 -20,-2.3125 c -0.0026,-0.011355 0.0042,-0.02208 0,-0.03125 -0.009,-0.019538 -0.03075,-0.061903 -0.03125,-0.0625 -1.16e-4,-1.379e-4 -0.02464,0.00551 -0.03125,0 -0.0036,-0.010091 0.0042,-0.021975 0,-0.03125 -0.0088,-0.0073 -0.02247,0.00729 -0.03125,0 -0.0059,-0.00486 0.0044,-0.027597 0,-0.03125 -0.0047,-0.00774 0.0049,-0.025085 0,-0.03125 l -0.03125,0 c -0.0098,-0.00967 3.16e-4,-0.030991 0,-0.03125 -0.0096,-0.00871 -0.03158,-2.482e-4 -0.03125,0 2.63e-4,1.986e-4 -0.0185,-0.024115 -0.03125,-0.03125 -0.0087,-0.013553 2.13e-4,-0.031005 0,-0.03125 -0.0094,-0.0097 -0.02436,0.00546 -0.03125,0 -0.0037,-0.00361 0.0043,-0.027211 0,-0.03125 -0.0025,-0.00328 -0.02714,0.00485 -0.03125,0 -0.0082,-0.0097 -0.01644,-0.018295 -0.03125,-0.03125 -0.01481,-0.012955 -0.0096,-0.019045 -0.03125,-0.03125 a 0.28761905,0.28761905 0 0 0 -0.03125,0 c -0.0116,-0.00722 -0.01671,0.0061 -0.03125,0 0.01292,0.00316 0.01949,0.026984 0.03125,0.03125 -0.02236,-0.00654 -0.03952,0.00191 -0.0625,0 0.0077,6.365e-4 0.02353,-0.032471 0.03125,-0.03125 -0.0096,-0.00446 -0.01872,0.00224 -0.03125,0 -0.0215,-0.016384 4.04e-4,-0.050636 -0.03125,-0.0625 -0.0099,-0.00327 -0.01865,0.00156 -0.03125,0 -0.0051,-0.00413 -0.03114,5.1e-5 -0.03125,0 -0.01182,-0.00491 -0.03145,-6.39e-5 -0.03125,0 -0.0097,-0.00239 -0.01692,1.885e-4 -0.03125,0 -0.0032,-0.00115 8.2e-5,-0.031228 0,-0.03125 -4.11e-4,-1.096e-4 -0.0196,0.00146 -0.03125,0 -0.0091,-0.00114 -0.01971,1.954e-4 -0.03125,0 -0.0115,-9.923e-4 -0.07013,8.593e-4 -0.0625,0 l -12.84375,-0.09375 0,0.28125 0,0.28125 c 0.02526,-2.562e-4 -0.05651,0 -0.03125,0 l 0,-0.28125 0,-0.28125 c -0.0069,-9.362e-4 -0.08548,-0.00704 -0.125,0 -0.01276,0.00227 -0.03088,-1.232e-4 -0.03125,0 z"
       transform="translate(62.868221,16.970562)" />
    <path
       style="font-size:medium;font-style:normal;font-variant:normal;font-weight:normal;font-stretch:normal;text-indent:0;text-align:start;text-decoration:none;line-height:normal;letter-spacing:normal;word-spacing:normal;text-transform:none;direction:ltr;block-progression:tb;writing-mode:lr-tb;text-anchor:start;color:#000000;fill:#5f5f5f;fill-opacity:1;stroke:none;stroke-width:7;marker:none;visibility:visible;display:inline;overflow:visible;filter:url(#filter5206);enable-background:accumulate;font-family:Bitstream Vera Sans;-inkscape-font-specification:Bitstream Vera Sans"
       d="m 19.613535,16.830967 c -5.342461,1.618885 -6.251068,9.75951 -9.010982,14.022062 -1.8079273,6.03959 6.880864,9.072597 9.378393,3.301469 1.889995,-4.600231 8.707944,-12.078154 3.755892,-16.479781 -1.063861,-0.722404 -2.838259,-0.991911 -4.123303,-0.84375 z"
       id="path5174"
       transform="matrix(0.88501952,0,0,0.85990689,3.0149901,4.0636387)"
       sodipodi:nodetypes="ccccc" />
    <path
       style="font-size:medium;font-style:normal;font-variant:normal;font-weight:normal;font-stretch:normal;text-indent:0;text-align:start;text-decoration:none;line-height:normal;letter-spacing:normal;word-spacing:normal;text-transform:none;direction:ltr;block-progression:tb;writing-mode:lr-tb;text-anchor:start;color:#000000;fill:#e7e7e7;fill-opacity:1;stroke:none;stroke-width:7;marker:none;visibility:visible;display:inline;overflow:visible;enable-background:accumulate;font-family:Bitstream Vera Sans;-inkscape-font-specification:Bitstream Vera Sans"
       d="M 21.875,35.34375 19.96875,38.78125 15.40625,47 9.7193542,54.81963 c -1.5298901,1.022654 -1.9914025,3.345109 -0.9687487,4.874999 1.0226538,1.52989 3.3451085,1.991405 4.8749985,0.968751 l 6.343146,-8.25713 0.6875,-0.46875 0.40625,-0.75 3.09375,-5.5625 3.34375,2.4375 0,10.6875 c -0.02615,1.849094 1.650721,3.549847 3.5,3.549847 1.849279,0 3.526151,-1.700753 3.5,-3.549847 l 0,-12.4375 0,-1.78125 -1.4375,-1.0625 -8,-5.8125 -3.1875,-2.3125 z"
       id="path5050"
       sodipodi:nodetypes="ccccscccccccscccccc" />
    <path
       style="font-size:medium;font-style:normal;font-variant:normal;font-weight:normal;font-stretch:normal;text-indent:0;text-align:start;text-decoration:none;line-height:normal;letter-spacing:normal;word-spacing:normal;text-transform:none;direction:ltr;block-progression:tb;writing-mode:lr-tb;text-anchor:start;color:#000000;fill:#e7e7e7;fill-opacity:1;stroke:none;stroke-width:7;marker:none;visibility:visible;display:inline;overflow:visible;enable-background:accumulate;font-family:Bitstream Vera Sans;-inkscape-font-specification:Bitstream Vera Sans"
       d="m 32.8125,23.28125 a 3.50035,3.50035 0 0 0 -2.25,6.25 l 6,5 0.78125,0.625 0.96875,0.125 7,1 a 3.50035,3.50035 0 1 0 1,-6.90625 L 40.34375,28.53125 35.0625,24.125 a 3.50035,3.50035 0 0 0 -2.25,-0.84375 z"
       id="path5052" />
    <path
       style="fill:#e7e7e7;fill-opacity:1;stroke:none"
       d="m 29.354007,14.683263 c -0.215825,0.586623 -0.342643,1.205261 -0.342643,1.85598 0,3.308865 3.016163,5.996244 6.738636,5.996244 3.722473,0 6.738637,-2.687379 6.738637,-5.996244 0,-0.620412 -0.0886,-1.20751 -0.285536,-1.77032 l -12.849094,-0.08566 z"
       id="path5054" />
    <path
       style="fill:#e7e7e7;fill-opacity:1;stroke:none"
       d="m 27.857333,14.094924 c 0,0 0.09551,-4.4794963 1.299786,-6.2112917 1.203908,-1.7312479 3.56378,-2.9351549 6.546875,-2.9351549 2.983095,0 5.389043,1.1211575 6.877053,3.3720187 0.915444,1.3847617 1.390264,5.8703089 1.390264,5.8703089 l -16.113978,-0.09587 z"
       id="path5060"
       sodipodi:nodetypes="cssscc" />
    <path
       style="font-size:medium;font-style:normal;font-variant:normal;font-weight:normal;font-stretch:normal;text-indent:0;text-align:start;text-decoration:none;line-height:normal;letter-spacing:normal;word-spacing:normal;text-transform:none;direction:ltr;block-progression:tb;writing-mode:lr-tb;text-anchor:start;color:#000000;fill:#e7e7e7;fill-opacity:1;stroke:none;stroke-width:7;marker:none;visibility:visible;display:inline;overflow:visible;enable-background:accumulate;font-family:Bitstream Vera Sans;-inkscape-font-specification:Bitstream Vera Sans"
       d="m 20.9375,19.1875 a 3.50035,3.50035 0 0 0 -2.96875,1.96875 l -4.5,8.875 a 3.5008718,3.5008718 0 1 0 6.25,3.15625 l 4.5,-8.875 a 3.50035,3.50035 0 0 0 -3.28125,-5.125 z"
       id="path5062" />
    <path
       style="fill:#e7e7e7;fill-opacity:1;stroke:none"
       d="M 44.507867,10.004485 61.577468,3.0819348 61.840078,18.231281 44.376562,11.710038 44.507867,10.004485 z"
       id="path5064" />
    <path
       style="font-size:medium;font-style:normal;font-variant:normal;font-weight:normal;font-stretch:normal;text-indent:0;text-align:start;text-decoration:none;line-height:normal;letter-spacing:normal;word-spacing:normal;text-transform:none;direction:ltr;block-progression:tb;writing-mode:lr-tb;text-anchor:start;color:#000000;fill:#e7e7e7;fill-opacity:1;stroke:none;stroke-width:11.7040205;marker:none;visibility:visible;display:inline;overflow:visible;enable-background:accumulate;font-family:Bitstream Vera Sans;-inkscape-font-specification:Bitstream Vera Sans"
       d="m 31.5,22.875 a 5.8525955,5.8525955 0 0 0 -4.96875,3.25 l -4.34375,8.59375 a 5.8558531,5.8558531 0 1 0 10.4375,5.3125 L 36.96875,31.4375 A 5.8525955,5.8525955 0 0 0 31.5,22.875 z"
       id="path5066" />
    <path
       sodipodi:type="inkscape:offset"
       inkscape:radius="0"
       inkscape:original="M -41.96875 2.40625 A 3.50035 3.50035 0 0 0 -44.9375 4.375 L -49.4375 13.25 A 3.5008718 3.5008718 0 1 0 -43.1875 16.40625 L -38.6875 7.53125 A 3.50035 3.50035 0 0 0 -41.96875 2.40625 z "
       style="font-size:medium;font-style:normal;font-variant:normal;font-weight:normal;font-stretch:normal;text-indent:0;text-align:start;text-decoration:none;line-height:normal;letter-spacing:normal;word-spacing:normal;text-transform:none;direction:ltr;block-progression:tb;writing-mode:lr-tb;text-anchor:start;color:#000000;fill:#e7e7e7;fill-opacity:1;stroke:none;stroke-width:7;marker:none;visibility:visible;display:inline;overflow:visible;enable-background:accumulate;font-family:Bitstream Vera Sans;-inkscape-font-specification:Bitstream Vera Sans"
       id="path5172"
       d="M -41.96875,2.40625 A 3.50035,3.50035 0 0 0 -44.9375,4.375 l -4.5,8.875 a 3.5008718,3.5008718 0 1 0 6.25,3.15625 l 4.5,-8.875 a 3.50035,3.50035 0 0 0 -3.28125,-5.125 z"
       transform="translate(22.627417,12.085098)" />
  </g>
</svg>
