<?xml version="1.0" encoding="UTF-8" standalone="no"?>
<!-- Created with Inkscape (http://www.inkscape.org/) -->

<svg
   xmlns:dc="http://purl.org/dc/elements/1.1/"
   xmlns:cc="http://creativecommons.org/ns#"
   xmlns:rdf="http://www.w3.org/1999/02/22-rdf-syntax-ns#"
   xmlns:svg="http://www.w3.org/2000/svg"
   xmlns="http://www.w3.org/2000/svg"
   xmlns:xlink="http://www.w3.org/1999/xlink"
   xmlns:sodipodi="http://sodipodi.sourceforge.net/DTD/sodipodi-0.dtd"
   xmlns:inkscape="http://www.inkscape.org/namespaces/inkscape"
   width="64px"
   height="64px"
   id="svg8993"
   version="1.1"
   inkscape:version="0.48.5 r10040"
   sodipodi:docname="addLead.svg"
   inkscape:export-filename="/home/blitz/documents/projects/surveyEditor-svn/icons/addStation.png"
   inkscape:export-xdpi="90"
   inkscape:export-ydpi="90">
  <defs
     id="defs8995">
    <linearGradient
       y2="1"
       x2="15"
       y1="15"
       x1="1"
       gradientTransform="matrix(1.7648584,0,0,1.7707843,31.258351,31.608059)"
       gradientUnits="userSpaceOnUse"
       id="linearGradient8272"
       xlink:href="#linearGradient3653"
       inkscape:collect="always" />
    <linearGradient
       id="linearGradient3653">
      <stop
         id="stop3655"
         offset="0"
         style="stop-color:#1f6f00;stop-opacity:1;" />
      <stop
         id="stop3657"
         offset="1"
         style="stop-color:#57f22d;stop-opacity:1;" />
    </linearGradient>
    <linearGradient
       y2="1"
       x2="15"
       y1="15"
       x1="1"
       gradientTransform="matrix(1.7648584,0,0,1.7707843,33.577061,34.565396)"
       gradientUnits="userSpaceOnUse"
       id="linearGradient10124"
       xlink:href="#linearGradient3653"
       inkscape:collect="always" />
    <radialGradient
       id="shadowGradient"
       cx="32.5"
       cy="29.5"
       fx="32.5"
       fy="29.5"
       r="26.5"
       gradientUnits="userSpaceOnUse">
      <stop
         id="stop17"
         stop-color="#C0C0C0"
         offset="0.0" />
      <stop
         id="stop19"
         stop-color="#C0C0C0"
         offset="0.88" />
      <stop
         id="stop21"
         stop-opacity="0.0"
         stop-color="#C0C0C0"
         offset="1.0" />
    </radialGradient>
    <linearGradient
       y2="16.248501"
       x2="9.5471001"
       y1="41.179295"
       x1="54.509937"
       gradientUnits="userSpaceOnUse"
       id="edgeGradient">
      <stop
         style="stop-color:#12549a;stop-opacity:1;"
         id="stop12"
         stop-color="#3057A7"
         offset="0" />
      <stop
         style="stop-color:#3e73d3;stop-opacity:1;"
         id="stop14"
         stop-color="#5A7AC6"
         offset="1" />
    </linearGradient>
    <linearGradient
       y2="16.108927"
       x2="29.567699"
       y1="62.875645"
       x1="22.057367"
       gradientUnits="userSpaceOnUse"
       id="fieldGradient">
      <stop
         style="stop-color:#9ecefe;stop-opacity:1;"
         id="stop7"
         stop-color="#BCD6FE"
         offset="0" />
      <stop
         style="stop-color:#1388ee;stop-opacity:1;"
         id="stop9"
         stop-color="#6787D3"
         offset="1" />
    </linearGradient>
  </defs>
  <sodipodi:namedview
     id="base"
     pagecolor="#ffffff"
     bordercolor="#666666"
     borderopacity="1.0"
     inkscape:pageopacity="0.0"
     inkscape:pageshadow="2"
     inkscape:zoom="5.5"
     inkscape:cx="13.271089"
     inkscape:cy="29.073686"
     inkscape:current-layer="layer1"
     showgrid="true"
     inkscape:document-units="px"
     inkscape:grid-bbox="true"
     inkscape:window-width="1086"
     inkscape:window-height="971"
     inkscape:window-x="142"
     inkscape:window-y="22"
     inkscape:window-maximized="0" />
  <metadata
     id="metadata8998">
    <rdf:RDF>
      <cc:Work
         rdf:about="">
        <dc:format>image/svg+xml</dc:format>
        <dc:type
           rdf:resource="http://purl.org/dc/dcmitype/StillImage" />
        <dc:title></dc:title>
      </cc:Work>
    </rdf:RDF>
  </metadata>
  <g
     id="layer1"
     inkscape:label="Layer 1"
     inkscape:groupmode="layer">
    <path
       style="fill:#88bce4;fill-opacity:0.50892861;stroke:#000000;stroke-width:1px;stroke-linecap:butt;stroke-linejoin:miter;stroke-opacity:1"
       d="m 77.224826,19.968805 25.781634,4.92201 16.58043,-21.5739695 6.56752,-11.175359 9.28186,-5.6363635 4.01292,-13.596032 -16.1856,-10.123213 -8.44809,5.219473 -4.48306,-5.645499 c -8.17522,0.172287 -18.941183,-0.832161 -27.085556,0.05325 l -0.529857,16.397281 0.614305,13.7194745 -2.592246,10.788328 z"
       id="path9020"
       inkscape:connector-curvature="0"
       sodipodi:nodetypes="cccccccccccccc" />
    <path
       inkscape:connector-curvature="0"
       id="path9545"
       d="m 134.36364,-26.909091 c 0,0 0,0.181818 -0.54546,1.272727 -0.54545,1.090909 -2.72727,3.090909 -2.72727,3.090909 0,0 -6,2.545455 -9.27273,3.272727 -3.27273,0.727273 -4,8.363637 -7.09091,10.1818185 -3.09091,1.818182 -5.09091,9.45454497 -8,15.454545 -2.90909,5.9999995 -6,13.2727295 -6,13.2727295 l -16.181816,-3.81818 c 0,0 4.909092,-6.1818195 6.363638,-19.0909115 1.454546,-12.9090915 1.999999,-15.2727285 1.999999,-15.2727285 l -2.181818,-12.545455 -1.272727,-2 18.909094,0.363637 c 0,0 -2.54546,6.727273 -0.72728,7.272727 1.81819,0.545455 8.36364,-1.272727 10,-1.636364 1.63637,-0.363636 5.45455,-4.363636 5.45455,-4.363636 z"
       style="fill:#ffffff;fill-opacity:1;stroke:none"
       sodipodi:nodetypes="cscsssccsccccsscc" />
    <path
       style="fill:none;stroke:#000000;stroke-width:2;stroke-linecap:butt;stroke-linejoin:miter;stroke-miterlimit:4;stroke-opacity:1;stroke-dasharray:none"
       d="m 84.545454,15.818185 c 0,0 4.727273,-5.9999995 6.181819,-18.9090935 C 92.181818,-16 92.909091,-18.545455 92.909091,-18.545455 l -2.181818,-12.545455 -1.272727,-2"
       id="path9014"
       inkscape:connector-curvature="0"
       sodipodi:nodetypes="csccc" />
    <path
       style="fill:none;stroke:#000000;stroke-width:2;stroke-linecap:butt;stroke-linejoin:miter;stroke-miterlimit:4;stroke-opacity:1;stroke-dasharray:none"
       d="m 100.54545,20.363635 c 0,0 2.9091,-7.81818 5.81819,-13.8181795 2.90909,-6.00000003 5.27272,-13.818183 8.36363,-15.636365 3.09091,-1.8181815 3.81818,-9.4545455 7.09091,-10.1818185 3.27273,-0.727272 9.27273,-3.272727 9.27273,-3.272727 0,0 2.18182,-2 2.72727,-3.090909 0.54546,-1.090909 0.54546,-1.272727 0.54546,-1.272727"
       id="path9016"
       inkscape:connector-curvature="0"
       sodipodi:nodetypes="cssscsc" />
    <path
       style="fill:none;stroke:#000000;stroke-width:2;stroke-linecap:butt;stroke-linejoin:miter;stroke-miterlimit:4;stroke-opacity:1;stroke-dasharray:none"
       d="m 108.36364,-32.727273 c 0,0 -2.54546,6.727273 -0.72728,7.272727 1.81819,0.545455 8.36364,-1.272727 10,-1.636364 1.63637,-0.363636 5.45455,-4.363636 5.45455,-4.363636"
       id="path9018"
       inkscape:connector-curvature="0" />
    <path
       style="fill:none;stroke:#000000;stroke-width:1px;stroke-linecap:butt;stroke-linejoin:miter;stroke-opacity:1"
       d="M 92.363637,12.000005 91.636364,8.5454555"
       id="path9780"
       inkscape:connector-curvature="0" />
    <path
       style="fill:none;stroke:#000000;stroke-width:1px;stroke-linecap:butt;stroke-linejoin:miter;stroke-opacity:1"
       d="M 94.909091,12.181815 97.272728,5.0909055"
       id="path9782"
       inkscape:connector-curvature="0" />
    <path
       style="fill:none;stroke:#000000;stroke-width:1px;stroke-linecap:butt;stroke-linejoin:miter;stroke-opacity:1"
       d="m 97.454546,12.727275 2.181818,-2"
       id="path9784"
       inkscape:connector-curvature="0" />
    <path
       style="fill:none;stroke:#000000;stroke-width:1px;stroke-linecap:butt;stroke-linejoin:miter;stroke-opacity:1"
       d="m 112,-6.9090905 c 0,0 -4.18182,-6.0000005 -8.18182,-7.2727285 -3.999998,-1.272727 -11.272725,-0.909091 -11.272725,-0.909091"
       id="path9788"
       inkscape:connector-curvature="0" />
    <path
       style="fill:none;stroke:#000000;stroke-width:1px;stroke-linecap:butt;stroke-linejoin:miter;stroke-opacity:1"
       d="M 96,-15.09091 96.363637,-18"
       id="path9790"
       inkscape:connector-curvature="0" />
    <path
       style="fill:none;stroke:#000000;stroke-width:1px;stroke-linecap:butt;stroke-linejoin:miter;stroke-opacity:1"
       d="m 99.454546,-15.09091 0.727274,-2.545454"
       id="path9792"
       inkscape:connector-curvature="0" />
    <path
       style="fill:none;stroke:#000000;stroke-width:1px;stroke-linecap:butt;stroke-linejoin:miter;stroke-opacity:1"
       d="m 104.72727,-14.363637 1.09091,-2.363636"
       id="path9794"
       inkscape:connector-curvature="0" />
    <path
       style="fill:none;stroke:#000000;stroke-width:1px;stroke-linecap:butt;stroke-linejoin:miter;stroke-opacity:1"
       d="m 108.36364,-11.454546 2,-2.181818"
       id="path9796"
       inkscape:connector-curvature="0" />
    <path
       style="fill:none;stroke:#000000;stroke-width:1px;stroke-linecap:butt;stroke-linejoin:miter;stroke-opacity:1"
       d="m 95.563919,-27.103182 c 0,0 3.985511,-1.028519 6.685371,0.128565"
       id="path9824"
       inkscape:connector-curvature="0"
       sodipodi:nodetypes="cc" />
    <path
       style="fill:none;stroke:#000000;stroke-width:1px;stroke-linecap:butt;stroke-linejoin:miter;stroke-opacity:1"
       d="m 98.906605,-27.746006 0,-2.185603"
       id="path9826"
       inkscape:connector-curvature="0" />
    <path
       sodipodi:nodetypes="cc"
       inkscape:connector-curvature="0"
       id="path9828"
       d="m 113.86094,-23.214634 c 0,0 2.2357,0.45992 3.29539,3.199474"
       style="fill:none;stroke:#000000;stroke-width:1px;stroke-linecap:butt;stroke-linejoin:miter;stroke-opacity:1" />
    <path
       inkscape:connector-curvature="0"
       id="path9830"
       d="m 115.88575,-21.916307 1.563,-1.527704"
       style="fill:none;stroke:#000000;stroke-width:1px;stroke-linecap:butt;stroke-linejoin:miter;stroke-opacity:1"
       sodipodi:nodetypes="cc" />
    <g
       id="g8137"
       transform="matrix(0.83452392,0,0,0.83452392,5.3223986,3.2060265)">
      <circle
         transform="matrix(1.0648,0,0,1.064822,-2.1,1.0864)"
         cx="32.5"
         cy="29.5"
         r="26.5"
         id="shadow"
         sodipodi:cx="32.5"
         sodipodi:cy="29.5"
         sodipodi:rx="26.5"
         sodipodi:ry="26.5"
         style="fill:url(#shadowGradient)"
         d="M 59,29.5 C 59,44.135546 47.135546,56 32.5,56 17.864454,56 6,44.135546 6,29.5 6,14.864454 17.864454,3 32.5,3 47.135546,3 59,14.864454 59,29.5 z" />
      <circle
         style="fill:url(#fieldGradient);fill-opacity:1;stroke:url(#edgeGradient);stroke-width:2"
         cy="31"
         cx="31"
         r="25.799999"
         id="field"
         sodipodi:cx="31"
         sodipodi:cy="31"
         sodipodi:rx="25.799999"
         sodipodi:ry="25.799999"
         d="M 56.799999,31 C 56.799999,45.248946 45.248946,56.799999 31,56.799999 16.751054,56.799999 5.2000008,45.248946 5.2000008,31 5.2000008,16.751054 16.751054,5.2000008 31,5.2000008 45.248946,5.2000008 56.799999,16.751054 56.799999,31 z" />
      <text
         sodipodi:linespacing="125%"
         id="text2996"
         y="49.726116"
         x="19.522291"
         style="font-size:52.17834854px;font-style:normal;font-variant:normal;font-weight:bold;font-stretch:normal;line-height:125%;letter-spacing:0px;word-spacing:0px;fill:#ffffff;fill-opacity:1;stroke:none;font-family:DIN Alternate;-inkscape-font-specification:DIN Alternate Bold"
         xml:space="preserve"><tspan
           y="49.726116"
           x="19.522291"
           id="tspan2998"
           sodipodi:role="line">?</tspan></text>
    </g>
    <path
       inkscape:connector-curvature="0"
       style="font-size:medium;font-style:normal;font-variant:normal;font-weight:normal;font-stretch:normal;text-indent:0;text-align:start;text-decoration:none;line-height:normal;letter-spacing:normal;word-spacing:normal;text-transform:none;direction:ltr;block-progression:tb;writing-mode:lr-tb;text-anchor:start;color:#000000;fill:url(#linearGradient10124);fill-opacity:1;stroke:#1d1d1d;stroke-width:1.76781905;stroke-miterlimit:4;stroke-opacity:1;stroke-dasharray:none;marker:none;visibility:visible;display:inline;overflow:visible;enable-background:accumulate;font-family:Bitstream Vera Sans;-inkscape-font-specification:Bitstream Vera Sans"
       d="m 47.309866,34.510062 a 3.5300703,3.5419227 0 0 0 -3.143656,3.596906 l 0,7.083136 -7.059434,0 a 3.5300703,3.5419227 0 0 0 -0.33091,0 3.5335933,3.5454582 0 1 0 0.33091,7.083139 l 7.059434,0 0,7.083137 a 3.5300703,3.5419227 0 1 0 7.059435,0 l 0,-7.083137 7.059433,0 a 3.5300703,3.5419227 0 1 0 0,-7.083139 l -7.059433,0 0,-7.083136 a 3.5300703,3.5419227 0 0 0 -3.584868,-3.596906 3.5300703,3.5419227 0 0 0 -0.330911,0 z"
       id="path2987" />
  </g>
</svg>
