<?xml version="1.0" encoding="UTF-8" standalone="no"?>
<!-- Created with Inkscape (http://www.inkscape.org/) -->

<svg
   xmlns:dc="http://purl.org/dc/elements/1.1/"
   xmlns:cc="http://creativecommons.org/ns#"
   xmlns:rdf="http://www.w3.org/1999/02/22-rdf-syntax-ns#"
   xmlns:svg="http://www.w3.org/2000/svg"
   xmlns="http://www.w3.org/2000/svg"
   xmlns:sodipodi="http://sodipodi.sourceforge.net/DTD/sodipodi-0.dtd"
   xmlns:inkscape="http://www.inkscape.org/namespaces/inkscape"
   width="64px"
   height="64px"
   id="svg3707"
   version="1.1"
   inkscape:version="0.48.5 r10040"
   sodipodi:docname="cave.svg"
   inkscape:export-filename="/Users/vpicaver/Documents/Projects/cavewhere/icons/cave512x512.png"
   inkscape:export-xdpi="720"
   inkscape:export-ydpi="720">
  <defs
     id="defs3709">
    <inkscape:perspective
       sodipodi:type="inkscape:persp3d"
       inkscape:vp_x="0 : 32 : 1"
       inkscape:vp_y="0 : 1000 : 0"
       inkscape:vp_z="64 : 32 : 1"
       inkscape:persp3d-origin="32 : 21.333333 : 1"
       id="perspective3715" />
  </defs>
  <sodipodi:namedview
     id="base"
     pagecolor="#ffffff"
     bordercolor="#666666"
     borderopacity="1.0"
     inkscape:pageopacity="0.0"
     inkscape:pageshadow="2"
     inkscape:zoom="16"
     inkscape:cx="31.174601"
     inkscape:cy="35.35587"
     inkscape:current-layer="layer1"
     showgrid="true"
     inkscape:document-units="px"
     inkscape:grid-bbox="true"
     inkscape:window-width="2063"
     inkscape:window-height="1324"
     inkscape:window-x="302"
     inkscape:window-y="84"
     inkscape:window-maximized="0" />
  <metadata
     id="metadata3712">
    <rdf:RDF>
      <cc:Work
         rdf:about="">
        <dc:format>image/svg+xml</dc:format>
        <dc:type
           rdf:resource="http://purl.org/dc/dcmitype/StillImage" />
        <dc:title></dc:title>
      </cc:Work>
    </rdf:RDF>
  </metadata>
  <g
     id="layer1"
     inkscape:label="Layer 1"
     inkscape:groupmode="layer">
    <path
       sodipodi:nodetypes="cszsscscssa"
       id="path4250"
       d="m 7,11.363636 c 0.7272728,-2.9090909 6.454545,-3.1818178 12,-4.4545451 5.545455,-1.2727273 5.591462,-0.6646494 9.636364,-1 C 32.681266,5.5737403 39.909091,4.6363636 43.272727,5 c 3.363637,0.3636363 13.636364,0.6363636 14.636364,6.545454 1,5.909091 -0.181819,22.545455 -0.181819,22.545455 0,0 0.09091,6.818182 -5.90909,10.818182 -6,4 -16.545455,4.909091 -16.545455,4.909091 0,0 -20.181818,11.818182 -22.909091,8.181818 C 9.6363632,54.363637 5.1818182,40.272728 5.8181818,36.545455 6.4545454,32.818182 6.9090909,13.909091 6.8181819,11.727273"
       style="fill:#dcdcdc;stroke:none;stroke-width:10;stroke-linecap:round;stroke-linejoin:miter;stroke-opacity:1;stroke-miterlimit:4;stroke-dasharray:none;fill-opacity:1" />
    <path
       style="fill:#000000;fill-opacity:1;stroke:#000000;stroke-width:1.34195495px;stroke-linecap:round;stroke-linejoin:round;stroke-opacity:1"
       d="m 22.534614,52.556294 2.559632,-27.839862 6.825685,24.909351 -9.385317,2.930511 z"
       id="path4229"
       inkscape:connector-curvature="0" />
    <path
       style="fill:#000000;fill-opacity:1;stroke:#000000;stroke-width:1.2493149px;stroke-linecap:round;stroke-linejoin:miter;stroke-opacity:1"
       d="M 33.579203,9.7737233 35.09747,20.784433 36.784434,8.3973848 33.579203,9.7737233 z"
       id="path4233"
       inkscape:connector-curvature="0" />
    <path
       style="fill:#000000;fill-opacity:1;stroke:#000000;stroke-width:1.35282385px;stroke-linecap:butt;stroke-linejoin:miter;stroke-opacity:1"
       d="M 40.630958,5.9945937 45.793437,32.005407 48.823588,6.3989069 40.630958,5.9945937 z"
       id="path4237"
       inkscape:connector-curvature="0" />
    <path
       style="fill:none;stroke:#000000;stroke-width:3.0710001;stroke-linecap:round;stroke-linejoin:miter;stroke-miterlimit:4;stroke-opacity:1;stroke-dasharray:none"
       d="m 17.545454,7.9088219 0,18.3641741"
       id="path4241"
       sodipodi:nodetypes="cc"
       inkscape:connector-curvature="0" />
    <path
       style="fill:none;stroke:#000000;stroke-width:7.5;stroke-linecap:round;stroke-linejoin:miter;stroke-miterlimit:4;stroke-opacity:1;stroke-dasharray:none"
       d="m 7,11.363636 c 0.7272728,-2.9090909 6.454545,-3.1818178 12,-4.4545451 5.545455,-1.2727273 5.591462,-0.6646494 9.636364,-1 4.044902,-0.3353506 11.090909,-0.3636364 14.454545,0 3.363637,0.3636363 13.818182,-0.2727273 14.818182,5.6363631 1,5.909091 -0.181819,22.545455 -0.181819,22.545455 0,0 0.09091,6.818182 -5.90909,10.818182 -6,4 -9.048169,2.938852 -15.636364,5.090909 C 29.593622,52.152058 15.090909,61.636364 12.363636,58 9.6363632,54.363637 5.1818182,40.272728 5.8181818,36.545455 6.4545454,32.818182 6.9090909,13.909091 6.8181819,11.727273"
       id="path4227"
       sodipodi:nodetypes="cszsscszssa"
       inkscape:connector-curvature="0" />
    <path
       style="fill:#000000;fill-opacity:1;stroke:#000000;stroke-width:0.1;stroke-miterlimit:4;stroke-opacity:1;stroke-dasharray:none"
       id="path3769"
       d="m 21.425837,53.435102 c -0.01274,-0.233533 -0.05444,-0.46375 -0.08488,-0.695281 -0.03377,-0.174756 -0.07,-0.348224 -0.08784,-0.525464 -0.01194,-0.162701 -0.01403,-0.325895 -0.01531,-0.48896 -4.48e-4,-0.138829 -0.001,-0.277666 8.77e-4,-0.416484 0.003,-0.167785 -0.0054,-0.33568 0.0067,-0.503117 0.01641,-0.198755 0.04591,-0.395399 0.07776,-0.592105 0.03813,-0.231293 0.105258,-0.456155 0.174669,-0.679592 0.07523,-0.251409 0.141106,-0.505406 0.210707,-0.758413 0.05983,-0.257239 0.120491,-0.514346 0.177236,-0.772292 0.03314,-0.171695 0.05507,-0.345082 0.08484,-0.517413 0.03081,-0.179356 0.0352,-0.361658 0.03863,-0.543168 0.0019,-0.145985 0.0012,-0.291986 7.55e-4,-0.437978 2.77e-4,-0.127282 0.0043,-0.253784 -0.01525,-0.379822 -0.02794,-0.141478 -0.03718,-0.28541 -0.044,-0.429158 -0.0053,-0.174067 -0.0041,-0.348234 -0.0043,-0.522356 9.37e-4,-0.207334 0.0016,-0.414667 0.0011,-0.622003 -0.0034,-0.175878 -0.0049,-0.350468 0.01559,-0.525282 0.02769,-0.264173 0.108097,-0.514976 0.196942,-0.763742 0.05999,-0.176302 0.128126,-0.349346 0.197427,-0.522127 0.06337,-0.145791 0.110387,-0.296108 0.1396,-0.452198 0.034,-0.145118 0.06397,-0.290119 0.08013,-0.438344 0.02002,-0.310966 0.01859,-0.623005 0.01776,-0.934498 -8.62e-4,-0.214879 -0.0052,-0.429731 -0.0055,-0.644612 -2.14e-4,-0.186557 9.2e-4,-0.373108 4.57e-4,-0.559665 3.8e-5,-0.174043 -0.0012,-0.34809 -7.76e-4,-0.522132 -0.0091,-0.177316 0.02792,-0.349078 0.07012,-0.519743 0.05896,-0.172984 0.133122,-0.340259 0.199859,-0.510355 0.04681,-0.129189 0.09965,-0.256056 0.145859,-0.385452 0.07127,-0.195658 0.09447,-0.405961 0.121402,-0.611453 0.02433,-0.20101 0.03458,-0.403271 0.03925,-0.605571 0.0053,-0.205823 0.0034,-0.41172 0.0056,-0.617587 0.0018,-0.235985 -0.0011,-0.471971 -0.003,-0.707946 0.02103,-0.262423 0.0501,-0.524311 0.07592,-0.786377 0.06041,-0.49005 0.08751,-0.983133 0.127558,-1.475049 0.03204,-0.349917 0.08128,-0.697488 0.131822,-1.045043 0.02108,-0.183477 0.04089,-0.36689 0.08697,-0.546085 0.04204,-0.118248 0.0858,-0.235315 0.123059,-0.355178 0.05433,-0.147529 0.07705,-0.303222 0.105246,-0.457115 0.02263,-0.190217 0.06054,-0.377156 0.105697,-0.563142 0.02776,-0.144892 0.08345,-0.281805 0.115521,-0.425531 0.02323,-0.120669 0.02506,-0.243894 0.02681,-0.366341 9.34e-4,-0.12793 2.51e-4,-0.255865 -5.3e-5,-0.383796 -3.01e-4,-0.128624 -3.76e-4,-0.257248 -4.23e-4,-0.385872 1.12e-4,-0.13123 -4.47e-4,-0.26246 4.87e-4,-0.393687 0.0036,-0.221299 0.003,-0.442629 0.003,-0.663948 -6.16e-4,-0.180143 -0.0021,-0.360282 -0.0029,-0.540424 -0.01057,-0.124138 0.01073,-0.244111 0.03377,-0.365178 0.01442,-0.104649 0.04197,-0.20784 0.08415,-0.304711 0.0463,-0.100692 0.101069,-0.197301 0.172011,-0.282581 0.315626,-0.299667 0.712272,-0.557953 1.149431,-0.591058 0.130742,0.0096 0.226166,0.06699 0.310498,0.163974 0.09478,0.0918 0.156099,0.206336 0.213184,0.323357 0.06356,0.191673 0.129047,0.382833 0.179706,0.578412 0.0346,0.163355 0.05373,0.329205 0.08187,0.493836 0.03042,0.161802 0.02614,0.326947 0.04207,0.490126 0.02279,0.145473 0.04266,0.291119 0.05337,0.438002 0.03198,0.168644 0.04262,0.339764 0.06355,0.509801 0.03281,0.184701 0.03393,0.374922 0.08502,0.555887 0.03774,0.138953 0.117409,0.258259 0.196359,0.376337 0.06985,0.111024 0.135214,0.225121 0.206678,0.335254 0.107082,0.142399 0.213216,0.284385 0.286646,0.44736 0.06136,0.137718 0.113353,0.279448 0.177417,0.415953 0.07803,0.19448 0.139043,0.3945 0.219864,0.588016 0.09982,0.190773 0.201482,0.377995 0.265458,0.584416 0.06083,0.184587 0.08621,0.376349 0.100867,0.569214 0.01032,0.199832 0.01178,0.400017 0.01321,0.600075 7.85e-4,0.141179 6.29e-4,0.28236 5.41e-4,0.42354 -9.8e-5,0.128235 -1.43e-4,0.25647 -1.68e-4,0.384705 -1.65e-4,0.130998 3.99e-4,0.261997 -5.32e-4,0.392992 -0.01175,0.192421 0.04438,0.375129 0.112038,0.552594 0.07048,0.179855 0.136916,0.360484 0.191749,0.5458 0.05734,0.185285 0.116955,0.369722 0.186015,0.551033 0.101957,0.207185 0.209051,0.413362 0.327795,0.611752 0.110256,0.176028 0.236376,0.34117 0.337574,0.522566 0.135179,0.232635 0.247529,0.477119 0.378207,0.712195 0.164969,0.276879 0.304139,0.568161 0.436284,0.861839 0.132012,0.282865 0.225499,0.57975 0.291395,0.884233 0.04779,0.228871 0.04909,0.463608 0.05201,0.696386 9.99e-4,0.24784 0.0038,0.495094 -0.01724,0.742169 -0.01421,0.190661 -0.03408,0.379721 -0.06746,0.567944 -0.03603,0.201 -0.0393,0.405823 -0.04362,0.609403 0.004,0.176821 -0.01159,0.355269 0.0058,0.531543 0.01365,0.122931 0.101116,0.216272 0.1761,0.308824 0.133659,0.141182 0.221477,0.315436 0.312934,0.484963 0.112759,0.202171 0.220765,0.405548 0.307113,0.620517 0.07588,0.177143 0.136857,0.360654 0.18241,0.547851 0.04405,0.179961 0.0849,0.360776 0.121684,0.542389 0.04134,0.248161 0.07078,0.497932 0.107792,0.746742 0.04066,0.221114 0.08952,0.440456 0.118304,0.663562 0.01981,0.137102 0.01235,0.276089 0.02515,0.413563 0.01135,0.115785 0.04827,0.225545 0.08966,0.333535 0.05009,0.117112 0.07027,0.243159 0.102115,0.365738 0.03498,0.128423 0.04766,0.260812 0.05505,0.393216 0.01816,0.128225 0.04243,0.255154 0.05553,0.384129 7.1e-5,0.05742 0.01248,0.112907 0.02507,0.168477 l -0.841598,0.453441 0,0 c -0.0143,-0.05949 -0.0318,-0.118755 -0.02993,-0.180679 -0.01102,-0.13057 -0.03222,-0.259358 -0.05751,-0.3879 -0.0051,-0.126274 -0.01361,-0.252968 -0.04572,-0.375778 -0.03119,-0.118828 -0.05101,-0.240767 -0.09734,-0.355012 -0.04679,-0.114301 -0.08485,-0.232467 -0.100394,-0.355367 -0.0207,-0.137436 -0.0063,-0.277431 -0.02289,-0.415646 -0.02275,-0.223739 -0.06566,-0.444256 -0.109467,-0.664708 -0.03673,-0.24668 -0.07003,-0.493723 -0.111839,-0.739573 -0.03464,-0.180927 -0.07746,-0.360301 -0.121093,-0.539207 -0.04016,-0.184135 -0.100424,-0.362964 -0.174097,-0.536405 -0.08172,-0.212523 -0.185425,-0.414071 -0.298526,-0.611562 -0.09095,-0.16321 -0.180422,-0.329887 -0.309246,-0.467089 -0.08698,-0.106212 -0.186133,-0.213712 -0.204343,-0.355005 -0.02377,-0.180579 1.8e-5,-0.364528 -0.0052,-0.54616 0.003,-0.207026 0.0038,-0.415184 0.03177,-0.620654 0.03467,-0.186864 0.06606,-0.372879 0.07602,-0.56322 0.02575,-0.243939 0.02638,-0.488122 0.02181,-0.733323 -0.0017,-0.227596 -0.0026,-0.456448 -0.0418,-0.681401 -0.05694,-0.300111 -0.148035,-0.591245 -0.275167,-0.869492 -0.129714,-0.291514 -0.274708,-0.576714 -0.43711,-0.851412 -0.13298,-0.233347 -0.241379,-0.479419 -0.379015,-0.710186 -0.10756,-0.177043 -0.231433,-0.34352 -0.338407,-0.521099 -0.120022,-0.203651 -0.230867,-0.413631 -0.337217,-0.62436 -0.07262,-0.182828 -0.131907,-0.37002 -0.191047,-0.557525 -0.05336,-0.183162 -0.118109,-0.361886 -0.187429,-0.539539 -0.07121,-0.185605 -0.13688,-0.38001 -0.132178,-0.58124 -9.41e-4,-0.130819 -3.78e-4,-0.261642 -5.31e-4,-0.392464 6e-6,-0.128307 0,-0.256614 2.71e-4,-0.38492 3.76e-4,-0.141567 0.0011,-0.283131 0.0022,-0.424694 0.0011,-0.198431 0.0023,-0.397006 -0.0081,-0.595244 -0.01214,-0.18622 -0.03352,-0.37225 -0.09301,-0.550225 -0.05689,-0.205479 -0.157618,-0.389197 -0.255704,-0.577398 -0.08196,-0.191159 -0.147487,-0.387882 -0.222789,-0.581486 -0.06624,-0.136703 -0.119971,-0.278693 -0.179759,-0.418219 -0.06766,-0.159972 -0.173452,-0.296634 -0.279076,-0.433457 -0.07197,-0.109564 -0.139611,-0.222156 -0.207728,-0.333993 -0.0828,-0.126586 -0.166353,-0.2552 -0.208132,-0.402273 -0.05673,-0.185523 -0.0553,-0.380066 -0.08884,-0.570498 -0.02436,-0.170921 -0.03273,-0.344002 -0.07159,-0.512861 -0.0082,-0.145938 -0.02469,-0.290975 -0.04895,-0.435164 -0.02048,-0.161122 -0.01287,-0.324693 -0.04065,-0.48529 -0.02619,-0.162923 -0.04994,-0.32573 -0.07585,-0.488575 -0.04497,-0.190191 -0.109246,-0.374066 -0.173883,-0.558335 -0.05391,-0.10873 -0.110065,-0.21486 -0.19993,-0.299367 -0.07167,-0.07216 -0.157624,-0.102775 -0.259881,-0.08921 -0.04736,0.0079 -0.07149,0.01011 -0.117251,0.02462 -0.01834,0.0058 -0.07047,0.03045 -0.05393,0.02061 1.312523,-0.780978 0.959924,-0.549671 0.669538,-0.393397 -0.07792,0.07358 -0.135514,0.157395 -0.183887,0.252982 -0.04135,0.09091 -0.08471,0.183218 -0.09504,0.284041 -0.01918,0.117453 -0.05674,0.23079 -0.04367,0.351481 -8.02e-4,0.18112 -0.0023,0.362236 -0.0029,0.543356 -4.1e-5,0.220303 -6.4e-4,0.440619 0.003,0.660903 9.36e-4,0.131043 3.54e-4,0.26209 5.24e-4,0.393137 3.1e-5,0.128566 7.4e-5,0.257132 3.4e-4,0.385699 2.9e-4,0.128266 8.85e-4,0.256532 7.1e-4,0.384798 -7.74e-4,0.127504 -0.0012,0.255541 -0.0189,0.38207 -0.02571,0.148628 -0.08383,0.285607 -0.118398,0.431717 -0.04535,0.183995 -0.08966,0.368044 -0.108374,0.557078 -0.02526,0.15733 -0.04466,0.316819 -0.09591,0.468351 -0.04149,0.118209 -0.0692,0.240262 -0.121526,0.354697 -0.07098,0.168206 -0.07659,0.357911 -0.103766,0.53622 -0.05532,0.348003 -0.111585,0.695599 -0.148233,1.046276 -0.04383,0.490564 -0.07226,0.982214 -0.121799,1.47227 -0.01906,0.257644 -0.03557,0.515556 -0.06583,0.772158 -0.0017,0.236808 -0.0043,0.47363 -0.002,0.710443 0.0027,0.205491 0.0026,0.410978 0.0021,0.616484 -0.0058,0.206325 -0.01857,0.412398 -0.04244,0.617491 -0.02446,0.210769 -0.04759,0.423694 -0.101186,0.629226 -0.05711,0.1255 -0.09573,0.259518 -0.148618,0.387249 -0.07039,0.16486 -0.130947,0.333916 -0.204755,0.497356 -0.04088,0.164323 -0.09345,0.327456 -0.08127,0.499433 4.67e-4,0.1743 -8.27e-4,0.348605 -7.65e-4,0.522906 -4.26e-4,0.186296 7.43e-4,0.372586 8.75e-4,0.558883 1.9e-4,0.216653 -0.0033,0.433289 -0.0045,0.649937 -0.0017,0.311971 -9.5e-4,0.623956 -0.005,0.935912 -0.0066,0.151551 -0.03243,0.299931 -0.07482,0.445787 -0.02556,0.162425 -0.06713,0.319272 -0.128717,0.471792 -0.07799,0.170457 -0.143997,0.34625 -0.208785,0.522096 -0.09189,0.239932 -0.173722,0.483278 -0.201228,0.740207 -0.01804,0.172007 -0.02635,0.343117 -0.02121,0.516401 -6.67e-4,0.207059 -3.65e-4,0.414116 3.72e-4,0.621174 -1.11e-4,0.172548 1.01e-4,0.345141 0.0049,0.517633 0.005,0.140023 0.01235,0.280353 0.03975,0.418125 0.02317,0.130903 0.02679,0.26079 0.02223,0.393763 -1e-6,0.147115 -2.4e-5,0.294241 -0.0028,0.441336 -0.0041,0.185287 -0.0071,0.371308 -0.03092,0.555315 -0.0301,0.174677 -0.05771,0.349074 -0.08742,0.523739 -0.05838,0.259646 -0.124941,0.51738 -0.179098,0.778021 -0.06792,0.253686 0.05661,0.507028 -0.01277,0.760269 -0.07021,0.218748 0.0525,0.47076 0.01408,0.697747 -0.02905,0.195007 -0.259788,0.420547 -0.272038,0.617825 -0.01702,0.164419 -0.05491,0.297998 -0.05741,0.463108 0.0016,0.138534 -0.144569,0.244929 -0.144793,0.38347 -1.5e-4,0.160705 -4.88e-4,0.321594 0.01034,0.482019 0.01485,0.17703 0.04764,0.350867 0.08216,0.525025 0.02724,0.231622 0.06843,0.461208 0.09128,0.693347 l -0.845003,0.442396 z"
       inkscape:connector-curvature="0"
       sodipodi:nodetypes="ccccccccccccccccccccccccccccccccccccccccccccccccccccccccccccccccccccccccccccccccccccccccccccccccccccccccccccccccccccccccccccccccccccccccccccccccccccccccccccccccccccccccccccccccccccccccccccccccccccc" />
    <path
       style="fill:#000000;fill-opacity:1;stroke:#000000;stroke-width:0.1;stroke-miterlimit:4;stroke-opacity:1;stroke-dasharray:none"
       id="path3771"
       d="m 15.811489,10.207781 c 0.126473,0.284645 0.240988,0.573201 0.345594,0.866401 0.08566,0.218033 0.12417,0.449076 0.180309,0.675326 0.02755,0.178663 0.08762,0.347184 0.147605,0.516778 0.09766,0.17097 0.148984,0.3536 0.179516,0.546646 0.05452,0.257997 0.08092,0.520795 0.09864,0.783546 0.01526,0.318077 0.01531,0.63668 0.01623,0.955056 0.0012,0.250072 0.0026,0.500142 0.0034,0.750216 0.01485,0.20058 -0.02409,0.39662 -0.05142,0.594029 -0.009,0.186846 -0.04899,0.367917 -0.08638,0.550331 -0.02007,0.173923 -0.06032,0.344035 -0.0924,0.515882 -0.02154,0.169603 -0.03674,0.337859 -0.07501,0.504739 -0.03846,0.159902 -0.04796,0.324217 -0.05431,0.487917 -0.01937,0.161522 0.04309,0.305817 0.09313,0.454905 0.0347,0.159748 0.09192,0.312978 0.130344,0.471714 0.03694,0.175579 0.04197,0.355483 0.0443,0.534229 0.0019,0.223369 4.64e-4,0.446744 6.64e-4,0.670119 -0.0014,0.221911 -4.63e-4,0.443829 2.8e-5,0.665742 4.26e-4,0.187759 5.53e-4,0.375518 6.25e-4,0.563277 -0.0095,0.17919 0.01385,0.355595 0.05718,0.529091 0.05738,0.183624 0.130205,0.360068 0.172483,0.54838 0.03596,0.183448 0.04048,0.370742 0.04363,0.557033 -0.0086,0.16125 -0.05066,0.31782 -0.07058,0.477934 -0.0069,0.158361 -0.0553,0.309743 -0.08195,0.465073 -0.01315,0.155026 -0.06313,0.302611 -0.0905,0.455115 -0.02779,0.194193 -0.02865,0.390983 -0.03069,0.586771 0.0047,0.180413 -0.01141,0.362264 0.0073,0.541988 0.04005,0.135967 0.0261,0.291739 0.09598,0.416987 0.111629,0.139408 0.272221,0.226416 0.418327,0.324819 0.184539,0.08717 0.318345,0.239376 0.464158,0.375825 0.123834,0.123134 0.162312,0.284937 0.184584,0.451974 0.03355,0.149838 0.06472,0.300094 0.105982,0.448051 0.02756,0.149675 0.100785,0.278901 0.182556,0.404553 0.07963,0.128198 0.155768,0.264299 0.280129,0.353561 0.159132,0.07902 0.343634,0.07517 0.517466,0.08057 0.25975,-0.06635 -0.03421,-0.385891 -0.956633,0.568935 -0.01938,0.01067 0.03776,-0.02455 0.05143,-0.04195 0.03807,-0.04843 0.03856,-0.08549 0.05033,-0.1432 0.0095,-0.165363 -0.03128,-0.32703 -0.09768,-0.477431 -0.07869,-0.15046 -0.120762,-0.306457 -0.102792,-0.475729 0.03123,-0.156975 0.138347,-0.277418 0.217242,-0.411647 0.07173,-0.128771 0.140414,-0.259039 0.206663,-0.390708 0.04993,-0.133761 0.107857,-0.263295 0.139732,-0.402848 0.03002,-0.167342 0.03111,-0.338002 0.03325,-0.507474 0.0012,-0.181699 3.98e-4,-0.363404 4e-5,-0.545104 -0.0014,-0.204701 0.0011,-0.409389 0.0015,-0.614086 0.0099,-0.252965 -0.006,-0.502992 -0.03711,-0.753814 -0.02081,-0.173618 -0.114526,-0.3206 -0.172437,-0.48193 -0.05208,-0.166587 -0.05896,-0.34169 -0.06436,-0.514761 -0.0019,-0.20642 -0.0014,-0.412853 -0.0012,-0.619278 0.01816,-0.235397 0.05329,-0.46951 0.09757,-0.701348 0.03195,-0.236462 0.09058,-0.467847 0.13083,-0.702755 0.02729,-0.203341 0.06214,-0.407039 0.125861,-0.602396 0.05513,-0.150379 0.08758,-0.307283 0.08608,-0.467495 -0.02353,-0.179178 -0.04905,-0.357723 -0.0629,-0.538007 -0.01196,-0.183014 -0.01294,-0.36649 -0.0138,-0.549817 0.01782,-0.179205 -0.01124,-0.268376 -0.08338,-0.423202 -0.09122,-0.145447 -0.127408,-0.310825 -0.170721,-0.474126 -0.06245,-0.192864 -0.08352,-0.393361 -0.09746,-0.594452 -0.01658,-0.211892 0.01846,-0.423629 0.0714,-0.628206 0.05737,-0.202014 0.113058,-0.404661 0.176116,-0.605009 0.06058,-0.178414 0.0848,-0.364464 0.09767,-0.551472 0.0231,-0.183325 0.0604,-0.364006 0.07955,-0.547956 0.01155,-0.19302 0.05866,-0.380932 0.08223,-0.572547 0.02216,-0.212524 0.02591,-0.426353 0.02791,-0.639837 9.17e-4,-0.199187 -4.7e-5,-0.398376 -5.37e-4,-0.597563 -4.37e-4,-0.182831 -5.38e-4,-0.365662 -6.01e-4,-0.548494 -0.0055,-0.174966 0.01053,-0.351195 -0.0074,-0.525507 -0.02334,-0.159261 -0.06669,-0.313564 -0.106909,-0.469005 -0.0448,-0.179214 -0.05671,-0.363731 -0.06411,-0.547575 -0.01981,-0.221163 0.01459,-0.430336 0.0906,-0.63737 0.06251,-0.161096 0.173873,-0.292617 0.289588,-0.418053 0.09697,-0.108091 0.200604,-0.2094387 0.298254,-0.3169627 l 1.250809,-0.513859 0,0 c -0.112595,0.08998 -0.190121,0.214928 -0.30398,0.303945 -0.10233,0.127893 -0.237302,0.233029 -0.307832,0.3838107 -0.09939,0.181136 -0.135668,0.37554 -0.11664,0.581472 0.0049,0.17477 0.01185,0.35056 0.05103,0.52168 0.04011,0.160619 0.09017,0.317894 0.115034,0.482113 0.02914,0.178968 0.0083,0.361594 0.01442,0.542379 2.6e-5,0.182858 7.6e-5,0.365716 1.32e-4,0.548574 2.5e-5,0.19996 1.07e-4,0.39992 -0.0011,0.599877 -0.0017,0.217338 -0.0019,0.434967 -0.02131,0.651643 -0.01841,0.191922 -0.0603,0.378797 -0.08117,0.56952 -0.01488,0.183132 -0.04103,0.364555 -0.08172,0.543876 -0.0094,0.196442 -0.02656,0.393301 -0.0849,0.582285 -0.06264,0.199142 -0.122112,0.398856 -0.177068,0.600313 -0.05649,0.190758 -0.103253,0.388168 -0.09254,0.588628 0.0106,0.19195 0.02683,0.384098 0.08642,0.568219 0.04536,0.155049 0.06947,0.31646 0.162857,0.453428 0.07546,0.163245 0.1324,0.288429 0.107985,0.476128 3.89e-4,0.18064 5.26e-4,0.361388 0.0097,0.541846 0.01136,0.180591 0.03252,0.359942 0.06376,0.53824 0.01925,0.174107 -0.0084,0.349215 -0.06201,0.515785 -0.06941,0.188237 -0.119925,0.382614 -0.140394,0.583132 -0.03542,0.237605 -0.09979,0.468352 -0.130819,0.706688 -0.04123,0.225041 -0.07694,0.450098 -0.104658,0.677425 -8.64e-4,0.205029 -0.0027,0.410092 9.78e-4,0.615103 0.0032,0.159803 0.0051,0.321803 0.04641,0.4773 0.05691,0.171905 0.158293,0.326769 0.179413,0.510586 0.0306,0.255464 0.05911,0.510019 0.04527,0.767945 5.27e-4,0.203946 0.0031,0.407881 0.0024,0.611832 3.28e-4,0.18211 10e-4,0.36422 7.56e-4,0.54633 -9.08e-4,0.176057 -9.99e-4,0.352666 -0.0211,0.527819 -0.144924,0.416674 -0.259654,0.817612 -0.359245,1.235319 -0.09374,0.314257 -0.01887,0.611709 -0.01149,0.911955 -6.45e-4,0.657213 -0.830163,1.004614 -1.447874,1.005985 -0.198048,-0.01313 -0.402106,-0.02687 -0.567554,-0.148972 -0.125336,-0.109518 -0.2179,-0.247076 -0.302587,-0.389636 -0.08973,-0.136136 -0.169987,-0.279021 -0.201616,-0.441025 -0.04433,-0.154588 -0.07845,-0.310608 -0.116646,-0.466889 -0.270532,-0.469485 -0.272062,-0.681152 -0.754681,-1.23437 -0.07779,-0.143626 -0.112071,-0.272248 -0.150056,-0.429218 -0.04676,-0.669787 -0.108754,-1.368626 -0.07601,-1.981698 0.01408,-0.156933 0.03956,-0.311408 0.07889,-0.464117 -0.0016,-0.178246 -0.0027,-0.357416 -0.03116,-0.533857 -0.03679,-0.18761 -0.109006,-0.361176 -0.16878,-0.541868 -0.05222,-0.181932 -0.08273,-0.370675 -0.0741,-0.560349 7.1e-5,-0.188006 1.91e-4,-0.376012 7.22e-4,-0.564018 6.49e-4,-0.222172 0.0019,-0.444346 0.0011,-0.66652 8.84e-4,-0.222414 0.0012,-0.444832 -10e-4,-0.66724 -0.0033,-0.169519 -0.0042,-0.340174 -0.03402,-0.507628 -0.03384,-0.155938 -0.09408,-0.303913 -0.12349,-0.460945 -0.05335,-0.162754 -0.131062,-0.320782 -0.114765,-0.497171 0.004,-0.1706 0.0091,-0.342093 0.04157,-0.51014 0.03637,-0.166255 0.07566,-0.327745 0.07973,-0.499446 0.02726,-0.17358 0.07766,-0.341842 0.09039,-0.517433 0.03164,-0.182268 0.09194,-0.357932 0.09304,-0.544782 0.02305,-0.193103 0.07021,-0.383023 0.05866,-0.578517 0.0013,-0.25124 0.0037,-0.502473 0.0045,-0.753716 -4.21e-4,-0.315472 2.46e-4,-0.631117 -0.01513,-0.946307 -0.01566,-0.258858 -0.03629,-0.518658 -0.09881,-0.771183 -0.02465,-0.186077 -0.07229,-0.35917 -0.167326,-0.522997 -0.06223,-0.173664 -0.131095,-0.344165 -0.153779,-0.528912 -0.05431,-0.222906 -0.08865,-0.450594 -0.167614,-0.66697 -0.101578,-0.288014 -0.205563,-0.575328 -0.34413,-0.848282 l 1.172348,-0.667517 z"
       inkscape:connector-curvature="0"
       sodipodi:nodetypes="ccccccccccccccccccccccccccccccccccccccccccccccccccccccccccccccccccccccccccccccccccccccccccccccccccccccccccccccccccccccccccccccccccccccccccc" />
    <path
       style="fill:#000000;fill-opacity:1;stroke:#000000;stroke-width:0.1;stroke-miterlimit:4;stroke-opacity:1;stroke-dasharray:none"
       id="path3773"
       d="m 33.168004,8.8501526 c 0.113067,0.293169 0.242115,0.579851 0.36875,0.867354 0.128319,0.23836 0.226507,0.4897114 0.31953,0.7432994 0.07383,0.207317 0.09167,0.427814 0.103739,0.645861 0.0079,0.190205 0.0068,0.380628 0.0064,0.570953 -6.06e-4,0.181816 -9.88e-4,0.363632 -0.0012,0.545448 -0.01594,0.246696 0.0159,0.488168 0.07097,0.727881 0.07108,0.262213 0.144853,0.524308 0.222354,0.784858 0.09004,0.249575 0.196264,0.492715 0.291584,0.740246 0.116526,0.239477 0.19407,0.489574 0.264941,0.745236 0.07776,0.271309 0.114885,0.550078 0.136305,0.830663 0.01685,0.225425 0.01977,0.45023 -0.0078,0.674664 -0.03983,0.226658 -0.04967,0.456565 -0.07356,0.684977 -0.04118,0.28625 -0.06589,0.57417 -0.07914,0.862947 -0.02524,0.225959 0.03099,0.44005 0.08976,0.655169 0.03516,0.177802 0.07714,0.350602 0.149297,0.517005 0.08915,0.124556 0.157479,0.260797 0.234788,0.392196 0.08452,0.128662 0.160766,0.252462 0.203739,0.401744 0.03495,0.149952 0.02484,0.305917 0.08408,0.449772 0.01043,0.01186 0.0189,0.02579 0.03128,0.03559 0.544826,0.799622 -0.117418,0.109099 -0.737616,0.838299 -0.01915,0.0097 0.03223,-0.02971 0.04211,-0.04879 0.01792,-0.03458 0.05291,-0.167482 0.06252,-0.201857 0.0471,-0.195498 0.06055,-0.395665 0.120259,-0.588158 0.04774,-0.132369 0.124279,-0.251146 0.177451,-0.380716 0.05063,-0.15396 0.05383,-0.317498 0.05842,-0.477978 0.0032,-0.18101 0.002,-0.362062 0.0015,-0.54309 -5.03e-4,-0.182096 -6.84e-4,-0.364193 -7.9e-4,-0.54629 0.0023,-0.184302 -0.0065,-0.36885 0.0072,-0.552747 0.01819,-0.203823 0.09762,-0.385553 0.201774,-0.558446 0.110225,-0.187377 0.280609,-0.325928 0.406102,-0.50101 0.0929,-0.126945 0.153854,-0.260168 0.182877,-0.414188 0.02328,-0.171667 0.02167,-0.345439 0.02207,-0.518314 0.0096,-0.16715 -0.0041,-0.328915 -0.03735,-0.492255 -0.03542,-0.167624 -0.04528,-0.338776 -0.05168,-0.509503 -0.02491,-0.154688 -0.05873,-0.307075 -0.0762,-0.463069 -0.01492,-0.175687 -0.01142,-0.35108 -0.03953,-0.525401 -0.03644,-0.186329 -0.05439,-0.375074 -0.06229,-0.56453 -0.0067,-0.205876 -0.0074,-0.411883 -0.0078,-0.617848 -0.01355,-0.190953 0.021,-0.377627 0.05045,-0.565124 0.02163,-0.183796 0.07222,-0.361967 0.101148,-0.544583 0.01903,-0.183582 0.06584,-0.362277 0.09272,-0.544689 0.03675,-0.181013 0.07849,-0.36006 0.10023,-0.543726 0.02378,-0.181941 0.09551,-0.352545 0.151221,-0.52632 0.05896,-0.189839 0.128075,-0.3767094 0.178208,-0.5691564 0.04168,-0.175668 0.04855,-0.356453 0.05309,-0.536131 0.0016,-0.12044 10e-4,-0.06018 0.0017,-0.180768 l 1.203092,-0.6124805 0,0 c -1.68e-4,0.1217478 6.6e-5,0.06083 -7.04e-4,0.182753 -0.0028,0.1879195 -0.0066,0.3768025 -0.04106,0.5621525 -0.04257,0.198736 -0.11588,0.387052 -0.173563,0.581521 -0.06008,0.164331 -0.106907,0.3325504 -0.162892,0.4980644 -0.01672,0.185166 -0.04568,0.368494 -0.09858,0.547172 -0.02186,0.184088 -0.06834,0.362738 -0.09216,0.545828 -0.02342,0.184457 -0.07245,0.36258 -0.100761,0.545509 -0.02604,0.182373 -0.07407,0.361822 -0.06012,0.547476 -3.84e-4,0.204406 -0.0013,0.408867 0.0047,0.613209 0.0077,0.183792 0.01955,0.367686 0.05563,0.548497 0.03208,0.177085 0.03899,0.353026 0.04493,0.532798 0.01494,0.159503 0.04579,0.315409 0.07984,0.471817 0.0046,0.163477 0.01074,0.327662 0.04253,0.488573 0.03523,0.171967 0.06243,0.340528 0.04821,0.517296 3.79e-4,0.178516 0.0023,0.357388 -0.01198,0.535482 -0.01878,0.167316 -0.0508,0.330326 -0.161488,0.463835 -0.102986,0.197574 -0.276733,0.326841 -0.406819,0.50519 -0.106609,0.153666 -0.201205,0.312617 -0.225469,0.501882 -0.03058,0.177282 -0.0073,0.359018 -0.0144,0.538284 7e-5,0.182018 1.81e-4,0.364036 6.4e-4,0.546053 4.7e-4,0.181934 0.0015,0.363873 2.19e-4,0.545806 -0.0024,0.171431 -0.004,0.344322 -0.03852,0.512962 -0.03726,0.142124 -0.113953,0.258304 -0.173714,0.390876 -0.119665,0.930696 -0.834891,1.602904 -1.223244,1.532516 -0.194337,0.0452 -0.608728,-0.203358 -0.70345,-0.339837 -0.06532,-0.149674 -0.0732,-0.306629 -0.09245,-0.466897 -0.03429,-0.139995 -0.110657,-0.249598 -0.18596,-0.370624 -0.07893,-0.136852 -0.15381,-0.275085 -0.242182,-0.406612 -0.07417,-0.172635 -0.126476,-0.349544 -0.156289,-0.535512 -0.06019,-0.228038 -0.129849,-0.454938 -0.103708,-0.694523 0.01278,-0.29127 0.03297,-0.582077 0.07403,-0.870935 0.029,-0.228057 0.02476,-0.459573 0.06911,-0.6861 0.03331,-0.216585 0.03659,-0.432207 0.02209,-0.651194 -0.01534,-0.272501 -0.0455,-0.544152 -0.120373,-0.807647 -0.07118,-0.251185 -0.146994,-0.497406 -0.261314,-0.733359 -0.09464,-0.251494 -0.203879,-0.497234 -0.294252,-0.750403 -0.07767,-0.26331 -0.156775,-0.526252 -0.228867,-0.790729 -0.05716,-0.24744 -0.102248,-0.497105 -0.09004,-0.752478 1.56e-4,-0.181921 4.21e-4,-0.363843 0.0012,-0.545763 7.47e-4,-0.188577 0.0025,-0.377199 -0.002,-0.565743 -0.0076,-0.205698 -0.01827,-0.414076 -0.08373,-0.611001 -0.08824,-0.252079 -0.180225,-0.502962 -0.307592,-0.738611 -0.129403,-0.28881 -0.524544,-0.9585364 -0.655197,-1.2467374 z"
       inkscape:connector-curvature="0"
       sodipodi:nodetypes="ccccccccccccccccccccccccccscccccccccccccccccccccccccccccccccccccccccccccccccccccccccccccccccc" />
    <path
       style="fill:#000000;fill-opacity:1;stroke:#000000;stroke-width:0.01;stroke-miterlimit:4;stroke-opacity:1;stroke-dasharray:none"
       id="path3775"
       d="m 41.020224,7.692363 c 0.04086,0.201624 0.103617,0.398028 0.160482,0.595521 0.0471,0.159838 0.06997,0.324556 0.08154,0.490309 0.0061,0.1493775 0.0058,0.2989185 0.0058,0.4483895 -1.58e-4,0.132112 -4.07e-4,0.264224 -5.37e-4,0.396336 0.0065,0.190595 0.05514,0.375238 0.101197,0.5591245 0.05854,0.227229 0.125247,0.452216 0.186986,0.678557 0.0449,0.181082 0.09454,0.361092 0.150917,0.538938 0.03228,0.123418 0.06155,0.246877 0.09573,0.369828 0.03115,0.117878 0.03746,0.239873 0.0418,0.361102 0.01422,0.125886 0.0363,0.250887 0.06751,0.373662 0.03604,0.154119 0.07825,0.30547 0.101392,0.462307 0.03257,0.211917 0.06013,0.424168 0.07481,0.638103 0.0107,0.169748 0.01384,0.339823 0.01526,0.50986 0.0035,0.129969 -0.0057,0.260401 0.0052,0.390034 0.01465,0.128761 0.04524,0.253947 0.0756,0.37958 0.03177,0.143178 0.06066,0.287338 0.09423,0.430168 0.0322,0.156297 0.102227,0.299838 0.168166,0.443855 0.05972,0.13428 0.113424,0.269174 0.14441,0.413068 0.0284,0.164829 0.02418,0.333021 0.02558,0.499668 0.0017,0.154582 -0.0059,0.308816 0.01603,0.46218 0.02951,0.153135 0.03663,0.308869 0.04295,0.464293 0.01097,0.19424 0.06139,0.382615 0.09222,0.574042 0.01862,0.190993 0.03426,0.38083 0.06686,0.570054 0.02703,0.115193 0.07427,0.22132 0.127768,0.326018 0.07419,0.116368 0.117541,0.247041 0.162836,0.376317 0.0556,0.177477 0.09884,0.358444 0.142209,0.539207 0.05611,0.228031 0.09664,0.459638 0.13524,0.691193 0.04291,0.210692 0.07561,0.419868 0.08953,0.634743 0.0174,0.264303 0.009,0.529041 0.03912,0.792389 0.02174,0.14631 0.03048,0.293977 0.06023,0.438944 0.02769,0.171205 0.04993,0.342285 0.106063,0.50694 0.0665,0.187416 0.154669,0.365824 0.23911,0.545548 0.07765,0.15091 0.116475,0.315776 0.162111,0.477933 0.04381,0.183947 0.07028,0.372115 0.09222,0.559842 0.02765,0.206389 0.07133,0.409852 0.108738,0.614498 0.04004,0.164476 0.07266,0.330585 0.116484,0.494092 0.04636,0.186648 0.05124,0.379532 0.07457,0.569722 0.03474,0.249087 0.03672,0.500733 0.05248,0.75125 0.01314,0.257242 0.04117,0.512193 0.08378,0.766031 0.01712,0.136015 0.03786,0.269677 0.07034,0.402769 0.03797,0.111493 0.09258,0.217108 0.14698,0.321473 0.05824,0.11066 0.09424,0.228793 0.131085,0.347529 0.04443,0.154689 0.09474,0.307472 0.135724,0.4632 0.0416,0.172722 0.09517,0.34127 0.148842,0.510385 0.04788,0.161584 0.05107,0.331556 0.06892,0.498144 0.0255,0.212836 0.03875,0.426769 0.04646,0.640895 0.0064,0.164752 -0.0048,0.329937 0.02141,0.493166 0.024,0.09538 0.08708,0.167207 0.155857,0.234399 0.08137,0.05641 0.158481,0.117944 0.237154,0.178235 0.09854,0.06315 0.196243,0.129567 0.27973,0.212216 0.09418,0.07973 0.16729,0.180865 0.238466,0.280793 0.06082,0.09357 0.110989,0.191746 0.155224,0.294168 0.0083,0.01473 0.01529,0.03025 0.02484,0.04418 0.0082,0.01203 0.03408,0.03753 0.03705,0.02326 0.0027,-0.01299 0.0063,-0.04561 -0.0054,-0.03942 -0.180577,0.13793 -0.435626,0.129467 -0.653439,0.194201 0.05646,-0.09553 0.09761,-0.193993 0.12794,-0.300428 0.03691,-0.09671 0.06543,-0.196493 0.06627,-0.300522 -0.02673,-0.08254 -0.08902,-0.142997 -0.12573,-0.22213 -0.0437,-0.114599 -0.04855,-0.23794 -0.05293,-0.359078 -9.57e-4,-0.128059 -0.0065,-0.25648 0.0027,-0.384302 0.01508,-0.119205 0.05523,-0.232667 0.0925,-0.346246 0.04262,-0.130325 0.105073,-0.252627 0.157475,-0.378969 0.05198,-0.104028 0.09032,-0.21076 0.119468,-0.323031 0.03518,-0.106232 0.06413,-0.214395 0.09441,-0.322115 0.02955,-0.128213 0.06376,-0.255451 0.103989,-0.380731 0.03855,-0.133659 0.06713,-0.270438 0.09441,-0.406856 0.02729,-0.155339 0.03529,-0.313005 0.03984,-0.470367 0.0028,-0.132146 0.0022,-0.264332 0.002,-0.396499 -2.86e-4,-0.128359 -4.3e-4,-0.256718 -5.11e-4,-0.385077 8.1e-5,-0.131147 -4.82e-4,-0.262296 4.49e-4,-0.39344 4.72e-4,-0.14498 1.4e-5,-0.289961 -2.15e-4,-0.434941 0.01684,-0.158929 0.03551,-0.318202 0.05788,-0.476553 0.02183,-0.138746 0.0476,-0.275733 0.08642,-0.410685 0.02973,-0.117302 0.06789,-0.231628 0.08985,-0.350784 0.01997,-0.121527 0.01461,-0.244836 0.03642,-0.366002 0.02968,-0.120351 0.03517,-0.244307 0.06016,-0.365439 0.02988,-0.116913 0.04268,-0.236559 0.04981,-0.356684 0.0057,-0.126773 0.0054,-0.253714 0.0054,-0.380585 0.0073,-0.113715 0.03598,-0.224311 0.04959,-0.337405 0.01233,-0.122883 0.01324,-0.24651 0.01425,-0.369889 0.0048,-0.163119 -0.0038,-0.326491 0.0067,-0.489357 0.0141,-0.161664 0.04893,-0.32003 0.0912,-0.476369 0.04715,-0.127415 0.06719,-0.26092 0.09063,-0.393867 0.02585,-0.136245 0.07153,-0.267847 0.11988,-0.397516 0.04998,-0.135987 0.132292,-0.25685 0.217271,-0.373104 0.07708,-0.08383 0.130369,-0.176659 0.175765,-0.280146 0.04851,-0.115234 0.05904,-0.239617 0.06689,-0.36292 0.0058,-0.144389 0.0046,-0.288942 0.0041,-0.433413 -5.58e-4,-0.131179 -8.62e-4,-0.262359 -10e-4,-0.393539 -1.3e-4,-0.128483 -1.28e-4,-0.256966 -1.32e-4,-0.385449 6.27e-4,-0.164831 0.0014,-0.329658 0.0024,-0.494488 3.77e-4,-0.210923 9.66e-4,-0.421849 1.63e-4,-0.632772 0.0024,-0.243633 0.0047,-0.486415 -0.01441,-0.729436 -0.0053,-0.191346 -0.05694,-0.370217 -0.141141,-0.540229 -0.06655,-0.12948 -0.08521,-0.274329 -0.09749,-0.417391 -0.0077,-0.150644 -0.0073,-0.30155 -0.0074,-0.452346 -5.08e-4,-0.135533 -0.0042,-0.270413 0.01552,-0.404767 0.0162,-0.118616 0.059,-0.230994 0.09263,-0.345384 0.03184,-0.116099 0.09121,-0.220738 0.149627,-0.324978 0.0606,-0.08563 0.09948,-0.183504 0.140813,-0.279272 0.03248,-0.100789 0.06937,-0.200117 0.108244,-0.298639 0.04548,-0.131145 0.09277,-0.261726 0.144068,-0.390713 0.05792,-0.138641 0.105525,-0.281193 0.162255,-0.420387 0.04518,-0.132536 0.102357,-0.260409 0.152591,-0.390956 0.04998,-0.10778 0.08773,-0.219588 0.126346,-0.331739 0.04146,-0.116636 0.054,-0.239533 0.06157,-0.362199 0.0062,-0.140772 0.0059,-0.281716 0.0056,-0.422591 -5.08e-4,-0.136775 -9.6e-4,-0.273551 -0.0012,-0.410327 -1.89e-4,-0.128965 -1.97e-4,-0.257929 -2.07e-4,-0.386894 -4e-6,-0.128461 2e-6,-0.256923 5e-6,-0.385385 3e-6,-0.128552 3e-6,-0.257104 4e-6,-0.385656 0,-0.128566 0,-0.257132 0,-0.385697 0.002,-0.12784 -0.0046,-0.255928 0.0043,-0.383532 0.01582,-0.11595 0.04582,-0.2287175 0.07641,-0.3413845 0.0341,-0.129869 0.09225,-0.251186 0.131922,-0.37916 0.04612,-0.12118 0.07776,-0.244772 0.09479,-0.37319 0.0038,-0.09885 0.02933,-0.5579705 0.04894,-0.6543315 L 49.925,8.34261 l 0,0 c -0.01592,0.09591 -0.04842,0.188432 -0.0532,0.285572 -0.01294,0.131707 -0.03074,0.2659545 -0.08823,0.3866765 -0.03247,0.130209 -0.08766,0.250742 -0.132199,0.376912 -0.02638,0.110895 -0.06209,0.218477 -0.08054,0.331283 -0.02632,0.121525 -0.0036,0.2489 -0.01106,0.3724805 0,0.128566 0,0.257132 0,0.385697 0,0.128552 0,0.257104 0,0.385656 0,0.12846 0,0.256919 -10e-7,0.385379 -2e-6,0.128971 -5e-6,0.257942 -9e-6,0.386914 -2e-6,0.136954 -6e-6,0.273909 6.1e-5,0.410863 8.5e-5,0.14212 0.0018,0.284284 -0.002,0.426367 -0.0053,0.129539 -0.01345,0.259931 -0.04997,0.385117 -0.03618,0.113489 -0.0668,0.23008 -0.126403,0.334146 -0.0443,0.134102 -0.110483,0.259378 -0.151678,0.394656 -0.05562,0.140634 -0.113514,0.280042 -0.160619,0.423899 -0.06176,0.121777 -0.09967,0.25577 -0.14448,0.384393 -0.03581,0.09948 -0.07972,0.19644 -0.107528,0.297905 -0.03324,0.103623 -0.08221,0.203402 -0.13275,0.299219 -0.06894,0.08908 -0.121073,0.197421 -0.160245,0.302286 -0.04007,0.107859 -0.06989,0.222082 -0.09987,0.33242 -0.02412,0.129975 -0.02667,0.259013 -0.02313,0.391311 -7.42e-4,0.148566 -0.0024,0.297244 0.0043,0.445707 0.0082,0.131812 0.02007,0.265833 0.07997,0.385915 0.08659,0.181759 0.145614,0.372432 0.149718,0.575855 0.01947,0.24439 0.02669,0.488624 0.02219,0.733837 -8e-4,0.210869 0.113418,0.376285 0.113795,0.587154 9.93e-4,0.16403 -0.111936,0.373513 -0.111336,0.537545 2e-6,0.128463 4e-6,0.256926 6.2e-5,0.385389 7.3e-5,0.131246 2.09e-4,0.262492 3.98e-4,0.393738 1.24e-4,0.145862 4.41e-4,0.291741 -0.0025,0.437582 -0.0035,0.131647 -0.01131,0.264454 -0.05134,0.390911 -0.03956,0.10911 -0.07754,0.222508 -0.16723,0.301418 -0.07943,0.114089 -0.171371,0.221326 -0.227868,0.349899 -0.04592,0.126739 -0.09961,0.252485 -0.125761,0.384947 -0.03286,0.133015 -0.03477,0.273497 -0.08819,0.40201 -0.05052,0.148543 -0.08203,0.303943 -0.09996,0.459667 -0.02129,0.159067 -0.0053,0.320482 -0.0086,0.480605 -4.63e-4,0.125959 -6.92e-4,0.252057 -0.0094,0.377779 -0.0096,0.111196 -0.02696,0.220799 -0.05477,0.329009 1.25e-4,0.128234 6.33e-4,0.256502 -0.0031,0.384697 -0.005,0.124644 -0.01275,0.249733 -0.04243,0.371387 -0.02958,0.120608 -0.0366,0.241846 -0.05985,0.363691 -0.02893,0.119807 -0.02893,0.239783 -0.03948,0.362482 -0.01712,0.123375 -0.05136,0.240712 -0.0846,0.360079 -0.03592,0.13392 -0.07824,0.264371 -0.09436,0.403173 -0.02916,0.15253 -0.03129,0.309062 -0.06277,0.46155 -2.31e-4,0.145054 -6.93e-4,0.290108 -2.22e-4,0.435161 9.39e-4,0.130952 3.63e-4,0.261908 5.66e-4,0.392862 6.7e-5,0.128337 1.86e-4,0.256674 4.27e-4,0.385011 1.98e-4,0.133146 7.02e-4,0.266308 -0.0017,0.39944 -0.0041,0.161674 -0.01191,0.323459 -0.03525,0.483683 -0.02139,0.140645 -0.05543,0.278802 -0.08658,0.417469 -0.0395,0.123852 -0.08029,0.247853 -0.10549,0.375486 -0.0262,0.110184 -0.0602,0.218127 -0.09074,0.32699 -0.04369,0.10764 -0.04627,0.231389 -0.119567,0.328275 -0.04543,0.128922 -0.113572,0.247741 -0.157483,0.377205 -0.04257,0.105899 -0.07441,0.216737 -0.100323,0.327702 -0.0265,0.120723 -0.0051,0.247476 -0.01066,0.370311 0.0026,0.108812 0.0032,0.220117 0.03682,0.324718 0.03969,0.08974 -0.04142,0.348829 -0.01706,0.446597 -0.01947,0.251332 0.0056,0.294329 -0.04425,0.477447 -0.03594,0.08875 -0.05093,0.14446 -0.09736,0.226016 -0.726789,0.51412 -0.791795,0.188866 -1.33565,-0.164253 -0.08447,-0.07667 -0.199172,-0.125359 -0.2924,-0.190736 -0.08296,-0.06162 -0.164524,-0.125206 -0.244659,-0.190429 -0.07952,-0.08438 -0.153505,-0.170732 -0.18323,-0.28584 -0.02888,-0.168016 -0.01964,-0.336761 -0.0231,-0.506776 -0.0051,-0.212065 -0.01504,-0.424169 -0.04059,-0.634893 -0.01974,-0.160244 -0.0297,-0.32246 -0.06629,-0.479835 -0.05067,-0.171475 -0.102874,-0.341954 -0.147816,-0.515124 -0.04099,-0.153743 -0.09146,-0.304536 -0.136957,-0.456888 -0.03743,-0.112898 -0.06674,-0.227767 -0.1242,-0.333196 -0.05721,-0.111652 -0.113803,-0.224407 -0.158477,-0.3416 -0.0319,-0.13649 -0.05722,-0.271958 -0.06837,-0.412128 -0.03872,-0.257839 -0.06525,-0.515964 -0.08115,-0.776339 -0.02116,-0.248086 -0.0206,-0.497808 -0.05447,-0.744915 -0.02336,-0.185413 -0.0344,-0.372675 -0.07365,-0.555574 -0.04385,-0.16659 -0.07512,-0.335641 -0.11647,-0.502942 -0.03649,-0.206936 -0.0815,-0.412155 -0.110445,-0.620462 -0.02039,-0.182888 -0.04994,-0.364489 -0.09032,-0.544005 -0.04292,-0.157699 -0.07707,-0.318727 -0.149935,-0.466325 -0.08567,-0.182646 -0.177426,-0.363064 -0.245351,-0.55333 -0.05938,-0.167131 -0.08891,-0.340712 -0.115612,-0.515675 -0.03182,-0.148623 -0.04277,-0.298843 -0.05964,-0.449866 -0.02742,-0.265479 -0.02014,-0.531949 -0.03574,-0.79825 -0.01588,-0.211374 -0.05184,-0.41713 -0.08946,-0.625238 -0.03542,-0.229546 -0.07783,-0.458412 -0.130126,-0.68468 -0.04609,-0.17667 -0.09115,-0.353533 -0.145395,-0.527887 -0.043,-0.125364 -0.08389,-0.252372 -0.156685,-0.364426 -0.05848,-0.113555 -0.111501,-0.227283 -0.140491,-0.352719 -0.03035,-0.190301 -0.0481,-0.380543 -0.0639,-0.572551 -0.02982,-0.195132 -0.081,-0.386159 -0.09968,-0.582976 -0.0048,-0.151847 -0.01173,-0.303976 -0.03988,-0.453644 -0.02519,-0.158241 -0.02266,-0.315934 -0.01919,-0.476014 -5.16e-4,-0.160595 4.56e-4,-0.322119 -0.02077,-0.481599 -0.02534,-0.138297 -0.07604,-0.266413 -0.132084,-0.394985 -0.06719,-0.149517 -0.141998,-0.297628 -0.177449,-0.458801 -0.03647,-0.142146 -0.06114,-0.287748 -0.09571,-0.430298 -0.03008,-0.129347 -0.06517,-0.25686 -0.08093,-0.389168 -0.01958,-0.132393 -0.0061,-0.266709 -0.0093,-0.400233 2.4e-4,-0.169005 1.66e-4,-0.338096 -0.0082,-0.50694 -0.01279,-0.211394 -0.03425,-0.422161 -0.07459,-0.630293 -0.02011,-0.153821 -0.06066,-0.301572 -0.09832,-0.451679 -0.03371,-0.129321 -0.05712,-0.259965 -0.07794,-0.39205 -0.0029,-0.114138 -0.0061,-0.229211 -0.03228,-0.340882 -0.03223,-0.122646 -0.06418,-0.244287 -0.09106,-0.368251 -0.05518,-0.17994 -0.104416,-0.361697 -0.147243,-0.545014 -0.06109,-0.22696 -0.128132,-0.452339 -0.189234,-0.679308 -0.04809,-0.190491 -0.09889,-0.380735 -0.117868,-0.576964 1.78e-4,-0.1322745 5e-4,-0.2645495 0.0012,-0.3968215 7.06e-4,-0.147735 0.0022,-0.295545 -0.0031,-0.443216 -0.0076,-0.159847 -0.02436,-0.319303 -0.0679,-0.4739195 C 40.290898,8.543814 40.183975,8.056843 40.13211,7.857238 L 41.020126,7.69236 z"
       inkscape:connector-curvature="0"
       sodipodi:nodetypes="cccccccccccccccccccccccccccccccccccccccccccccccccccccccccccccccccccccccccccccccccccccccccccccccccccccccccccccccsscccccccccccccsssccccccccccccccccccccccccccccccccccccccccccccccccccccccccccccccccccccccccccccccccccccccccccccccccccccccccccc" />
    <path
       style="fill:#000000;fill-opacity:1;stroke:#000000;stroke-width:0.05;stroke-miterlimit:4;stroke-opacity:1;stroke-dasharray:none"
       id="path4002"
       d="m 11.579275,12.075111 c -0.09932,0.277132 -0.188633,0.557486 -0.292662,0.833024 -0.08682,0.194048 -0.164322,0.389399 -0.204184,0.598602 -0.03037,0.199046 -0.02827,0.400989 -0.03011,0.601772 3.97e-4,0.243331 1.09e-4,0.486662 6.81e-4,0.729993 -8.34e-4,0.296325 -0.0021,0.59264 -6.92e-4,0.888965 0.0021,0.288051 -8.82e-4,0.576104 -4.1e-4,0.864158 0.0059,0.260674 -0.01034,0.522628 0.01063,0.782719 0.0089,0.181125 0.08147,0.346896 0.121993,0.521116 0.07319,0.229732 0.104078,0.467138 0.121189,0.70668 0.01574,0.259093 0.02042,0.518663 0.02278,0.778166 5.8e-4,0.272304 -0.004,0.544573 -0.004,0.816886 0.0029,0.297306 -3.56e-4,0.594607 -4.65e-4,0.891911 -0.0013,0.280984 0.0028,0.561954 0.0025,0.842935 7.42e-4,0.292704 0.0028,0.584487 -0.02433,0.876096 -0.02729,0.231217 -0.04697,0.463028 -0.05856,0.695528 -0.0086,0.257307 -0.01026,0.514757 -0.0097,0.772186 0.0036,0.291961 0.0034,0.582819 -0.02315,0.873706 -0.01204,0.241159 -0.06428,0.476085 -0.108166,0.712552 -0.02262,0.211063 -0.06265,0.419252 -0.09681,0.628611 -0.04991,0.209392 -0.09041,0.419596 -0.113397,0.633677 -0.01968,0.232888 -0.01992,0.466771 -0.02028,0.700306 -0.0027,0.195916 0.0083,0.392131 -0.0058,0.587659 -0.02935,0.180194 -0.05654,0.360214 -0.0708,0.542297 -0.01165,0.180044 -0.01217,0.360549 -0.01283,0.540892 -3.03e-4,0.200152 -9.93e-4,0.400296 -6.1e-4,0.600448 5.09e-4,0.193348 8.32e-4,0.386697 0.001,0.580046 0.02155,0.153181 0.04666,0.307053 0.07859,0.458568 0.04442,0.169535 0.06964,0.342389 0.111747,0.51237 0.04685,0.211395 0.06432,0.427444 0.07545,0.643187 0.02371,0.25478 -0.0739,0.494331 -0.157843,0.729747 -0.09029,0.253512 -0.169288,0.510883 -0.243438,0.769527 -0.0651,0.23876 -0.115684,0.481684 -0.165163,0.724189 -0.04643,0.182382 -0.103282,0.360595 -0.131603,0.547043 -0.02157,0.174606 -0.02209,0.350849 -0.0232,0.526503 -3.92e-4,0.181438 2.98e-4,0.362876 6.27e-4,0.544314 8.99e-4,0.190693 -1.38e-4,0.38138 -6.01e-4,0.572071 0.01359,0.206652 -0.01989,0.40942 -0.04982,0.612847 -0.02277,0.168578 -0.04381,0.337629 -0.01744,0.506561 0.07063,0.180122 0.11095,0.362351 0.130718,0.554435 0.02211,0.317639 0.02238,0.636315 0.02509,0.95457 0.002,0.234701 0.0029,0.469409 0.0033,0.704117 0.02444,0.277189 0.05699,0.553985 0.115045,0.826238 0.06354,0.270544 0.160894,0.531641 0.248845,0.794935 0.06801,0.224695 0.133882,0.449523 0.201926,0.674208 0.0587,0.174219 0.137828,0.339562 0.18995,0.51602 0.04809,0.174691 0.08,0.354285 0.130559,0.528109 0.04449,0.161423 0.107321,0.315846 0.172103,0.469878 0.07044,0.182327 0.1392,0.365098 0.198415,0.551427 0.0695,0.280786 0.110527,0.569007 0.149123,0.855668 0.04048,0.222513 0.08193,0.444493 0.140314,0.662947 0.04897,0.189594 0.11027,0.374533 0.145703,0.567486 0.01919,0.182675 0.04635,0.36399 0.093,0.541829 0.03239,0.181235 0.153544,0.298756 0.275629,0.424315 0.149005,0.138695 0.265426,0.303383 0.375909,0.472908 0.10322,0.178673 0.204676,0.358809 0.283608,0.549684 0.08515,0.175885 0.131856,0.365539 0.187982,0.551697 0.07999,0.187214 0.146297,0.380337 0.19392,0.57823 0.07591,0.259553 0.113514,0.52737 0.169473,0.791386 0.047,0.224358 0.07874,0.452778 0.143489,0.672968 0.05865,0.189904 0.120031,0.37846 0.188633,0.564991 0.06314,0.167879 0.127163,0.334271 0.184369,0.504439 0.07253,0.174706 0.162834,0.341728 0.273162,0.495351 0.106869,0.147899 0.17422,0.320051 0.230402,0.492499 0.0729,0.171926 0.152463,0.341269 0.236162,0.508184 0.08188,0.164066 0.150284,0.335314 0.237389,0.496667 0.05593,0.124727 0.17276,0.203689 0.27852,0.285232 0.127355,0.08334 0.258047,0.161245 0.388411,0.24034 0.149175,0.08542 0.302687,0.169883 0.442102,0.271071 0.149382,0.07155 0.210972,0.220103 0.302051,0.346906 0.01991,0.02441 0.03981,0.04881 0.05972,0.07322 0,0 -1.156261,0.6943 -1.156261,0.6943 l 0,0 c -0.02262,-0.02657 -0.04524,-0.05314 -0.06786,-0.07971 -0.08386,-0.116623 -0.139477,-0.242494 -0.276887,-0.308144 -0.141914,-0.09313 -0.287992,-0.180837 -0.436304,-0.263322 -0.137247,-0.07917 -0.270966,-0.163662 -0.400194,-0.255458 -0.117235,-0.09726 -0.246527,-0.186449 -0.306675,-0.332294 -0.08608,-0.16331 -0.153427,-0.336218 -0.234072,-0.50229 -0.08722,-0.173222 -0.176141,-0.345732 -0.249926,-0.525177 -0.04886,-0.160338 -0.112268,-0.319372 -0.20898,-0.457135 -0.114241,-0.166101 -0.213573,-0.341704 -0.293123,-0.527148 -0.0601,-0.168136 -0.116112,-0.337399 -0.180606,-0.50392 -0.06899,-0.189209 -0.137054,-0.378419 -0.19319,-0.571975 -0.06725,-0.223458 -0.101493,-0.455959 -0.14498,-0.684908 -0.05424,-0.263062 -0.0913,-0.529811 -0.168853,-0.78754 -0.04588,-0.195494 -0.114782,-0.38496 -0.193864,-0.569421 -0.05431,-0.182409 -0.09848,-0.368657 -0.181499,-0.540943 -0.07254,-0.184119 -0.172186,-0.355439 -0.269981,-0.527087 -0.106696,-0.162168 -0.22006,-0.318137 -0.364241,-0.449891 -0.136395,-0.140743 -0.267554,-0.283894 -0.308687,-0.482855 -0.05315,-0.180364 -0.08463,-0.366703 -0.09966,-0.553999 -0.03009,-0.190324 -0.08985,-0.371113 -0.13933,-0.556694 -0.06073,-0.224939 -0.09947,-0.453612 -0.142011,-0.68282 -0.03321,-0.279182 -0.07785,-0.557639 -0.143211,-0.831048 -0.0582,-0.18235 -0.12664,-0.360852 -0.194455,-0.539747 C 10.233974,44.347438 10.164448,44.19058 10.1205,44.024004 10.066557,43.850541 10.038683,43.668401 9.9898969,43.493298 9.9419454,43.315676 9.8601442,43.151942 9.8004097,42.978269 9.737315,42.753534 9.6730852,42.529577 9.6085159,42.305293 9.5159386,42.038077 9.4176563,41.771415 9.3547541,41.495378 9.2938424,41.215543 9.2554465,40.931981 9.2176615,40.648227 c 0.00116,-0.235732 0.00338,-0.471457 0.00441,-0.707191 1.589e-4,-0.313775 3.24e-4,-0.62801 -0.022544,-0.941125 -0.019056,-0.18845 -0.056134,-0.368074 -0.133047,-0.542452 -0.034578,-0.18208 -0.025885,-0.362204 6.861e-4,-0.545626 0.027468,-0.198493 0.075108,-0.394564 0.059684,-0.596391 -5.182e-4,-0.190287 -0.00162,-0.380571 -0.00131,-0.570861 -2.911e-4,-0.181648 -8.632e-4,-0.363296 -0.00107,-0.544945 2.805e-4,-0.180571 -2.3e-4,-0.361481 0.015258,-0.541539 0.021153,-0.191144 0.06362,-0.376804 0.1323813,-0.556916 0.046257,-0.246994 0.1047067,-0.491453 0.1602681,-0.736437 0.081109,-0.259456 0.1511857,-0.522237 0.2419835,-0.778906 0.084823,-0.215129 0.1824388,-0.44384 0.1758221,-0.678222 -0.00754,-0.207095 -0.019294,-0.415065 -0.064301,-0.618002 -0.044015,-0.17051 -0.069929,-0.343165 -0.1133392,-0.513932 -0.041259,-0.159643 -0.057465,-0.325503 -0.092037,-0.486864 1.362e-4,-0.193588 3.966e-4,-0.387177 6.152e-4,-0.580765 6.52e-5,-0.199976 -0.00128,-0.39994 -0.00141,-0.599915 2.389e-4,-0.182974 1.603e-4,-0.366048 0.00881,-0.548863 0.010949,-0.18408 0.030078,-0.367459 0.068178,-0.548159 0.031972,-0.189431 0.00562,-0.383812 0.014794,-0.575219 0.00138,-0.237017 0.00223,-0.474263 0.015673,-0.710956 0.015825,-0.216259 0.046459,-0.432095 0.1077272,-0.640606 0.031301,-0.210928 0.08393,-0.417941 0.095647,-0.631465 0.040733,-0.235654 0.1070775,-0.466321 0.1193725,-0.7064 0.03103,-0.286681 0.03295,-0.572781 0.0276,-0.861061 6.97e-4,-0.258305 -0.0032,-0.516652 0.0033,-0.774897 0.007,-0.236174 0.02869,-0.471338 0.05973,-0.705578 0.03249,-0.287017 0.03454,-0.573472 0.02743,-0.862218 -2.48e-4,-0.281848 0.0038,-0.563686 0.0025,-0.845538 -5.5e-5,-0.297298 -0.0033,-0.594596 1.95e-4,-0.891893 4.84e-4,-0.270975 -0.0031,-0.541916 -0.0026,-0.812885 6.42e-4,-0.257534 9.96e-4,-0.51526 -0.0135,-0.772485 -0.01714,-0.232214 -0.04182,-0.463866 -0.119228,-0.685136 -0.038829,-0.180351 -0.117212,-0.350197 -0.1271397,-0.536922 -0.030848,-0.264286 -0.00147,-0.53193 -0.011103,-0.797507 4.797e-4,-0.287906 -0.00244,-0.575811 -4.192e-4,-0.863714 0.00129,-0.295847 4.79e-5,-0.591683 -0.00164,-0.887527 -2.887e-4,-0.243201 -0.00228,-0.486394 -0.00258,-0.729595 -0.00105,-0.206636 -0.00407,-0.414115 0.017605,-0.619886 0.031101,-0.219301 0.093981,-0.428617 0.1978464,-0.625407 0.104916,-0.27357 0.2099,-0.546853 0.287469,-0.829889 0,0 1.223796,-0.569221 1.223796,-0.569221 z"
       inkscape:connector-curvature="0" />
    <path
       style="fill:#000000;fill-opacity:1;stroke:#000000;stroke-width:0.05;stroke-miterlimit:4;stroke-opacity:1;stroke-dasharray:none"
       id="path4004"
       d="m 15.986908,54.568182 c 0.315081,-0.07783 0.630773,-0.149669 0.952004,-0.198001 0.224036,-0.05291 0.44892,-0.09457 0.670911,-0.154472 0.159261,-0.03356 0.304251,-0.109185 0.449369,-0.178961 0.02308,-0.0077 0.04744,-0.0124 0.06924,-0.02324 0.04028,-0.02003 0.154858,-0.09165 0.115918,-0.06912 -1.942519,1.123866 -1.337872,0.796599 -0.949894,0.535759 3.355641,-1.92544 0.100913,-0.05519 0.149974,-0.08516 0.40279,-0.246018 0.8202,-0.467361 1.226007,-0.70837 0.361432,-0.214655 -0.727305,0.421765 -1.092872,0.629301 -0.01953,0.01109 0.03711,-0.02735 0.123998,-0.0867 0.129026,-0.08035 0.247769,-0.174099 0.368068,-0.266435 0.487385,-0.347006 0.973087,-0.770774 1.567932,-0.883623 0.180357,-0.02825 0.356574,-0.07621 0.530919,-0.130407 0.172985,-0.04808 0.357651,-0.07515 0.520375,-0.152731 0.156919,-0.0541 0.314987,-0.108274 0.476748,-0.147281 0.165704,-0.05357 0.309199,-0.146377 0.47838,-0.190342 0.157592,-0.02511 0.29212,-0.115649 0.443442,-0.163284 0.0222,-0.0132 0.04441,-0.02641 0.06661,-0.03962 0,0 -1.056807,0.843067 -1.056807,0.843067 l 0,0 c -0.0248,0.0095 -0.0496,0.01906 -0.0744,0.02858 -0.146299,0.06146 -0.291174,0.124393 -0.446713,0.159587 -0.159907,0.06332 -0.312118,0.146369 -0.481409,0.184787 -0.157754,0.04883 -0.316315,0.09554 -0.469611,0.157365 -0.174617,0.04964 -0.349521,0.09751 -0.524826,0.144508 -0.176186,0.05081 -0.35673,0.08448 -0.534325,0.129766 -0.412616,0.156347 -1.147091,0.644094 0.951181,-0.573386 0.145441,-0.08439 -0.322055,0.225795 -0.191968,0.131217 -0.119858,0.09428 -0.233527,0.196352 -0.36622,0.271536 -0.415475,0.310364 -0.931261,0.524798 -1.339461,0.803799 -0.345087,0.235863 1.448861,-0.834393 1.085117,-0.628464 -0.370537,0.209774 -2.706784,1.568741 -0.151197,0.08357 -0.02501,0.01466 -0.05003,0.02932 -0.07504,0.04398 -0.02226,0.01719 -0.04252,0.03734 -0.06678,0.05157 -0.479147,0.28099 -0.915322,0.573646 -1.410355,0.793106 -0.146789,0.07004 -0.303977,0.118425 -0.461967,0.156027 -0.221965,0.05608 -0.4485,0.09345 -0.672719,0.139225 -0.321329,0.05349 -0.637388,0.129545 -0.952188,0.212985 0,0 1.072555,-0.820138 1.072555,-0.820138 z"
       inkscape:connector-curvature="0" />
    <path
       style="fill:#000000;fill-opacity:1;stroke:#000000;stroke-width:0.05;stroke-miterlimit:4;stroke-opacity:1;stroke-dasharray:none"
       id="path4008"
       d="m 54.537516,10.556941 c 0.122819,0.251274 0.231384,0.510364 0.324281,0.774209 0.06854,0.199246 0.09074,0.408093 0.101293,0.617158 0.02505,0.156036 0.05824,0.309929 0.07528,0.467298 0.01754,0.191271 0.01599,0.383524 0.01696,0.57539 8.46e-4,0.215791 -3.96e-4,0.431578 -1.73e-4,0.647371 0.0075,0.199065 -0.03625,0.394551 -0.0616,0.590942 -0.02153,0.179203 -0.02539,0.35979 -0.02798,0.540055 -0.0017,0.181383 -0.0011,0.362778 -9.35e-4,0.544166 -0.01313,0.203465 0.02251,0.403277 0.05023,0.603824 0.01866,0.184733 0.04043,0.370317 0.09601,0.54809 0.04241,0.145782 0.116647,0.277725 0.162533,0.422135 0.03804,0.148032 0.08949,0.290389 0.116734,0.441281 0.04576,0.172417 0.08104,0.346152 0.101271,0.523384 0.0175,0.183291 0.01864,0.367577 0.01976,0.551535 1.4e-5,0.212946 -0.0016,0.425892 -0.0021,0.638839 -0.0016,0.234482 -2.51e-4,0.468971 4.95e-4,0.703453 -0.01219,0.192818 -0.05084,0.382425 -0.07074,0.574544 -0.01625,0.179248 -0.01801,0.359345 -0.01943,0.539189 -7.95e-4,0.181532 -3.32e-4,0.363068 -1.29e-4,0.544601 0.0133,0.187372 -0.02118,0.370521 -0.05005,0.554491 -0.0285,0.151601 -0.02925,0.302846 0.01726,0.45049 0.04364,0.133651 0.114657,0.253932 0.158462,0.387497 0.02624,0.151933 0.07301,0.298826 0.105621,0.449365 0.03268,0.171745 0.03717,0.346942 0.04084,0.521205 0.0025,0.181877 0.0018,0.363778 0.0015,0.545666 2.38e-4,0.190759 -9.66e-4,0.381511 -0.0015,0.572267 -0.01421,0.208253 -0.0444,0.415912 -0.0926,0.619022 -0.03638,0.184905 -0.09074,0.365439 -0.131625,0.549245 -0.04111,0.176977 -0.089,0.351394 -0.160099,0.51871 -0.08097,0.157699 -0.127577,0.329303 -0.188929,0.494957 -0.07674,0.209026 -0.157984,0.416159 -0.247759,0.619935 -0.08892,0.170559 -0.137835,0.352909 -0.162829,0.542414 -0.01805,0.17893 -0.01697,0.359038 -0.01707,0.538661 0.0075,0.165709 0.05943,0.32087 0.108375,0.477412 0.06116,0.168408 0.12482,0.336154 0.178764,0.507054 0.05395,0.181342 0.06744,0.370191 0.07551,0.558123 -0.0016,0.160442 0.04327,0.315773 0.06618,0.473649 0.02629,0.201578 0.0244,0.405164 0.02461,0.608001 -0.0016,0.287061 -2.56e-4,0.574118 0.0012,0.861176 -0.002,0.197956 0.01353,0.396351 -0.0175,0.592567 -0.02667,0.1649 -0.07115,0.325658 -0.119847,0.48519 -0.06066,0.150986 -0.108617,0.306776 -0.155681,0.462443 -0.05757,0.15276 -0.106289,0.308244 -0.157754,0.463187 -0.05023,0.172152 -0.08231,0.348906 -0.122944,0.523604 -0.04053,0.17536 -0.05133,0.355127 -0.0579,0.534368 -0.0047,0.181227 -0.0039,0.362537 -0.0037,0.543807 0.01433,0.170304 -0.01653,0.334813 -0.04801,0.500862 -0.02035,0.154101 -0.06871,0.302286 -0.108229,0.452203 -0.05913,0.191804 -0.113428,0.385676 -0.186314,0.572822 -0.06735,0.158725 -0.171955,0.295395 -0.25218,0.447773 -0.129644,0.170456 -0.271003,0.334253 -0.415131,0.493142 -0.122122,0.142297 -0.261844,0.266226 -0.364078,0.424136 -0.107296,0.240986 -0.178012,0.499629 -0.25263,0.752985 -0.0454,0.196036 -0.09023,0.391531 -0.150932,0.583555 -0.06653,0.131346 -0.09031,0.27656 -0.13563,0.415031 -0.02572,0.06859 -0.04082,0.139954 -0.05517,0.211521 0,0 -1.214471,0.59376 -1.214471,0.59376 l 0,0 c 0.01053,-0.07766 0.02078,-0.155569 0.04484,-0.230542 0.01502,-0.04332 0.0367,-0.08438 0.0488,-0.128605 0.02685,-0.09815 0.02846,-0.204446 0.08415,-0.294201 0.09119,-0.177007 0.114971,-0.383731 0.165017,-0.574499 0.07352,-0.261395 0.162077,-0.518502 0.234252,-0.779936 0.09806,-0.19453 0.207725,-0.29641 0.352221,-0.453953 0.148024,-0.150257 0.270599,-0.321462 0.423711,-0.466729 0.05189,-0.07147 0.07302,-0.146419 0.11919,-0.220879 0.122897,-0.198209 -0.02833,0.06063 0.101178,-0.128697 0.01646,-0.02407 0.02765,-0.05134 0.04147,-0.07701 0.07491,-0.183295 0.141526,-0.369655 0.189961,-0.562061 0.04966,-0.141057 0.08176,-0.292414 0.114999,-0.437053 0.0259,-0.160652 0.0782,-0.315677 0.06022,-0.480553 -3.22e-4,-0.182549 -0.0012,-0.365116 0.0018,-0.547649 0.0045,-0.186405 0.01152,-0.373529 0.04692,-0.557128 0.03752,-0.178862 0.08225,-0.355253 0.116612,-0.534703 0.04833,-0.154469 0.08754,-0.312804 0.160384,-0.458113 0.04044,-0.160502 0.09303,-0.318385 0.149199,-0.473714 0.06878,-0.144598 0.09607,-0.308124 0.129767,-0.463798 0.04389,-0.189056 0.03558,-0.378914 0.03496,-0.572612 0.0019,-0.286878 0.0042,-0.573773 2.69e-4,-0.860645 -0.0028,-0.196482 -0.0037,-0.39348 -0.02337,-0.589174 -0.02076,-0.162862 -0.0695,-0.321912 -0.07101,-0.48634 -0.005,-0.176838 -0.01232,-0.35509 -0.05865,-0.526891 -0.05144,-0.171617 -0.117255,-0.338773 -0.180248,-0.506372 -0.05105,-0.1695 -0.108782,-0.335744 -0.12592,-0.51351 -4.24e-4,-0.184095 -0.002,-0.368446 0.01046,-0.55223 0.01859,-0.201567 0.05423,-0.400522 0.146378,-0.583213 0.09762,-0.197568 0.179201,-0.403672 0.248647,-0.612658 0.07257,-0.1639 0.110283,-0.338956 0.183779,-0.50221 0.08472,-0.154511 0.129191,-0.319641 0.175593,-0.488837 0.03468,-0.187449 0.09624,-0.367126 0.129881,-0.554704 0.0501,-0.194433 0.08378,-0.390661 0.108127,-0.590269 -4.45e-4,-0.190467 -0.0014,-0.380932 -5.38e-4,-0.571403 2.95e-4,-0.181076 9.98e-4,-0.362158 -5.25e-4,-0.54323 -0.0024,-0.166325 -0.0044,-0.333497 -0.03085,-0.498118 -0.0287,-0.147172 -0.08062,-0.288038 -0.09971,-0.437085 -0.03978,-0.133876 -0.114915,-0.251249 -0.157164,-0.384393 -0.05904,-0.163835 -0.07348,-0.337141 -0.04415,-0.509163 0.02536,-0.178703 0.07288,-0.354548 0.05893,-0.536393 -1.95e-4,-0.181813 -6.07e-4,-0.363626 -3.24e-4,-0.545438 7.43e-4,-0.183323 0.0014,-0.36683 0.01427,-0.549795 0.01592,-0.189574 0.04568,-0.376826 0.07815,-0.564199 8.05e-4,-0.234796 0.0023,-0.469596 0.0011,-0.704393 10e-6,-0.212144 -6.52e-4,-0.424287 -0.0011,-0.636429 -4.44e-4,-0.179903 -3.67e-4,-0.360044 -0.01367,-0.539562 -0.01638,-0.174859 -0.04626,-0.34718 -0.09892,-0.515153 -0.0224,-0.146569 -0.07278,-0.28281 -0.109084,-0.42561 -0.04166,-0.145108 -0.119789,-0.274816 -0.15987,-0.42073 -0.06134,-0.184025 -0.08942,-0.377931 -0.105212,-0.570813 -0.02645,-0.205732 -0.07109,-0.410242 -0.06,-0.61874 -2.25e-4,-0.181894 -7.36e-4,-0.363791 1.45e-4,-0.545684 0.0016,-0.184566 0.0038,-0.36942 0.02178,-0.55327 0.02152,-0.192981 0.06897,-0.383438 0.07067,-0.577594 6.17e-4,-0.215539 2.18e-4,-0.431073 2.44e-4,-0.646613 -6.67e-4,-0.187519 -0.0014,-0.37526 -0.01418,-0.562425 -0.01447,-0.160447 -0.04486,-0.317423 -0.07752,-0.475036 -0.006,-0.19737 -0.01914,-0.395466 -0.07883,-0.585189 -0.08465,-0.257198 -0.186287,-0.511566 -0.316512,-0.749089 0,0 1.169856,-0.674722 1.169856,-0.674722 z"
       inkscape:connector-curvature="0" />
    <path
       style="fill:#000000;fill-opacity:1;stroke:#000000;stroke-width:0.05;stroke-miterlimit:4;stroke-opacity:1;stroke-dasharray:none"
       id="path4124"
       d="m 14.791079,11.010541 c 0.323141,0.288654 0.633049,0.591597 0.939177,0.898089 0.275197,0.250901 0.449466,0.580143 0.652268,0.886053 0.169681,0.250478 0.27461,0.534476 0.380908,0.815518 0.09829,0.262043 0.131631,0.538992 0.149805,0.816249 -0.0073,0.258429 0.04211,0.510602 0.08072,0.764612 0.05343,0.250612 0.132343,0.498276 0.234242,0.733427 0.103684,0.203209 0.143612,0.427927 0.215938,0.64234 0.03782,0.107207 0.05846,0.218656 0.07853,0.330124 l -1.688766,0.895917 0,0 c -0.01554,-0.102166 -0.03132,-0.204415 -0.065,-0.302628 -0.07084,-0.209975 -0.109169,-0.428782 -0.205581,-0.62972 -0.108719,-0.250263 -0.190976,-0.513626 -0.257461,-0.778076 -0.03679,-0.259597 -0.100386,-0.515936 -0.08871,-0.779881 -0.01176,-0.25939 -0.0329,-0.519909 -0.120502,-0.766665 -0.09914,-0.269337 -0.199107,-0.539706 -0.359428,-0.780023 -0.189682,-0.29931 -0.359846,-0.613977 -0.625286,-0.856504 -0.304308,-0.309381 -0.7914,-0.82919 -1.125227,-1.106882 z"
       inkscape:connector-curvature="0"
       sodipodi:nodetypes="cccccccccccccccccccc" />
    <path
       style="fill:#000000;fill-opacity:1;stroke:#000000;stroke-width:0.05;stroke-miterlimit:4;stroke-opacity:1;stroke-dasharray:none"
       id="path4126"
       d="m 22.023895,9.7216084 c -0.18165,0.3214886 -0.321397,0.6657546 -0.461075,1.0072366 -0.07859,0.227078 -0.12281,0.462853 -0.233001,0.677983 -0.08204,0.186336 -0.19839,0.353834 -0.291133,0.534452 -0.105502,0.190414 -0.187027,0.382033 -0.2273,0.596262 -0.03514,0.237968 -0.02146,0.478431 -0.06223,0.715551 -0.05275,0.222193 -0.0761,0.448682 -0.08938,0.676138 -0.0063,0.248256 -0.105858,0.473077 -0.181078,0.704689 -0.0411,0.215407 -0.101424,0.425808 -0.152651,0.638877 -0.04909,0.231372 -0.05517,0.468576 -0.06065,0.704141 -0.0039,0.255993 -0.0028,0.512029 -0.0024,0.768042 0.0016,0.234532 -0.08091,0.438993 -0.204435,0.633321 -0.123727,0.165755 -0.279481,0.302045 -0.42083,0.451593 -0.166155,0.197482 -0.315454,0.415368 -0.42447,0.649868 -0.09739,0.197629 -0.171247,0.397376 -0.206906,0.614877 -0.01663,0.154835 -0.0098,0.07665 -0.02042,0.234568 l -1.706515,0.858153 0,0 c 0.0065,-0.16575 0.0022,-0.08323 0.01292,-0.247564 0.02373,-0.230216 0.0627,-0.457834 0.187865,-0.657661 0.08788,-0.261769 0.24543,-0.48091 0.394536,-0.710863 0.134413,-0.157535 0.287052,-0.290546 0.423803,-0.444602 0.150232,-0.135724 0.232749,-0.315945 0.263517,-0.514675 -4.39e-4,-0.257061 -0.0014,-0.514128 3.79e-4,-0.771185 0.0031,-0.245503 0.006,-0.492051 0.04234,-0.735378 0.04014,-0.220902 0.124708,-0.427542 0.147274,-0.651654 0.05735,-0.227287 0.172965,-0.431182 0.201707,-0.665592 0.009,-0.235051 0.02163,-0.471168 0.07471,-0.701189 0.05511,-0.234211 0.05324,-0.467614 0.06734,-0.707581 0.02689,-0.22677 0.06835,-0.452007 0.205376,-0.641393 0.07314,-0.195947 0.19633,-0.359144 0.283329,-0.54613 0.03049,-0.05613 0.07158,-0.10632 0.09945,-0.163794 0.07636,-0.15746 0.09546,-0.333877 0.15038,-0.498306 0.131279,-0.350173 -0.108881,-0.999727 0.03889,-1.343092 z"
       inkscape:connector-curvature="0"
       sodipodi:nodetypes="ccccccccccccccccccccccccccccccccccc" />
    <path
       style="fill:#000000;fill-opacity:1;stroke:#000000;stroke-width:0.05;stroke-miterlimit:4;stroke-opacity:1;stroke-dasharray:none"
       id="path4130"
       d="m 20.20722,16.852294 c -4.9e-5,0.251697 -0.03833,0.500992 -0.06292,0.750957 -0.02792,0.166594 -0.0653,0.331625 -0.09953,0.49713 -0.03141,0.137115 -0.08909,0.264308 -0.142292,0.393655 -0.03483,0.07927 -0.08528,0.148632 -0.132317,0.220631 0,0 -1.200538,0.539149 -1.200538,0.539149 l 0,0 c 0.03606,-0.08201 0.0903,-0.14258 0.132765,-0.219631 0.07387,-0.110214 0.11158,-0.244936 0.154909,-0.369299 0.05699,-0.152785 0.05478,-0.325008 0.114714,-0.478701 0.02405,-0.245565 0.07126,-0.490683 0.06519,-0.737739 0,0 1.170014,-0.596152 1.170014,-0.596152 z"
       inkscape:connector-curvature="0" />
    <path
       style="fill:#000000;fill-opacity:1;stroke:#000000;stroke-width:0.05;stroke-miterlimit:4;stroke-opacity:1;stroke-dasharray:none"
       id="path4132"
       d="m 14.699804,12.804788 c 0.0061,0.134637 0.02355,0.268457 0.03393,0.402829 0.0067,0.08155 0.03457,0.156615 0.06186,0.232638 0.0162,0.0713 0.042,0.139751 0.05919,0.210783 0.02573,0.08066 0.0431,0.163412 0.066,0.244847 0.03028,0.08823 0.06447,0.175112 0.09304,0.263908 0.03486,0.07358 0.05743,0.151609 0.08264,0.228765 0.02775,0.0678 0.07296,0.124382 0.100537,0.192263 0.03329,0.06629 0.06124,0.135397 0.08466,0.20576 0.02184,0.07648 0.05037,0.149835 0.06554,0.228191 0.0132,0.07982 0.0097,0.160588 0.02561,0.239933 0.0191,0.07912 0.02634,0.160092 0.03073,0.241138 0.0036,0.08783 0.0035,0.175753 0.0035,0.263639 -5e-5,0.08848 -1.82e-4,0.176969 -2.49e-4,0.265453 0.0095,0.07568 0.02629,0.149953 0.03482,0.225869 0.0093,0.08002 0.03612,0.154959 0.06125,0.230797 0.02395,0.07564 0.02589,0.155085 0.04464,0.231817 0.01607,0.0788 0.03237,0.157298 0.05029,0.235743 0.01984,0.08479 0.03669,0.171123 0.06173,0.254562 0.03083,0.07283 0.03702,0.151674 0.05397,0.22787 0.02479,0.07378 0.03124,0.151255 0.04472,0.227326 0.01539,0.09408 0.04065,0.184691 0.06861,0.275606 0.0069,0.02338 0.01375,0.04676 0.02063,0.07014 0,0 -0.571833,0.313233 -0.571833,0.313233 l 0,0 c -0.0074,-0.02295 -0.0148,-0.04591 -0.0222,-0.06887 -0.02975,-0.09263 -0.0599,-0.183629 -0.07416,-0.280326 -0.01688,-0.07447 -0.01826,-0.152034 -0.04417,-0.22473 -0.01948,-0.07427 -0.02033,-0.153012 -0.05154,-0.224596 -0.02698,-0.08453 -0.04218,-0.173414 -0.06392,-0.259356 -0.01722,-0.07804 -0.03709,-0.155024 -0.05038,-0.233853 -0.01939,-0.07554 -0.02376,-0.15229 -0.04226,-0.227998 -0.02556,-0.08045 -0.05453,-0.159143 -0.06754,-0.243119 -0.0074,-0.07836 -0.02301,-0.154941 -0.03742,-0.232219 5.8e-5,-0.08847 1.66e-4,-0.176932 2.71e-4,-0.265399 2.8e-5,-0.0869 2.96e-4,-0.173828 -0.0024,-0.2607 -0.0033,-0.07769 -0.0082,-0.155602 -0.02649,-0.231487 -0.01771,-0.08015 -0.01858,-0.160314 -0.0263,-0.24185 -0.01248,-0.07618 -0.0403,-0.146493 -0.06104,-0.220408 -0.022,-0.06947 -0.05125,-0.136637 -0.08345,-0.201928 -0.02619,-0.06959 -0.07566,-0.126078 -0.101555,-0.196118 -0.02524,-0.07744 -0.048,-0.155672 -0.08245,-0.229736 -0.02739,-0.08981 -0.06258,-0.177067 -0.09412,-0.265464 -0.02336,-0.08236 -0.04091,-0.165996 -0.06865,-0.247085 -0.01502,-0.06927 -0.04252,-0.134557 -0.05578,-0.204226 -0.02829,-0.08209 -0.05955,-0.162224 -0.06692,-0.25 -0.0082,-0.135598 -0.02088,-0.270853 -0.03844,-0.405573 0,0 0.585007,-0.298076 0.585007,-0.298076 z"
       inkscape:connector-curvature="0" />
    <path
       style="fill:#000000;fill-opacity:1;stroke:#000000;stroke-width:0.05;stroke-miterlimit:4;stroke-opacity:1;stroke-dasharray:none"
       id="path4134"
       d="m 14.152243,13.59988 c -0.02753,-0.132146 -0.06424,-0.262459 -0.110154,-0.389363 -0.02492,-0.08114 -0.05274,-0.161201 -0.08369,-0.240266 -0.02137,-0.07166 -0.05222,-0.137301 -0.09088,-0.200867 -0.04112,-0.06705 -0.08795,-0.130154 -0.130373,-0.196434 -0.01007,-0.01696 -0.02013,-0.03392 -0.0302,-0.05088 0,0 0.565725,-0.328539 0.565725,-0.328539 l 0,0 c 0.01013,0.01606 0.02026,0.03211 0.03039,0.04817 0.04473,0.06574 0.09125,0.130177 0.133414,0.197573 0.04028,0.0667 0.07329,0.135458 0.09545,0.210484 0.0329,0.07947 0.05922,0.161398 0.08286,0.244024 0.04458,0.129398 0.07948,0.261677 0.114809,0.39387 0,0 -0.577358,0.312224 -0.577358,0.312224 z"
       inkscape:connector-curvature="0" />
  </g>
</svg>
